<ttFont>
    <TTGlyph name="A" xMin="54" yMin="0" xMax="1027" yMax="1284">
      <contour>
        <pt x="769" y="420" on="1"/>
        <pt x="550" y="1174" on="1"/>
        <pt x="323" y="420" on="1"/>
      </contour>
      <contour>
        <pt x="897" y="0" on="1"/>
        <pt x="800" y="328" on="1"/>
        <pt x="293" y="328" on="1"/>
        <pt x="193" y="0" on="1"/>
        <pt x="54" y="0" on="1"/>
        <pt x="454" y="1284" on="1"/>
        <pt x="645" y="1284" on="1"/>
        <pt x="1027" y="0" on="1"/>
      </contour>
    </TTGlyph>
    <TTGlyph name="AE" xMin="-26" yMin="0" xMax="1298" yMax="1284">
      <contour>
        <pt x="817" y="626" on="1"/>
        <pt x="817" y="100" on="1"/>
        <pt x="1282" y="100" on="1"/>
        <pt x="1298" y="0" on="1"/>
        <pt x="689" y="0" on="1"/>
        <pt x="689" y="328" on="1"/>
        <pt x="278" y="328" on="1"/>
        <pt x="114" y="0" on="1"/>
        <pt x="-26" y="0" on="1"/>
        <pt x="616" y="1284" on="1"/>
        <pt x="1294" y="1284" on="1"/>
        <pt x="1272" y="1184" on="1"/>
        <pt x="817" y="1184" on="1"/>
        <pt x="817" y="722" on="1"/>
        <pt x="1238" y="722" on="1"/>
        <pt x="1238" y="626" on="1"/>
      </contour>
      <contour>
        <pt x="689" y="1194" on="1"/>
        <pt x="316" y="420" on="1"/>
        <pt x="689" y="420" on="1"/>
      </contour>
    </TTGlyph>
    <TTGlyph name="Aacute" xMin="54" yMin="0" xMax="1027" yMax="1854">
      <component glyphName="acute" x="374" y="491" flags="0x1004"/>
      <component glyphName="A" x="0" y="0" flags="0x1204"/>
    </TTGlyph>
    <TTGlyph name="Abreve" xMin="54" yMin="0" xMax="1027" yMax="1689">
      <component glyphName="breve" x="106" y="433" flags="0x1004"/>
      <component glyphName="A" x="0" y="0" flags="0x1204"/>
    </TTGlyph>
    <TTGlyph name="Acircumflex" xMin="54" yMin="0" xMax="1027" yMax="1805">
      <component glyphName="circumflex" x="106" y="442" flags="0x1004"/>
      <component glyphName="A" x="0" y="0" flags="0x1204"/>
    </TTGlyph>
    <TTGlyph name="Adieresis" xMin="54" yMin="0" xMax="1027" yMax="1590">
      <component glyphName="dieresis" x="315" y="464" flags="0x1004"/>
      <component glyphName="A" x="0" y="0" flags="0x1204"/>
    </TTGlyph>
    <TTGlyph name="Agrave" xMin="54" yMin="0" xMax="1027" yMax="1854">
      <component glyphName="grave" x="174" y="491" flags="0x1004"/>
      <component glyphName="A" x="0" y="0" flags="0x1204"/>
    </TTGlyph>
    <TTGlyph name="Amacron" xMin="54" yMin="0" xMax="1027" yMax="1570">
      <component glyphName="macron" x="236" y="386" flags="0x1004"/>
      <component glyphName="A" x="0" y="0" flags="0x1204"/>
    </TTGlyph>
    <TTGlyph name="Aogonek" xMin="54" yMin="-340" xMax="1039" yMax="1284">
      <component glyphName="ogonek" x="391" y="117" flags="0x1004"/>
      <component glyphName="A" x="0" y="0" flags="0x1204"/>
    </TTGlyph>
    <TTGlyph name="Aring" xMin="54" yMin="0" xMax="1027" yMax="1712">
      <component glyphName="ring" x="200" y="362" flags="0x1004"/>
      <component glyphName="A" x="0" y="0" flags="0x1204"/>
    </TTGlyph>
    <TTGlyph name="Atilde" xMin="54" yMin="0" xMax="1027" yMax="1676">
      <component glyphName="tilde" x="100" y="992" flags="0x1004"/>
      <component glyphName="A" x="0" y="0" flags="0x1204"/>
    </TTGlyph>
    <TTGlyph name="B" xMin="149" yMin="0" xMax="949" yMax="1284">
      <contour>
        <pt x="709" y="687" on="1"/>
        <pt x="821" y="661" on="0"/>
        <pt x="949" y="506" on="0"/>
        <pt x="949" y="377" on="1"/>
        <pt x="949" y="284" on="0"/>
        <pt x="907" y="152" on="0"/>
        <pt x="833" y="67" on="0"/>
        <pt x="709" y="18" on="0"/>
        <pt x="567" y="0" on="0"/>
        <pt x="467" y="0" on="1"/>
        <pt x="149" y="0" on="1"/>
        <pt x="149" y="1284" on="1"/>
        <pt x="470" y="1284" on="1"/>
        <pt x="586" y="1284" on="0"/>
        <pt x="740" y="1257" on="0"/>
        <pt x="852" y="1187" on="0"/>
        <pt x="903" y="1064" on="0"/>
        <pt x="903" y="971" on="1"/>
        <pt x="903" y="847" on="0"/>
        <pt x="815" y="713" on="0"/>
      </contour>
      <contour>
        <pt x="821" y="375" on="1"/>
        <pt x="821" y="507" on="0"/>
        <pt x="665" y="629" on="0"/>
        <pt x="511" y="629" on="1"/>
        <pt x="277" y="629" on="1"/>
        <pt x="277" y="100" on="1"/>
        <pt x="474" y="100" on="1"/>
        <pt x="545" y="100" on="0"/>
        <pt x="645" y="112" on="0"/>
        <pt x="736" y="146" on="0"/>
        <pt x="790" y="206" on="0"/>
        <pt x="821" y="305" on="0"/>
      </contour>
      <contour>
        <pt x="510" y="723" on="1"/>
        <pt x="658" y="723" on="0"/>
        <pt x="791" y="833" on="0"/>
        <pt x="791" y="971" on="1"/>
        <pt x="791" y="1089" on="0"/>
        <pt x="653" y="1184" on="0"/>
        <pt x="494" y="1184" on="1"/>
        <pt x="277" y="1184" on="1"/>
        <pt x="277" y="723" on="1"/>
      </contour>
    </TTGlyph>
    <TTGlyph name="C" xMin="118" yMin="-10" xMax="923" yMax="1301">
      <contour>
        <pt x="246" y="638" on="1"/>
        <pt x="246" y="362" on="0"/>
        <pt x="442" y="96" on="0"/>
        <pt x="606" y="96" on="1"/>
        <pt x="746" y="96" on="0"/>
        <pt x="883" y="161" on="1"/>
        <pt x="923" y="64" on="1"/>
        <pt x="768" y="-10" on="0"/>
        <pt x="598" y="-10" on="1"/>
        <pt x="495" y="-10" on="0"/>
        <pt x="323" y="68" on="0"/>
        <pt x="192" y="223" on="0"/>
        <pt x="118" y="476" on="0"/>
        <pt x="118" y="641" on="1"/>
        <pt x="118" y="991" on="0"/>
        <pt x="345" y="1301" on="0"/>
        <pt x="586" y="1301" on="1"/>
        <pt x="743" y="1301" on="0"/>
        <pt x="896" y="1226" on="1"/>
        <pt x="896" y="984" on="1"/>
        <pt x="787" y="984" on="1"/>
        <pt x="787" y="1157" on="1"/>
        <pt x="701" y="1195" on="0"/>
        <pt x="597" y="1195" on="1"/>
        <pt x="507" y="1195" on="0"/>
        <pt x="385" y="1148" on="0"/>
        <pt x="290" y="1027" on="0"/>
        <pt x="246" y="805" on="0"/>
      </contour>
    </TTGlyph>
    <TTGlyph name="Cacute" xMin="118" yMin="-10" xMax="923" yMax="1854">
      <component glyphName="acute" x="354" y="491" flags="0x1004"/>
      <component glyphName="C" x="0" y="0" flags="0x1204"/>
    </TTGlyph>
    <TTGlyph name="Ccaron" xMin="118" yMin="-10" xMax="923" yMax="1834">
      <component glyphName="caron" x="356" y="471" flags="0x1004"/>
      <component glyphName="C" x="0" y="0" flags="0x1204"/>
    </TTGlyph>
    <TTGlyph name="Ccedilla" xMin="118" yMin="-391" xMax="923" yMax="1301">
      <component glyphName="cedilla" x="158" y="70" flags="0x1004"/>
      <component glyphName="C" x="0" y="0" flags="0x1204"/>
    </TTGlyph>
    <TTGlyph name="Ccircumflex" xMin="118" yMin="-10" xMax="923" yMax="1805">
      <component glyphName="circumflex" x="86" y="442" flags="0x1004"/>
      <component glyphName="C" x="0" y="0" flags="0x1204"/>
    </TTGlyph>
    <TTGlyph name="Cdotaccent" xMin="118" yMin="-10" xMax="923" yMax="1666">
      <component glyphName="period" x="296" y="1464" flags="0x1004"/>
      <component glyphName="C" x="0" y="0" flags="0x1204"/>
    </TTGlyph>
    <TTGlyph name="D" xMin="149" yMin="0" xMax="981" yMax="1284">
      <contour>
        <pt x="433" y="0" on="1"/>
        <pt x="149" y="0" on="1"/>
        <pt x="149" y="1284" on="1"/>
        <pt x="422" y="1284" on="1"/>
        <pt x="536" y="1284" on="0"/>
        <pt x="706" y="1254" on="0"/>
        <pt x="831" y="1184" on="0"/>
        <pt x="912" y="1086" on="0"/>
        <pt x="961" y="935" on="0"/>
        <pt x="981" y="757" on="0"/>
        <pt x="981" y="636" on="1"/>
        <pt x="981" y="543" on="0"/>
        <pt x="970" y="401" on="0"/>
        <pt x="940" y="263" on="0"/>
        <pt x="888" y="165" on="0"/>
        <pt x="806" y="80" on="0"/>
        <pt x="691" y="29" on="0"/>
        <pt x="533" y="0" on="0"/>
      </contour>
      <contour>
        <pt x="422" y="1184" on="1"/>
        <pt x="277" y="1184" on="1"/>
        <pt x="277" y="100" on="1"/>
        <pt x="433" y="100" on="1"/>
        <pt x="497" y="100" on="0"/>
        <pt x="600" y="113" on="0"/>
        <pt x="682" y="136" on="0"/>
        <pt x="744" y="178" on="0"/>
        <pt x="789" y="225" on="0"/>
        <pt x="820" y="297" on="0"/>
        <pt x="839" y="368" on="0"/>
        <pt x="849" y="471" on="0"/>
        <pt x="853" y="568" on="0"/>
        <pt x="853" y="636" on="1"/>
        <pt x="853" y="742" on="0"/>
        <pt x="841" y="887" on="0"/>
        <pt x="808" y="1018" on="0"/>
        <pt x="749" y="1099" on="0"/>
        <pt x="652" y="1159" on="0"/>
        <pt x="516" y="1184" on="0"/>
      </contour>
    </TTGlyph>
    <TTGlyph name="Dcaron" xMin="149" yMin="0" xMax="981" yMax="1834">
      <component glyphName="caron" x="400" y="471" flags="0x1004"/>
      <component glyphName="D" x="0" y="0" flags="0x1204"/>
    </TTGlyph>
    <TTGlyph name="Dcroat" xMin="0" yMin="0" xMax="981" yMax="1284">
      <contour>
        <pt x="422" y="1184" on="1"/>
        <pt x="277" y="1184" on="1"/>
        <pt x="277" y="712" on="1"/>
        <pt x="480" y="712" on="1"/>
        <pt x="480" y="609" on="1"/>
        <pt x="277" y="609" on="1"/>
        <pt x="277" y="104" on="1"/>
        <pt x="433" y="104" on="1"/>
        <pt x="497" y="104" on="0"/>
        <pt x="600" y="117" on="0"/>
        <pt x="682" y="140" on="0"/>
        <pt x="744" y="182" on="0"/>
        <pt x="789" y="228" on="0"/>
        <pt x="820" y="299" on="0"/>
        <pt x="839" y="370" on="0"/>
        <pt x="849" y="472" on="0"/>
        <pt x="853" y="569" on="0"/>
        <pt x="853" y="636" on="1"/>
        <pt x="853" y="742" on="0"/>
        <pt x="841" y="887" on="0"/>
        <pt x="808" y="1018" on="0"/>
        <pt x="749" y="1099" on="0"/>
        <pt x="652" y="1159" on="0"/>
        <pt x="516" y="1184" on="0"/>
      </contour>
      <contour>
        <pt x="0" y="609" on="1"/>
        <pt x="0" y="712" on="1"/>
        <pt x="149" y="712" on="1"/>
        <pt x="149" y="1284" on="1"/>
        <pt x="422" y="1284" on="1"/>
        <pt x="536" y="1284" on="0"/>
        <pt x="706" y="1254" on="0"/>
        <pt x="831" y="1184" on="0"/>
        <pt x="912" y="1086" on="0"/>
        <pt x="961" y="935" on="0"/>
        <pt x="981" y="757" on="0"/>
        <pt x="981" y="636" on="1"/>
        <pt x="981" y="543" on="0"/>
        <pt x="970" y="401" on="0"/>
        <pt x="940" y="263" on="0"/>
        <pt x="888" y="165" on="0"/>
        <pt x="806" y="80" on="0"/>
        <pt x="691" y="29" on="0"/>
        <pt x="533" y="0" on="0"/>
        <pt x="433" y="0" on="1"/>
        <pt x="149" y="0" on="1"/>
        <pt x="149" y="609" on="1"/>
      </contour>
    </TTGlyph>
    <TTGlyph name="Delta" xMin="113" yMin="0" xMax="970" yMax="1339">
      <contour>
        <pt x="246" y="102" on="1"/>
        <pt x="838" y="102" on="1"/>
        <pt x="563" y="1245" on="1"/>
        <pt x="539" y="1245" on="1"/>
      </contour>
      <contour>
        <pt x="970" y="0" on="1"/>
        <pt x="113" y="0" on="1"/>
        <pt x="464" y="1339" on="1"/>
        <pt x="640" y="1339" on="1"/>
      </contour>
    </TTGlyph>
    <TTGlyph name="E" xMin="149" yMin="0" xMax="838" yMax="1284">
      <contour>
        <pt x="277" y="626" on="1"/>
        <pt x="277" y="100" on="1"/>
        <pt x="822" y="100" on="1"/>
        <pt x="838" y="0" on="1"/>
        <pt x="149" y="0" on="1"/>
        <pt x="149" y="1284" on="1"/>
        <pt x="834" y="1284" on="1"/>
        <pt x="812" y="1184" on="1"/>
        <pt x="277" y="1184" on="1"/>
        <pt x="277" y="722" on="1"/>
        <pt x="778" y="722" on="1"/>
        <pt x="778" y="626" on="1"/>
      </contour>
    </TTGlyph>
    <TTGlyph name="Eacute" xMin="149" yMin="0" xMax="838" yMax="1854">
      <component glyphName="acute" x="328" y="491" flags="0x1004"/>
      <component glyphName="E" x="0" y="0" flags="0x1204"/>
    </TTGlyph>
    <TTGlyph name="Ebreve" xMin="149" yMin="0" xMax="838" yMax="1689">
      <component glyphName="breve" x="59" y="433" flags="0x1004"/>
      <component glyphName="E" x="0" y="0" flags="0x1204"/>
    </TTGlyph>
    <TTGlyph name="Ecaron" xMin="149" yMin="0" xMax="838" yMax="1834">
      <component glyphName="caron" x="329" y="471" flags="0x1004"/>
      <component glyphName="E" x="0" y="0" flags="0x1204"/>
    </TTGlyph>
    <TTGlyph name="Ecircumflex" xMin="149" yMin="0" xMax="838" yMax="1805">
      <component glyphName="circumflex" x="59" y="442" flags="0x1004"/>
      <component glyphName="E" x="0" y="0" flags="0x1204"/>
    </TTGlyph>
    <TTGlyph name="Edieresis" xMin="149" yMin="0" xMax="838" yMax="1590">
      <component glyphName="dieresis" x="268" y="464" flags="0x1004"/>
      <component glyphName="E" x="0" y="0" flags="0x1204"/>
    </TTGlyph>
    <TTGlyph name="Edotaccent" xMin="149" yMin="0" xMax="838" yMax="1666">
      <component glyphName="period" x="268" y="1464" flags="0x1004"/>
      <component glyphName="E" x="0" y="0" flags="0x1204"/>
    </TTGlyph>
    <TTGlyph name="Egrave" xMin="149" yMin="0" xMax="838" yMax="1854">
      <component glyphName="grave" x="128" y="491" flags="0x1004"/>
      <component glyphName="E" x="0" y="0" flags="0x1204"/>
    </TTGlyph>
    <TTGlyph name="Emacron" xMin="149" yMin="0" xMax="838" yMax="1570">
      <component glyphName="macron" x="190" y="386" flags="0x1004"/>
      <component glyphName="E" x="0" y="0" flags="0x1204"/>
    </TTGlyph>
    <TTGlyph name="Eng" xMin="149" yMin="-250" xMax="1044" yMax="1284">
      <contour>
        <pt x="1044" y="100" on="1"/>
        <pt x="1044" y="24" on="0"/>
        <pt x="1012" y="-92" on="0"/>
        <pt x="949" y="-167" on="0"/>
        <pt x="874" y="-216" on="0"/>
        <pt x="769" y="-241" on="0"/>
        <pt x="673" y="-250" on="0"/>
        <pt x="612" y="-250" on="1"/>
        <pt x="610" y="-143" on="1"/>
        <pt x="666" y="-143" on="0"/>
        <pt x="739" y="-137" on="0"/>
        <pt x="815" y="-119" on="0"/>
        <pt x="859" y="-84" on="0"/>
        <pt x="896" y="-26" on="0"/>
        <pt x="912" y="62" on="0"/>
        <pt x="912" y="122" on="1"/>
        <pt x="271" y="1081" on="1"/>
        <pt x="271" y="0" on="1"/>
        <pt x="149" y="0" on="1"/>
        <pt x="149" y="1284" on="1"/>
        <pt x="285" y="1284" on="1"/>
        <pt x="928" y="317" on="1"/>
        <pt x="928" y="1284" on="1"/>
        <pt x="1044" y="1284" on="1"/>
      </contour>
    </TTGlyph>
    <TTGlyph name="Eogonek" xMin="149" yMin="-329" xMax="838" yMax="1284">
      <component glyphName="ogonek" x="-24" y="128" flags="0x1004"/>
      <component glyphName="E" x="0" y="0" flags="0x1004"/>
    </TTGlyph>
    <TTGlyph name="Eth" xMin="0" yMin="0" xMax="981" yMax="1284">
      <contour>
        <pt x="422" y="1184" on="1"/>
        <pt x="277" y="1184" on="1"/>
        <pt x="277" y="712" on="1"/>
        <pt x="480" y="712" on="1"/>
        <pt x="480" y="609" on="1"/>
        <pt x="277" y="609" on="1"/>
        <pt x="277" y="104" on="1"/>
        <pt x="433" y="104" on="1"/>
        <pt x="497" y="104" on="0"/>
        <pt x="600" y="117" on="0"/>
        <pt x="682" y="140" on="0"/>
        <pt x="744" y="182" on="0"/>
        <pt x="789" y="228" on="0"/>
        <pt x="820" y="299" on="0"/>
        <pt x="839" y="370" on="0"/>
        <pt x="849" y="472" on="0"/>
        <pt x="853" y="569" on="0"/>
        <pt x="853" y="636" on="1"/>
        <pt x="853" y="742" on="0"/>
        <pt x="841" y="887" on="0"/>
        <pt x="808" y="1018" on="0"/>
        <pt x="749" y="1099" on="0"/>
        <pt x="652" y="1159" on="0"/>
        <pt x="516" y="1184" on="0"/>
      </contour>
      <contour>
        <pt x="0" y="609" on="1"/>
        <pt x="0" y="712" on="1"/>
        <pt x="149" y="712" on="1"/>
        <pt x="149" y="1284" on="1"/>
        <pt x="422" y="1284" on="1"/>
        <pt x="536" y="1284" on="0"/>
        <pt x="706" y="1254" on="0"/>
        <pt x="831" y="1184" on="0"/>
        <pt x="912" y="1086" on="0"/>
        <pt x="961" y="935" on="0"/>
        <pt x="981" y="757" on="0"/>
        <pt x="981" y="636" on="1"/>
        <pt x="981" y="543" on="0"/>
        <pt x="970" y="401" on="0"/>
        <pt x="940" y="263" on="0"/>
        <pt x="888" y="165" on="0"/>
        <pt x="806" y="80" on="0"/>
        <pt x="691" y="29" on="0"/>
        <pt x="533" y="0" on="0"/>
        <pt x="433" y="0" on="1"/>
        <pt x="149" y="0" on="1"/>
        <pt x="149" y="609" on="1"/>
      </contour>
    </TTGlyph>
    <TTGlyph name="Euro" xMin="71" yMin="-10" xMax="994" yMax="1301">
      <contour>
        <pt x="71" y="749" on="1"/>
        <pt x="71" y="840" on="1"/>
        <pt x="200" y="840" on="1"/>
        <pt x="230" y="1082" on="0"/>
        <pt x="453" y="1301" on="0"/>
        <pt x="657" y="1301" on="1"/>
        <pt x="814" y="1301" on="0"/>
        <pt x="967" y="1226" on="1"/>
        <pt x="967" y="984" on="1"/>
        <pt x="858" y="984" on="1"/>
        <pt x="858" y="1157" on="1"/>
        <pt x="772" y="1195" on="0"/>
        <pt x="668" y="1195" on="1"/>
        <pt x="594" y="1195" on="0"/>
        <pt x="486" y="1163" on="0"/>
        <pt x="397" y="1085" on="0"/>
        <pt x="341" y="945" on="0"/>
        <pt x="328" y="840" on="1"/>
        <pt x="717" y="840" on="1"/>
        <pt x="717" y="749" on="1"/>
        <pt x="320" y="749" on="1"/>
        <pt x="317" y="701" on="0"/>
        <pt x="317" y="646" on="1"/>
        <pt x="717" y="646" on="1"/>
        <pt x="717" y="555" on="1"/>
        <pt x="320" y="555" on="1"/>
        <pt x="335" y="321" on="0"/>
        <pt x="526" y="96" on="0"/>
        <pt x="677" y="96" on="1"/>
        <pt x="817" y="96" on="0"/>
        <pt x="954" y="161" on="1"/>
        <pt x="994" y="64" on="1"/>
        <pt x="839" y="-10" on="0"/>
        <pt x="669" y="-10" on="1"/>
        <pt x="573" y="-10" on="0"/>
        <pt x="410" y="58" on="0"/>
        <pt x="282" y="193" on="0"/>
        <pt x="201" y="412" on="0"/>
        <pt x="192" y="555" on="1"/>
        <pt x="71" y="555" on="1"/>
        <pt x="71" y="646" on="1"/>
        <pt x="189" y="646" on="1"/>
        <pt x="189" y="700" on="0"/>
        <pt x="192" y="749" on="1"/>
      </contour>
    </TTGlyph>
    <TTGlyph name="F" xMin="149" yMin="0" xMax="816" yMax="1284">
      <contour>
        <pt x="277" y="697" on="1"/>
        <pt x="733" y="697" on="1"/>
        <pt x="733" y="603" on="1"/>
        <pt x="277" y="603" on="1"/>
        <pt x="277" y="0" on="1"/>
        <pt x="149" y="0" on="1"/>
        <pt x="149" y="1284" on="1"/>
        <pt x="816" y="1284" on="1"/>
        <pt x="797" y="1184" on="1"/>
        <pt x="277" y="1184" on="1"/>
      </contour>
    </TTGlyph>
    <TTGlyph name="G" xMin="110" yMin="-10" xMax="964" yMax="1301">
      <contour>
        <pt x="964" y="92" on="1"/>
        <pt x="927" y="72" on="0"/>
        <pt x="878" y="49" on="0"/>
        <pt x="775" y="10" on="0"/>
        <pt x="652" y="-10" on="0"/>
        <pt x="584" y="-10" on="1"/>
        <pt x="325" y="-10" on="0"/>
        <pt x="110" y="303" on="0"/>
        <pt x="110" y="650" on="1"/>
        <pt x="110" y="995" on="0"/>
        <pt x="354" y="1301" on="0"/>
        <pt x="599" y="1301" on="1"/>
        <pt x="776" y="1301" on="0"/>
        <pt x="929" y="1226" on="1"/>
        <pt x="929" y="984" on="1"/>
        <pt x="820" y="984" on="1"/>
        <pt x="820" y="1157" on="1"/>
        <pt x="734" y="1195" on="0"/>
        <pt x="610" y="1195" on="1"/>
        <pt x="538" y="1195" on="0"/>
        <pt x="431" y="1169" on="0"/>
        <pt x="333" y="1099" on="0"/>
        <pt x="272" y="981" on="0"/>
        <pt x="235" y="789" on="0"/>
        <pt x="235" y="659" on="1"/>
        <pt x="235" y="355" on="0"/>
        <pt x="391" y="96" on="0"/>
        <pt x="590" y="96" on="1"/>
        <pt x="746" y="96" on="0"/>
        <pt x="848" y="145" on="1"/>
        <pt x="848" y="567" on="1"/>
        <pt x="612" y="567" on="1"/>
        <pt x="612" y="665" on="1"/>
        <pt x="964" y="665" on="1"/>
      </contour>
    </TTGlyph>
    <TTGlyph name="Gbreve" xMin="110" yMin="-10" xMax="964" yMax="1689">
      <component glyphName="breve" x="102" y="433" flags="0x1004"/>
      <component glyphName="G" x="0" y="0" flags="0x1204"/>
    </TTGlyph>
    <TTGlyph name="Gcircumflex" xMin="110" yMin="-10" xMax="964" yMax="1805">
      <component glyphName="circumflex" x="102" y="442" flags="0x1004"/>
      <component glyphName="G" x="0" y="0" flags="0x1204"/>
    </TTGlyph>
    <TTGlyph name="Gcommaaccent" xMin="110" yMin="-657" xMax="964" yMax="1301">
      <component glyphName="comma" x="320" y="-383" flags="0x1004"/>
      <component glyphName="G" x="0" y="0" flags="0x1204"/>
    </TTGlyph>
    <TTGlyph name="Gdotaccent" xMin="110" yMin="-10" xMax="964" yMax="1666">
      <component glyphName="period" x="312" y="1464" flags="0x1004"/>
      <component glyphName="G" x="0" y="0" flags="0x1204"/>
    </TTGlyph>
    <TTGlyph name="H" xMin="149" yMin="0" xMax="985" yMax="1284">
      <contour>
        <pt x="857" y="1284" on="1"/>
        <pt x="985" y="1284" on="1"/>
        <pt x="985" y="0" on="1"/>
        <pt x="857" y="0" on="1"/>
        <pt x="857" y="602" on="1"/>
        <pt x="277" y="602" on="1"/>
        <pt x="277" y="0" on="1"/>
        <pt x="149" y="0" on="1"/>
        <pt x="149" y="1284" on="1"/>
        <pt x="277" y="1284" on="1"/>
        <pt x="277" y="703" on="1"/>
        <pt x="857" y="703" on="1"/>
      </contour>
    </TTGlyph>
    <TTGlyph name="Hbar" xMin="41" yMin="0" xMax="1097" yMax="1284">
      <contour>
        <pt x="41" y="896" on="1"/>
        <pt x="41" y="984" on="1"/>
        <pt x="149" y="984" on="1"/>
        <pt x="149" y="1284" on="1"/>
        <pt x="277" y="1284" on="1"/>
        <pt x="277" y="984" on="1"/>
        <pt x="857" y="984" on="1"/>
        <pt x="857" y="1284" on="1"/>
        <pt x="985" y="1284" on="1"/>
        <pt x="985" y="984" on="1"/>
        <pt x="1097" y="984" on="1"/>
        <pt x="1097" y="896" on="1"/>
        <pt x="985" y="896" on="1"/>
        <pt x="985" y="0" on="1"/>
        <pt x="857" y="0" on="1"/>
        <pt x="857" y="602" on="1"/>
        <pt x="277" y="602" on="1"/>
        <pt x="277" y="0" on="1"/>
        <pt x="149" y="0" on="1"/>
        <pt x="149" y="896" on="1"/>
      </contour>
      <contour>
        <pt x="857" y="896" on="1"/>
        <pt x="277" y="896" on="1"/>
        <pt x="277" y="703" on="1"/>
        <pt x="857" y="703" on="1"/>
      </contour>
    </TTGlyph>
    <TTGlyph name="Hcircumflex" xMin="149" yMin="0" xMax="985" yMax="1805">
      <component glyphName="circumflex" x="132" y="442" flags="0x1004"/>
      <component glyphName="H" x="0" y="0" flags="0x1204"/>
    </TTGlyph>
    <TTGlyph name="I" xMin="110" yMin="0" xMax="620" yMax="1284">
      <contour>
        <pt x="432" y="1184" on="1"/>
        <pt x="432" y="100" on="1"/>
        <pt x="620" y="100" on="1"/>
        <pt x="620" y="0" on="1"/>
        <pt x="110" y="0" on="1"/>
        <pt x="110" y="100" on="1"/>
        <pt x="304" y="100" on="1"/>
        <pt x="304" y="1184" on="1"/>
        <pt x="110" y="1184" on="1"/>
        <pt x="110" y="1284" on="1"/>
        <pt x="616" y="1284" on="1"/>
        <pt x="616" y="1184" on="1"/>
      </contour>
    </TTGlyph>
    <TTGlyph name="IJ" xMin="110" yMin="-232" xMax="1224" yMax="1284">
      <component glyphName="J" x="730" y="0" flags="0x1004"/>
      <component glyphName="I" x="0" y="0" flags="0x1004"/>
    </TTGlyph>
    <TTGlyph name="Iacute" xMin="110" yMin="0" xMax="663" yMax="1854">
      <component glyphName="acute" x="199" y="491" flags="0x1004"/>
      <component glyphName="I" x="0" y="0" flags="0x1204"/>
    </TTGlyph>
    <TTGlyph name="Ibreve" xMin="96" yMin="0" xMax="633" yMax="1689">
      <component glyphName="breve" x="-70" y="433" flags="0x1004"/>
      <component glyphName="I" x="0" y="0" flags="0x1204"/>
    </TTGlyph>
    <TTGlyph name="Icircumflex" xMin="66" yMin="0" xMax="663" yMax="1805">
      <component glyphName="circumflex" x="-70" y="442" flags="0x1004"/>
      <component glyphName="I" x="0" y="0" flags="0x1204"/>
    </TTGlyph>
    <TTGlyph name="Idieresis" xMin="110" yMin="0" xMax="620" yMax="1590">
      <component glyphName="dieresis" x="140" y="464" flags="0x1004"/>
      <component glyphName="I" x="0" y="0" flags="0x1204"/>
    </TTGlyph>
    <TTGlyph name="Idotaccent" xMin="110" yMin="0" xMax="620" yMax="1666">
      <component glyphName="period" x="140" y="1464" flags="0x1004"/>
      <component glyphName="I" x="0" y="0" flags="0x1204"/>
    </TTGlyph>
    <TTGlyph name="Igrave" xMin="67" yMin="0" xMax="620" yMax="1854">
      <component glyphName="grave" x="-1" y="491" flags="0x1004"/>
      <component glyphName="I" x="0" y="0" flags="0x1204"/>
    </TTGlyph>
    <TTGlyph name="Imacron" xMin="110" yMin="0" xMax="620" yMax="1570">
      <component glyphName="macron" x="61" y="386" flags="0x1004"/>
      <component glyphName="I" x="0" y="0" flags="0x1204"/>
    </TTGlyph>
    <TTGlyph name="Iogonek" xMin="110" yMin="-329" xMax="620" yMax="1284">
      <component glyphName="ogonek" x="-200" y="128" flags="0x1004"/>
      <component glyphName="I" x="0" y="0" flags="0x1204"/>
    </TTGlyph>
    <TTGlyph name="Itilde" xMin="47" yMin="0" xMax="684" yMax="1676">
      <component glyphName="tilde" x="-75" y="992" flags="0x1004"/>
      <component glyphName="I" x="0" y="0" flags="0x1204"/>
    </TTGlyph>
    <TTGlyph name="J" xMin="47" yMin="-232" xMax="494" yMax="1284">
      <contour>
        <pt x="494" y="1284" on="1"/>
        <pt x="494" y="91" on="1"/>
        <pt x="494" y="-86" on="0"/>
        <pt x="359" y="-232" on="0"/>
        <pt x="223" y="-232" on="1"/>
        <pt x="131" y="-232" on="0"/>
        <pt x="47" y="-200" on="1"/>
        <pt x="62" y="-99" on="1"/>
        <pt x="141" y="-127" on="0"/>
        <pt x="214" y="-127" on="1"/>
        <pt x="298" y="-127" on="0"/>
        <pt x="366" y="-26" on="0"/>
        <pt x="366" y="91" on="1"/>
        <pt x="366" y="1184" on="1"/>
        <pt x="105" y="1184" on="1"/>
        <pt x="105" y="1284" on="1"/>
      </contour>
    </TTGlyph>
    <TTGlyph name="Jcircumflex" xMin="-28" yMin="-232" xMax="569" yMax="1805">
      <component glyphName="circumflex" x="-164" y="442" flags="0x1004"/>
      <component glyphName="J" x="0" y="0" flags="0x1204"/>
    </TTGlyph>
    <TTGlyph name="K" xMin="149" yMin="0" xMax="1001" yMax="1284">
      <contour>
        <pt x="277" y="0" on="1"/>
        <pt x="149" y="0" on="1"/>
        <pt x="149" y="1284" on="1"/>
        <pt x="277" y="1284" on="1"/>
        <pt x="277" y="609" on="1"/>
        <pt x="432" y="778" on="1"/>
        <pt x="825" y="1284" on="1"/>
        <pt x="975" y="1284" on="1"/>
        <pt x="550" y="721" on="1"/>
        <pt x="1001" y="0" on="1"/>
        <pt x="860" y="0" on="1"/>
        <pt x="453" y="652" on="1"/>
        <pt x="277" y="480" on="1"/>
      </contour>
    </TTGlyph>
    <TTGlyph name="Kcommaaccent" xMin="149" yMin="-647" xMax="1001" yMax="1284">
      <component glyphName="comma" x="358" y="-373" flags="0x1004"/>
      <component glyphName="K" x="0" y="0" flags="0x1204"/>
    </TTGlyph>
    <TTGlyph name="L" xMin="149" yMin="0" xMax="786" yMax="1284">
      <contour>
        <pt x="277" y="1284" on="1"/>
        <pt x="277" y="100" on="1"/>
        <pt x="769" y="100" on="1"/>
        <pt x="786" y="0" on="1"/>
        <pt x="149" y="0" on="1"/>
        <pt x="149" y="1284" on="1"/>
      </contour>
    </TTGlyph>
    <TTGlyph name="Lacute" xMin="149" yMin="0" xMax="786" yMax="1854">
      <component glyphName="acute" x="302" y="491" flags="0x1004"/>
      <component glyphName="L" x="0" y="0" flags="0x1204"/>
    </TTGlyph>
    <TTGlyph name="Lcaron" xMin="149" yMin="0" xMax="1251" yMax="1301">
      <component glyphName="comma" x="910" y="1091" flags="0x1004"/>
      <component glyphName="L" x="0" y="0" flags="0x1004"/>
    </TTGlyph>
    <TTGlyph name="Lcommaaccent" xMin="149" yMin="-647" xMax="786" yMax="1284">
      <component glyphName="comma" x="250" y="-373" flags="0x1004"/>
      <component glyphName="L" x="0" y="0" flags="0x1204"/>
    </TTGlyph>
    <TTGlyph name="Ldot" xMin="149" yMin="0" xMax="786" yMax="1284">
      <component glyphName="periodcentered" x="172" y="0" flags="0x1004"/>
      <component glyphName="L" x="0" y="0" flags="0x1204"/>
    </TTGlyph>
    <TTGlyph name="Lslash" xMin="-40" yMin="0" xMax="786" yMax="1284">
      <contour>
        <pt x="606" y="1000" on="1"/>
        <pt x="658" y="920" on="1"/>
        <pt x="277" y="623" on="1"/>
        <pt x="277" y="100" on="1"/>
        <pt x="769" y="100" on="1"/>
        <pt x="786" y="0" on="1"/>
        <pt x="149" y="0" on="1"/>
        <pt x="149" y="523" on="1"/>
        <pt x="13" y="418" on="1"/>
        <pt x="-40" y="498" on="1"/>
        <pt x="149" y="645" on="1"/>
        <pt x="149" y="1284" on="1"/>
        <pt x="277" y="1284" on="1"/>
        <pt x="277" y="744" on="1"/>
      </contour>
    </TTGlyph>
    <TTGlyph name="M" xMin="137" yMin="0" xMax="1225" yMax="1284">
      <contour>
        <pt x="1012" y="1099" on="1"/>
        <pt x="739" y="438" on="1"/>
        <pt x="624" y="438" on="1"/>
        <pt x="341" y="1101" on="1"/>
        <pt x="255" y="0" on="1"/>
        <pt x="137" y="0" on="1"/>
        <pt x="237" y="1284" on="1"/>
        <pt x="379" y="1284" on="1"/>
        <pt x="681" y="582" on="1"/>
        <pt x="975" y="1284" on="1"/>
        <pt x="1116" y="1284" on="1"/>
        <pt x="1225" y="0" on="1"/>
        <pt x="1107" y="0" on="1"/>
      </contour>
    </TTGlyph>
    <TTGlyph name="N" xMin="149" yMin="0" xMax="1044" yMax="1284">
      <contour>
        <pt x="928" y="1284" on="1"/>
        <pt x="1044" y="1284" on="1"/>
        <pt x="1044" y="0" on="1"/>
        <pt x="918" y="0" on="1"/>
        <pt x="271" y="1081" on="1"/>
        <pt x="271" y="0" on="1"/>
        <pt x="149" y="0" on="1"/>
        <pt x="149" y="1284" on="1"/>
        <pt x="285" y="1284" on="1"/>
        <pt x="928" y="219" on="1"/>
      </contour>
    </TTGlyph>
    <TTGlyph name="Nacute" xMin="149" yMin="0" xMax="1044" yMax="1854">
      <component glyphName="acute" x="430" y="491" flags="0x1004"/>
      <component glyphName="N" x="0" y="0" flags="0x1204"/>
    </TTGlyph>
    <TTGlyph name="Ncaron" xMin="149" yMin="0" xMax="1044" yMax="1834">
      <component glyphName="caron" x="432" y="471" flags="0x1004"/>
      <component glyphName="N" x="0" y="0" flags="0x1204"/>
    </TTGlyph>
    <TTGlyph name="Ncommaaccent" xMin="149" yMin="-647" xMax="1044" yMax="1284">
      <component glyphName="comma" x="380" y="-373" flags="0x1004"/>
      <component glyphName="N" x="0" y="0" flags="0x1204"/>
    </TTGlyph>
    <TTGlyph name="Ntilde" xMin="149" yMin="0" xMax="1044" yMax="1676">
      <component glyphName="tilde" x="156" y="992" flags="0x1004"/>
      <component glyphName="N" x="0" y="0" flags="0x1204"/>
    </TTGlyph>
    <TTGlyph name="O" xMin="116" yMin="-10" xMax="1012" yMax="1301">
      <contour>
        <pt x="461" y="1301" on="0"/>
        <pt x="667" y="1301" on="0"/>
        <pt x="822" y="1244" on="0"/>
        <pt x="924" y="1140" on="0"/>
        <pt x="986" y="975" on="0"/>
        <pt x="1012" y="778" on="0"/>
        <pt x="1012" y="648" on="1"/>
        <pt x="1012" y="517" on="0"/>
        <pt x="988" y="321" on="0"/>
        <pt x="928" y="154" on="0"/>
        <pt x="827" y="49" on="0"/>
        <pt x="671" y="-10" on="0"/>
        <pt x="457" y="-10" on="0"/>
        <pt x="301" y="49" on="0"/>
        <pt x="200" y="154" on="0"/>
        <pt x="140" y="321" on="0"/>
        <pt x="116" y="517" on="0"/>
        <pt x="116" y="648" on="1"/>
        <pt x="116" y="778" on="0"/>
        <pt x="142" y="975" on="0"/>
        <pt x="204" y="1140" on="0"/>
        <pt x="306" y="1244" on="0"/>
      </contour>
      <contour>
        <pt x="382" y="96" on="0"/>
        <pt x="746" y="96" on="0"/>
        <pt x="884" y="349" on="0"/>
        <pt x="884" y="645" on="1"/>
        <pt x="884" y="942" on="0"/>
        <pt x="745" y="1195" on="0"/>
        <pt x="383" y="1195" on="0"/>
        <pt x="244" y="942" on="0"/>
        <pt x="244" y="645" on="1"/>
        <pt x="244" y="349" on="0"/>
      </contour>
    </TTGlyph>
    <TTGlyph name="OE" xMin="116" yMin="0" xMax="1573" yMax="1284">
      <contour>
        <pt x="1012" y="626" on="1"/>
        <pt x="1012" y="104" on="1"/>
        <pt x="1557" y="104" on="1"/>
        <pt x="1573" y="0" on="1"/>
        <pt x="564" y="0" on="1"/>
        <pt x="457" y="0" on="0"/>
        <pt x="301" y="56" on="0"/>
        <pt x="200" y="159" on="0"/>
        <pt x="140" y="323" on="0"/>
        <pt x="116" y="517" on="0"/>
        <pt x="116" y="648" on="1"/>
        <pt x="116" y="778" on="0"/>
        <pt x="142" y="972" on="0"/>
        <pt x="204" y="1131" on="0"/>
        <pt x="307" y="1231" on="0"/>
        <pt x="460" y="1284" on="0"/>
        <pt x="564" y="1284" on="1"/>
        <pt x="1569" y="1284" on="1"/>
        <pt x="1547" y="1184" on="1"/>
        <pt x="1012" y="1184" on="1"/>
        <pt x="1012" y="722" on="1"/>
        <pt x="1513" y="722" on="1"/>
        <pt x="1513" y="626" on="1"/>
      </contour>
      <contour>
        <pt x="885" y="1185" on="1"/>
        <pt x="564" y="1184" on="1"/>
        <pt x="382" y="1184" on="0"/>
        <pt x="244" y="940" on="0"/>
        <pt x="244" y="645" on="1"/>
        <pt x="244" y="351" on="0"/>
        <pt x="381" y="104" on="0"/>
        <pt x="564" y="104" on="1"/>
        <pt x="884" y="105" on="1"/>
      </contour>
    </TTGlyph>
    <TTGlyph name="Oacute" xMin="116" yMin="-10" xMax="1012" yMax="1854">
      <component glyphName="acute" x="398" y="491" flags="0x1004"/>
      <component glyphName="O" x="0" y="0" flags="0x1204"/>
    </TTGlyph>
    <TTGlyph name="Obreve" xMin="116" yMin="-10" xMax="1012" yMax="1689">
      <component glyphName="breve" x="130" y="433" flags="0x1004"/>
      <component glyphName="O" x="0" y="0" flags="0x1204"/>
    </TTGlyph>
    <TTGlyph name="Ocircumflex" xMin="116" yMin="-10" xMax="1012" yMax="1805">
      <component glyphName="circumflex" x="130" y="442" flags="0x1004"/>
      <component glyphName="O" x="0" y="0" flags="0x1204"/>
    </TTGlyph>
    <TTGlyph name="Odieresis" xMin="116" yMin="-10" xMax="1012" yMax="1590">
      <component glyphName="dieresis" x="338" y="464" flags="0x1004"/>
      <component glyphName="O" x="0" y="0" flags="0x1204"/>
    </TTGlyph>
    <TTGlyph name="Ograve" xMin="116" yMin="-10" xMax="1012" yMax="1854">
      <component glyphName="grave" x="198" y="491" flags="0x1004"/>
      <component glyphName="O" x="0" y="0" flags="0x1204"/>
    </TTGlyph>
    <TTGlyph name="Ohungarumlaut" xMin="116" yMin="-10" xMax="1012" yMax="1854">
      <component glyphName="hungarumlaut" x="294" y="491" flags="0x1004"/>
      <component glyphName="O" x="0" y="0" flags="0x1204"/>
    </TTGlyph>
    <TTGlyph name="Omacron" xMin="116" yMin="-10" xMax="1012" yMax="1570">
      <component glyphName="macron" x="260" y="386" flags="0x1004"/>
      <component glyphName="O" x="0" y="0" flags="0x1204"/>
    </TTGlyph>
    <TTGlyph name="Omega" xMin="139" yMin="0" xMax="913" yMax="1363">
      <contour>
        <pt x="804" y="660" on="1"/>
        <pt x="804" y="760" on="0"/>
        <pt x="797" y="902" on="0"/>
        <pt x="777" y="1045" on="0"/>
        <pt x="738" y="1138" on="0"/>
        <pt x="677" y="1215" on="0"/>
        <pt x="587" y="1253" on="0"/>
        <pt x="526" y="1256" on="1"/>
        <pt x="443" y="1253" on="0"/>
        <pt x="329" y="1176" on="0"/>
        <pt x="270" y="1034" on="0"/>
        <pt x="246" y="871" on="0"/>
        <pt x="246" y="763" on="1"/>
        <pt x="251" y="570" on="1"/>
        <pt x="289" y="174" on="0"/>
        <pt x="473" y="103" on="1"/>
        <pt x="473" y="1" on="1"/>
        <pt x="165" y="1" on="1"/>
        <pt x="165" y="93" on="1"/>
        <pt x="336" y="93" on="1"/>
        <pt x="336" y="103" on="1"/>
        <pt x="231" y="182" on="0"/>
        <pt x="139" y="457" on="0"/>
        <pt x="139" y="675" on="1"/>
        <pt x="139" y="782" on="0"/>
        <pt x="151" y="947" on="0"/>
        <pt x="180" y="1111" on="0"/>
        <pt x="236" y="1226" on="0"/>
        <pt x="320" y="1318" on="0"/>
        <pt x="445" y="1363" on="0"/>
        <pt x="526" y="1363" on="1"/>
        <pt x="620" y="1363" on="0"/>
        <pt x="758" y="1297" on="0"/>
        <pt x="843" y="1187" on="0"/>
        <pt x="894" y="1015" on="0"/>
        <pt x="913" y="830" on="0"/>
        <pt x="913" y="710" on="1"/>
        <pt x="913" y="469" on="0"/>
        <pt x="824" y="184" on="0"/>
        <pt x="716" y="102" on="1"/>
        <pt x="899" y="102" on="1"/>
        <pt x="899" y="0" on="1"/>
        <pt x="580" y="0" on="1"/>
        <pt x="580" y="102" on="1"/>
        <pt x="638" y="122" on="0"/>
        <pt x="727" y="233" on="0"/>
        <pt x="779" y="387" on="0"/>
        <pt x="805" y="564" on="0"/>
        <pt x="805" y="659" on="1"/>
      </contour>
    </TTGlyph>
    <TTGlyph name="Oslash" xMin="116" yMin="-167" xMax="1012" yMax="1451">
      <component glyphName="O" x="0" y="0" flags="0x1004"/>
      <component glyphName="slash" x="123" y="-46" flags="0x1004"/>
    </TTGlyph>
    <TTGlyph name="Otilde" xMin="116" yMin="-10" xMax="1012" yMax="1676">
      <component glyphName="tilde" x="124" y="992" flags="0x1004"/>
      <component glyphName="O" x="0" y="0" flags="0x1204"/>
    </TTGlyph>
    <TTGlyph name="P" xMin="149" yMin="0" xMax="917" yMax="1284">
      <contour>
        <pt x="277" y="640" on="1"/>
        <pt x="361" y="640" on="1"/>
        <pt x="466" y="640" on="0"/>
        <pt x="572" y="646" on="0"/>
        <pt x="697" y="672" on="0"/>
        <pt x="751" y="728" on="0"/>
        <pt x="789" y="827" on="0"/>
        <pt x="789" y="903" on="1"/>
        <pt x="789" y="1064" on="0"/>
        <pt x="655" y="1184" on="0"/>
        <pt x="506" y="1184" on="1"/>
        <pt x="277" y="1184" on="1"/>
      </contour>
      <contour>
        <pt x="498" y="1284" on="1"/>
        <pt x="600" y="1284" on="0"/>
        <pt x="747" y="1248" on="0"/>
        <pt x="860" y="1163" on="0"/>
        <pt x="917" y="1013" on="0"/>
        <pt x="917" y="905" on="1"/>
        <pt x="917" y="814" on="0"/>
        <pt x="871" y="683" on="0"/>
        <pt x="788" y="601" on="0"/>
        <pt x="651" y="554" on="0"/>
        <pt x="494" y="536" on="0"/>
        <pt x="384" y="536" on="1"/>
        <pt x="277" y="536" on="1"/>
        <pt x="277" y="0" on="1"/>
        <pt x="149" y="0" on="1"/>
        <pt x="149" y="1284" on="1"/>
      </contour>
    </TTGlyph>
    <TTGlyph name="Q" xMin="118" yMin="-159" xMax="1014" yMax="1308">
      <contour>
        <pt x="566" y="96" on="1"/>
        <pt x="667" y="96" on="0"/>
        <pt x="719" y="124" on="1"/>
        <pt x="596" y="295" on="1"/>
        <pt x="667" y="351" on="1"/>
        <pt x="789" y="180" on="1"/>
        <pt x="841" y="243" on="0"/>
        <pt x="886" y="469" on="0"/>
        <pt x="886" y="645" on="1"/>
        <pt x="886" y="942" on="0"/>
        <pt x="747" y="1196" on="0"/>
        <pt x="385" y="1196" on="0"/>
        <pt x="246" y="942" on="0"/>
        <pt x="246" y="645" on="1"/>
        <pt x="246" y="349" on="0"/>
        <pt x="384" y="96" on="0"/>
      </contour>
      <contour>
        <pt x="922" y="-159" on="1"/>
        <pt x="787" y="29" on="1"/>
        <pt x="698" y="-16" on="0"/>
        <pt x="566" y="-16" on="1"/>
        <pt x="459" y="-16" on="0"/>
        <pt x="302" y="44" on="0"/>
        <pt x="202" y="151" on="0"/>
        <pt x="142" y="320" on="0"/>
        <pt x="118" y="517" on="0"/>
        <pt x="118" y="648" on="1"/>
        <pt x="118" y="811" on="0"/>
        <pt x="161" y="1045" on="0"/>
        <pt x="261" y="1221" on="0"/>
        <pt x="437" y="1308" on="0"/>
        <pt x="695" y="1308" on="0"/>
        <pt x="871" y="1221" on="0"/>
        <pt x="971" y="1045" on="0"/>
        <pt x="1014" y="811" on="0"/>
        <pt x="1014" y="648" on="1"/>
        <pt x="1014" y="437" on="0"/>
        <pt x="945" y="157" on="0"/>
        <pt x="861" y="80" on="1"/>
        <pt x="993" y="-104" on="1"/>
      </contour>
    </TTGlyph>
    <TTGlyph name="R" xMin="149" yMin="-25" xMax="975" yMax="1284">
      <contour>
        <pt x="789" y="920" on="1"/>
        <pt x="789" y="972" on="0"/>
        <pt x="772" y="1052" on="0"/>
        <pt x="743" y="1108" on="0"/>
        <pt x="688" y="1146" on="0"/>
        <pt x="633" y="1169" on="0"/>
        <pt x="541" y="1181" on="0"/>
        <pt x="459" y="1184" on="0"/>
        <pt x="396" y="1184" on="1"/>
        <pt x="277" y="1184" on="1"/>
        <pt x="277" y="662" on="1"/>
        <pt x="364" y="662" on="1"/>
        <pt x="451" y="662" on="0"/>
        <pt x="567" y="669" on="0"/>
        <pt x="669" y="690" on="0"/>
        <pt x="729" y="725" on="0"/>
        <pt x="772" y="783" on="0"/>
        <pt x="789" y="863" on="0"/>
      </contour>
      <contour>
        <pt x="975" y="41" on="1"/>
        <pt x="870" y="-25" on="1"/>
        <pt x="663" y="317" on="0"/>
        <pt x="550" y="573" on="1"/>
        <pt x="478" y="567" on="0"/>
        <pt x="387" y="567" on="1"/>
        <pt x="277" y="567" on="1"/>
        <pt x="277" y="0" on="1"/>
        <pt x="149" y="0" on="1"/>
        <pt x="149" y="1284" on="1"/>
        <pt x="402" y="1284" on="1"/>
        <pt x="494" y="1284" on="0"/>
        <pt x="624" y="1274" on="0"/>
        <pt x="748" y="1247" on="0"/>
        <pt x="828" y="1196" on="0"/>
        <pt x="889" y="1117" on="0"/>
        <pt x="917" y="1000" on="0"/>
        <pt x="917" y="922" on="1"/>
        <pt x="917" y="775" on="0"/>
        <pt x="796" y="620" on="0"/>
        <pt x="669" y="591" on="1"/>
        <pt x="710" y="498" on="0"/>
        <pt x="863" y="223" on="0"/>
        <pt x="919" y="132" on="1"/>
      </contour>
    </TTGlyph>
    <TTGlyph name="Racute" xMin="149" yMin="-25" xMax="975" yMax="1854">
      <component glyphName="acute" x="396" y="491" flags="0x1004"/>
      <component glyphName="R" x="0" y="0" flags="0x1204"/>
    </TTGlyph>
    <TTGlyph name="Rcaron" xMin="149" yMin="-25" xMax="975" yMax="1834">
      <component glyphName="caron" x="398" y="471" flags="0x1004"/>
      <component glyphName="R" x="0" y="0" flags="0x1204"/>
    </TTGlyph>
    <TTGlyph name="Rcommaaccent" xMin="149" yMin="-672" xMax="975" yMax="1284">
      <component glyphName="comma" x="345" y="-398" flags="0x1004"/>
      <component glyphName="R" x="0" y="0" flags="0x1204"/>
    </TTGlyph>
    <TTGlyph name="S" xMin="105" yMin="-10" xMax="873" yMax="1301">
      <contour>
        <pt x="819" y="1137" on="1"/>
        <pt x="665" y="1195" on="0"/>
        <pt x="514" y="1195" on="1"/>
        <pt x="233" y="1195" on="0"/>
        <pt x="233" y="972" on="1"/>
        <pt x="233" y="890" on="0"/>
        <pt x="307" y="801" on="0"/>
        <pt x="417" y="761" on="1"/>
        <pt x="531" y="720" on="1"/>
        <pt x="542" y="716" on="0"/>
        <pt x="564" y="708" on="1"/>
        <pt x="608" y="693" on="0"/>
        <pt x="653" y="676" on="0"/>
        <pt x="730" y="639" on="0"/>
        <pt x="772" y="607" on="0"/>
        <pt x="826" y="552" on="0"/>
        <pt x="853" y="491" on="0"/>
        <pt x="873" y="404" on="0"/>
        <pt x="873" y="353" on="1"/>
        <pt x="873" y="179" on="0"/>
        <pt x="661" y="-10" on="0"/>
        <pt x="481" y="-10" on="1"/>
        <pt x="250" y="-10" on="0"/>
        <pt x="105" y="68" on="1"/>
        <pt x="133" y="173" on="1"/>
        <pt x="187" y="150" on="0"/>
        <pt x="256" y="124" on="0"/>
        <pt x="397" y="96" on="0"/>
        <pt x="471" y="96" on="1"/>
        <pt x="599" y="96" on="0"/>
        <pt x="745" y="225" on="0"/>
        <pt x="745" y="355" on="1"/>
        <pt x="745" y="401" on="0"/>
        <pt x="723" y="471" on="0"/>
        <pt x="689" y="517" on="0"/>
        <pt x="619" y="558" on="0"/>
        <pt x="555" y="584" on="0"/>
        <pt x="499" y="603" on="1"/>
        <pt x="376" y="644" on="1"/>
        <pt x="242" y="689" on="0"/>
        <pt x="105" y="839" on="0"/>
        <pt x="105" y="969" on="1"/>
        <pt x="105" y="1058" on="0"/>
        <pt x="166" y="1189" on="0"/>
        <pt x="276" y="1265" on="0"/>
        <pt x="413" y="1301" on="0"/>
        <pt x="497" y="1301" on="1"/>
        <pt x="692" y="1301" on="0"/>
        <pt x="842" y="1239" on="1"/>
      </contour>
    </TTGlyph>
    <TTGlyph name="Sacute" xMin="105" yMin="-10" xMax="873" yMax="1854">
      <component glyphName="acute" x="323" y="491" flags="0x1004"/>
      <component glyphName="S" x="0" y="0" flags="0x1204"/>
    </TTGlyph>
    <TTGlyph name="Scaron" xMin="105" yMin="-10" xMax="873" yMax="1834">
      <component glyphName="caron" x="324" y="471" flags="0x1004"/>
      <component glyphName="S" x="0" y="0" flags="0x1204"/>
    </TTGlyph>
    <TTGlyph name="Scedilla" xMin="105" yMin="-388" xMax="873" yMax="1301">
      <component glyphName="cedilla" x="50" y="73" flags="0x1004"/>
      <component glyphName="S" x="0" y="0" flags="0x1204"/>
    </TTGlyph>
    <TTGlyph name="Scircumflex" xMin="105" yMin="-10" xMax="873" yMax="1805">
      <component glyphName="circumflex" x="54" y="442" flags="0x1004"/>
      <component glyphName="S" x="0" y="0" flags="0x1204"/>
    </TTGlyph>
    <TTGlyph name="Scommaaccent" xMin="105" yMin="-657" xMax="873" yMax="1301">
      <component glyphName="comma" x="272" y="-383" flags="0x1004"/>
      <component glyphName="S" x="0" y="0" flags="0x1204"/>
    </TTGlyph>
    <TTGlyph name="T" xMin="35" yMin="0" xMax="856" yMax="1284">
      <contour>
        <pt x="35" y="1184" on="1"/>
        <pt x="35" y="1284" on="1"/>
        <pt x="856" y="1284" on="1"/>
        <pt x="856" y="1184" on="1"/>
        <pt x="507" y="1184" on="1"/>
        <pt x="507" y="0" on="1"/>
        <pt x="379" y="0" on="1"/>
        <pt x="379" y="1184" on="1"/>
      </contour>
    </TTGlyph>
    <TTGlyph name="Tbar" xMin="35" yMin="0" xMax="856" yMax="1284">
      <contour>
        <pt x="35" y="1184" on="1"/>
        <pt x="35" y="1284" on="1"/>
        <pt x="856" y="1284" on="1"/>
        <pt x="856" y="1184" on="1"/>
        <pt x="507" y="1184" on="1"/>
        <pt x="507" y="712" on="1"/>
        <pt x="716" y="712" on="1"/>
        <pt x="716" y="609" on="1"/>
        <pt x="507" y="609" on="1"/>
        <pt x="507" y="0" on="1"/>
        <pt x="379" y="0" on="1"/>
        <pt x="379" y="609" on="1"/>
        <pt x="166" y="609" on="1"/>
        <pt x="166" y="712" on="1"/>
        <pt x="379" y="712" on="1"/>
        <pt x="379" y="1184" on="1"/>
      </contour>
    </TTGlyph>
    <TTGlyph name="Tcaron" xMin="35" yMin="0" xMax="856" yMax="1834">
      <component glyphName="caron" x="281" y="471" flags="0x1004"/>
      <component glyphName="T" x="0" y="0" flags="0x1204"/>
    </TTGlyph>
    <TTGlyph name="Thorn" xMin="149" yMin="0" xMax="917" yMax="1284">
      <contour>
        <pt x="278" y="1284" on="1"/>
        <pt x="278" y="1052" on="1"/>
        <pt x="467" y="1052" on="1"/>
        <pt x="550" y="1052" on="0"/>
        <pt x="677" y="1035" on="0"/>
        <pt x="796" y="988" on="0"/>
        <pt x="872" y="911" on="0"/>
        <pt x="917" y="783" on="0"/>
        <pt x="917" y="697" on="1"/>
        <pt x="917" y="606" on="0"/>
        <pt x="868" y="475" on="0"/>
        <pt x="781" y="393" on="0"/>
        <pt x="639" y="345" on="0"/>
        <pt x="479" y="327" on="0"/>
        <pt x="369" y="327" on="1"/>
        <pt x="277" y="327" on="1"/>
        <pt x="277" y="0" on="1"/>
        <pt x="149" y="0" on="1"/>
        <pt x="149" y="1284" on="1"/>
      </contour>
      <contour>
        <pt x="277" y="431" on="1"/>
        <pt x="366" y="431" on="1"/>
        <pt x="437" y="431" on="0"/>
        <pt x="526" y="434" on="0"/>
        <pt x="626" y="446" on="0"/>
        <pt x="684" y="468" on="0"/>
        <pt x="742" y="506" on="0"/>
        <pt x="771" y="563" on="0"/>
        <pt x="789" y="642" on="0"/>
        <pt x="789" y="695" on="1"/>
        <pt x="789" y="777" on="0"/>
        <pt x="746" y="882" on="0"/>
        <pt x="656" y="934" on="0"/>
        <pt x="553" y="952" on="0"/>
        <pt x="475" y="952" on="1"/>
        <pt x="277" y="952" on="1"/>
      </contour>
    </TTGlyph>
    <TTGlyph name="U" xMin="124" yMin="-16" xMax="956" yMax="1284">
      <contour>
        <pt x="482" y="96" on="0"/>
        <pt x="598" y="96" on="0"/>
        <pt x="686" y="118" on="0"/>
        <pt x="747" y="152" on="0"/>
        <pt x="789" y="217" on="0"/>
        <pt x="812" y="280" on="0"/>
        <pt x="825" y="384" on="0"/>
        <pt x="828" y="471" on="0"/>
        <pt x="828" y="540" on="1"/>
        <pt x="828" y="1284" on="1"/>
        <pt x="956" y="1284" on="1"/>
        <pt x="956" y="635" on="1"/>
        <pt x="956" y="549" on="0"/>
        <pt x="952" y="428" on="0"/>
        <pt x="939" y="293" on="0"/>
        <pt x="913" y="202" on="0"/>
        <pt x="872" y="110" on="0"/>
        <pt x="810" y="52" on="0"/>
        <pt x="726" y="5" on="0"/>
        <pt x="612" y="-16" on="0"/>
        <pt x="468" y="-16" on="0"/>
        <pt x="354" y="5" on="0"/>
        <pt x="270" y="52" on="0"/>
        <pt x="208" y="110" on="0"/>
        <pt x="167" y="202" on="0"/>
        <pt x="141" y="293" on="0"/>
        <pt x="128" y="428" on="0"/>
        <pt x="124" y="549" on="0"/>
        <pt x="124" y="635" on="1"/>
        <pt x="124" y="1284" on="1"/>
        <pt x="252" y="1284" on="1"/>
        <pt x="252" y="540" on="1"/>
        <pt x="252" y="471" on="0"/>
        <pt x="255" y="384" on="0"/>
        <pt x="268" y="280" on="0"/>
        <pt x="291" y="217" on="0"/>
        <pt x="333" y="152" on="0"/>
        <pt x="394" y="118" on="0"/>
      </contour>
    </TTGlyph>
    <TTGlyph name="Uacute" xMin="124" yMin="-16" xMax="956" yMax="1854">
      <component glyphName="acute" x="374" y="491" flags="0x1004"/>
      <component glyphName="U" x="0" y="0" flags="0x1204"/>
    </TTGlyph>
    <TTGlyph name="Ubreve" xMin="124" yMin="-16" xMax="956" yMax="1689">
      <component glyphName="breve" x="106" y="433" flags="0x1004"/>
      <component glyphName="U" x="0" y="0" flags="0x1204"/>
    </TTGlyph>
    <TTGlyph name="Ucircumflex" xMin="124" yMin="-16" xMax="956" yMax="1805">
      <component glyphName="circumflex" x="106" y="442" flags="0x1004"/>
      <component glyphName="U" x="0" y="0" flags="0x1204"/>
    </TTGlyph>
    <TTGlyph name="Udieresis" xMin="124" yMin="-16" xMax="956" yMax="1590">
      <component glyphName="dieresis" x="314" y="464" flags="0x1004"/>
      <component glyphName="U" x="0" y="0" flags="0x1204"/>
    </TTGlyph>
    <TTGlyph name="Ugrave" xMin="124" yMin="-16" xMax="956" yMax="1854">
      <component glyphName="grave" x="174" y="491" flags="0x1004"/>
      <component glyphName="U" x="0" y="0" flags="0x1204"/>
    </TTGlyph>
    <TTGlyph name="Uhungarumlaut" xMin="124" yMin="-16" xMax="986" yMax="1854">
      <component glyphName="hungarumlaut" x="270" y="491" flags="0x1004"/>
      <component glyphName="U" x="0" y="0" flags="0x1204"/>
    </TTGlyph>
    <TTGlyph name="Umacron" xMin="124" yMin="-16" xMax="956" yMax="1570">
      <component glyphName="macron" x="236" y="386" flags="0x1004"/>
      <component glyphName="U" x="0" y="0" flags="0x1204"/>
    </TTGlyph>
    <TTGlyph name="Uogonek" xMin="124" yMin="-345" xMax="956" yMax="1284">
      <component glyphName="ogonek" x="-25" y="112" flags="0x1004"/>
      <component glyphName="U" x="0" y="0" flags="0x1204"/>
    </TTGlyph>
    <TTGlyph name="Uring" xMin="124" yMin="-16" xMax="956" yMax="1968">
      <component glyphName="degree" x="191" y="547" flags="0x1004"/>
      <component glyphName="U" x="0" y="0" flags="0x1204"/>
    </TTGlyph>
    <TTGlyph name="Utilde" xMin="124" yMin="-16" xMax="956" yMax="1676">
      <component glyphName="tilde" x="100" y="992" flags="0x1004"/>
      <component glyphName="U" x="0" y="0" flags="0x1204"/>
    </TTGlyph>
    <TTGlyph name="V" xMin="56" yMin="0" xMax="952" yMax="1285">
      <contour>
        <pt x="188" y="1285" on="1"/>
        <pt x="253" y="1031" on="0"/>
        <pt x="472" y="252" on="0"/>
        <pt x="504" y="134" on="1"/>
        <pt x="532" y="240" on="0"/>
        <pt x="751" y="1028" on="0"/>
        <pt x="817" y="1285" on="1"/>
        <pt x="952" y="1285" on="1"/>
        <pt x="583" y="0" on="1"/>
        <pt x="425" y="0" on="1"/>
        <pt x="56" y="1285" on="1"/>
      </contour>
    </TTGlyph>
    <TTGlyph name="W" xMin="157" yMin="0" xMax="1205" yMax="1284">
      <contour>
        <pt x="390" y="185" on="1"/>
        <pt x="623" y="846" on="1"/>
        <pt x="738" y="846" on="1"/>
        <pt x="981" y="183" on="1"/>
        <pt x="1087" y="1284" on="1"/>
        <pt x="1205" y="1284" on="1"/>
        <pt x="1085" y="0" on="1"/>
        <pt x="943" y="0" on="1"/>
        <pt x="681" y="702" on="1"/>
        <pt x="427" y="0" on="1"/>
        <pt x="286" y="0" on="1"/>
        <pt x="157" y="1284" on="1"/>
        <pt x="275" y="1284" on="1"/>
      </contour>
    </TTGlyph>
    <TTGlyph name="Wacute" xMin="157" yMin="0" xMax="1205" yMax="1854">
      <component glyphName="acute" x="515" y="491" flags="0x1004"/>
      <component glyphName="W" x="0" y="0" flags="0x1204"/>
    </TTGlyph>
    <TTGlyph name="Wcircumflex" xMin="157" yMin="0" xMax="1205" yMax="1805">
      <component glyphName="circumflex" x="246" y="442" flags="0x1004"/>
      <component glyphName="W" x="0" y="0" flags="0x1204"/>
    </TTGlyph>
    <TTGlyph name="Wdieresis" xMin="157" yMin="0" xMax="1205" yMax="1590">
      <component glyphName="dieresis" x="456" y="464" flags="0x1004"/>
      <component glyphName="W" x="0" y="0" flags="0x1204"/>
    </TTGlyph>
    <TTGlyph name="Wgrave" xMin="157" yMin="0" xMax="1205" yMax="1854">
      <component glyphName="grave" x="315" y="491" flags="0x1004"/>
      <component glyphName="W" x="0" y="0" flags="0x1204"/>
    </TTGlyph>
    <TTGlyph name="X" xMin="44" yMin="0" xMax="855" yMax="1284">
      <contour>
        <pt x="70" y="1284" on="1"/>
        <pt x="200" y="1284" on="1"/>
        <pt x="452" y="745" on="1"/>
        <pt x="702" y="1284" on="1"/>
        <pt x="820" y="1284" on="1"/>
        <pt x="535" y="657" on="1"/>
        <pt x="855" y="0" on="1"/>
        <pt x="727" y="0" on="1"/>
        <pt x="453" y="569" on="1"/>
        <pt x="182" y="0" on="1"/>
        <pt x="44" y="0" on="1"/>
        <pt x="362" y="658" on="1"/>
      </contour>
    </TTGlyph>
    <TTGlyph name="Y" xMin="15" yMin="0" xMax="911" yMax="1284">
      <contour>
        <pt x="399" y="586" on="1"/>
        <pt x="15" y="1284" on="1"/>
        <pt x="157" y="1284" on="1"/>
        <pt x="463" y="704" on="1"/>
        <pt x="765" y="1284" on="1"/>
        <pt x="911" y="1284" on="1"/>
        <pt x="527" y="588" on="1"/>
        <pt x="527" y="0" on="1"/>
        <pt x="399" y="0" on="1"/>
      </contour>
    </TTGlyph>
    <TTGlyph name="Yacute" xMin="15" yMin="0" xMax="911" yMax="1854">
      <component glyphName="acute" x="297" y="491" flags="0x1004"/>
      <component glyphName="Y" x="0" y="0" flags="0x1204"/>
    </TTGlyph>
    <TTGlyph name="Ycircumflex" xMin="15" yMin="0" xMax="911" yMax="1805">
      <component glyphName="circumflex" x="28" y="442" flags="0x1004"/>
      <component glyphName="Y" x="0" y="0" flags="0x1204"/>
    </TTGlyph>
    <TTGlyph name="Ydieresis" xMin="15" yMin="0" xMax="911" yMax="1590">
      <component glyphName="dieresis" x="238" y="464" flags="0x1004"/>
      <component glyphName="Y" x="0" y="0" flags="0x1204"/>
    </TTGlyph>
    <TTGlyph name="Ygrave" xMin="15" yMin="0" xMax="911" yMax="1854">
      <component glyphName="grave" x="97" y="491" flags="0x1004"/>
      <component glyphName="Y" x="0" y="0" flags="0x1204"/>
    </TTGlyph>
    <TTGlyph name="Z" xMin="104" yMin="0" xMax="841" yMax="1284">
      <contour>
        <pt x="841" y="100" on="1"/>
        <pt x="841" y="0" on="1"/>
        <pt x="125" y="0" on="1"/>
        <pt x="104" y="98" on="1"/>
        <pt x="673" y="1184" on="1"/>
        <pt x="135" y="1184" on="1"/>
        <pt x="135" y="1284" on="1"/>
        <pt x="804" y="1284" on="1"/>
        <pt x="820" y="1176" on="1"/>
        <pt x="252" y="100" on="1"/>
      </contour>
    </TTGlyph>
    <TTGlyph name="Zacute" xMin="104" yMin="0" xMax="841" yMax="1854">
      <component glyphName="acute" x="306" y="491" flags="0x1004"/>
      <component glyphName="Z" x="0" y="0" flags="0x1204"/>
    </TTGlyph>
    <TTGlyph name="Zcaron" xMin="104" yMin="0" xMax="841" yMax="1834">
      <component glyphName="caron" x="308" y="471" flags="0x1004"/>
      <component glyphName="Z" x="0" y="0" flags="0x1204"/>
    </TTGlyph>
    <TTGlyph name="Zdotaccent" xMin="104" yMin="0" xMax="841" yMax="1666">
      <component glyphName="period" x="248" y="1464" flags="0x1004"/>
      <component glyphName="Z" x="0" y="0" flags="0x1204"/>
    </TTGlyph>
    <TTGlyph name="a" xMin="109" yMin="-10" xMax="810" yMax="1000">
      <contour>
        <pt x="229" y="278" on="1"/>
        <pt x="229" y="92" on="0"/>
        <pt x="445" y="92" on="1"/>
        <pt x="509" y="92" on="0"/>
        <pt x="642" y="130" on="0"/>
        <pt x="685" y="158" on="1"/>
        <pt x="685" y="473" on="1"/>
        <pt x="629" y="473" on="1"/>
        <pt x="581" y="473" on="0"/>
        <pt x="501" y="468" on="0"/>
        <pt x="403" y="456" on="0"/>
        <pt x="329" y="428" on="0"/>
        <pt x="264" y="387" on="0"/>
        <pt x="229" y="321" on="0"/>
      </contour>
      <contour>
        <pt x="166" y="942" on="1"/>
        <pt x="343" y="1000" on="0"/>
        <pt x="474" y="1000" on="1"/>
        <pt x="548" y="1000" on="0"/>
        <pt x="666" y="959" on="0"/>
        <pt x="759" y="872" on="0"/>
        <pt x="810" y="721" on="0"/>
        <pt x="810" y="617" on="1"/>
        <pt x="810" y="0" on="1"/>
        <pt x="718" y="0" on="1"/>
        <pt x="698" y="66" on="1"/>
        <pt x="662" y="37" on="0"/>
        <pt x="502" y="-10" on="0"/>
        <pt x="425" y="-10" on="1"/>
        <pt x="281" y="-10" on="0"/>
        <pt x="109" y="140" on="0"/>
        <pt x="109" y="284" on="1"/>
        <pt x="109" y="330" on="0"/>
        <pt x="138" y="409" on="0"/>
        <pt x="209" y="483" on="0"/>
        <pt x="318" y="536" on="0"/>
        <pt x="488" y="567" on="0"/>
        <pt x="597" y="567" on="1"/>
        <pt x="685" y="567" on="1"/>
        <pt x="685" y="599" on="1"/>
        <pt x="684" y="763" on="0"/>
        <pt x="571" y="895" on="0"/>
        <pt x="468" y="895" on="1"/>
        <pt x="453" y="895" on="0"/>
        <pt x="418" y="892" on="0"/>
        <pt x="392" y="889" on="0"/>
        <pt x="347" y="880" on="0"/>
        <pt x="326" y="877" on="0"/>
        <pt x="272" y="864" on="0"/>
        <pt x="258" y="860" on="0"/>
        <pt x="195" y="844" on="0"/>
        <pt x="191" y="843" on="1"/>
      </contour>
    </TTGlyph>
    <TTGlyph name="aacute" xMin="109" yMin="-10" xMax="810" yMax="1553">
      <component glyphName="acute" x="295" y="190" flags="0x1004"/>
      <component glyphName="a" x="0" y="0" flags="0x1204"/>
    </TTGlyph>
    <TTGlyph name="abreve" xMin="109" yMin="-10" xMax="810" yMax="1388">
      <component glyphName="breve" x="26" y="132" flags="0x1004"/>
      <component glyphName="a" x="0" y="0" flags="0x1204"/>
    </TTGlyph>
    <TTGlyph name="acircumflex" xMin="109" yMin="-10" xMax="810" yMax="1504">
      <component glyphName="circumflex" x="26" y="141" flags="0x1004"/>
      <component glyphName="a" x="0" y="0" flags="0x1204"/>
    </TTGlyph>
    <TTGlyph name="acute" xMin="113" yMin="973" xMax="464" yMax="1363">
      <contour>
        <pt x="113" y="1022" on="1"/>
        <pt x="358" y="1363" on="1"/>
        <pt x="464" y="1283" on="1"/>
        <pt x="367" y="1174" on="1"/>
        <pt x="346" y="1148" on="0"/>
        <pt x="246" y="1048" on="0"/>
        <pt x="206" y="1010" on="1"/>
        <pt x="166" y="973" on="1"/>
      </contour>
    </TTGlyph>
    <TTGlyph name="adieresis" xMin="109" yMin="-10" xMax="810" yMax="1289">
      <component glyphName="dieresis" x="236" y="163" flags="0x1004"/>
      <component glyphName="a" x="0" y="0" flags="0x1204"/>
    </TTGlyph>
    <TTGlyph name="ae" xMin="109" yMin="-10" xMax="1429" yMax="1000">
      <contour>
        <pt x="813" y="559" on="1"/>
        <pt x="1126" y="559" on="1"/>
        <pt x="1222" y="559" on="0"/>
        <pt x="1321" y="644" on="0"/>
        <pt x="1321" y="707" on="1"/>
        <pt x="1321" y="780" on="0"/>
        <pt x="1198" y="896" on="0"/>
        <pt x="1099" y="896" on="1"/>
        <pt x="966" y="896" on="0"/>
        <pt x="825" y="720" on="0"/>
      </contour>
      <contour>
        <pt x="229" y="278" on="1"/>
        <pt x="229" y="92" on="0"/>
        <pt x="445" y="92" on="1"/>
        <pt x="530" y="92" on="0"/>
        <pt x="657" y="143" on="0"/>
        <pt x="732" y="216" on="1"/>
        <pt x="688" y="319" on="0"/>
        <pt x="685" y="472" on="1"/>
        <pt x="685" y="473" on="1"/>
        <pt x="629" y="473" on="1"/>
        <pt x="581" y="473" on="0"/>
        <pt x="501" y="468" on="0"/>
        <pt x="403" y="456" on="0"/>
        <pt x="329" y="428" on="0"/>
        <pt x="264" y="387" on="0"/>
        <pt x="229" y="321" on="0"/>
      </contour>
      <contour>
        <pt x="166" y="942" on="1"/>
        <pt x="343" y="1000" on="0"/>
        <pt x="474" y="1000" on="1"/>
        <pt x="540" y="1000" on="0"/>
        <pt x="653" y="961" on="0"/>
        <pt x="745" y="863" on="0"/>
        <pt x="762" y="789" on="1"/>
        <pt x="855" y="1000" on="0"/>
        <pt x="1087" y="1000" on="1"/>
        <pt x="1232" y="1000" on="0"/>
        <pt x="1429" y="816" on="0"/>
        <pt x="1429" y="707" on="1"/>
        <pt x="1429" y="604" on="0"/>
        <pt x="1279" y="469" on="0"/>
        <pt x="1128" y="469" on="1"/>
        <pt x="813" y="469" on="1"/>
        <pt x="814" y="380" on="0"/>
        <pt x="848" y="245" on="0"/>
        <pt x="900" y="164" on="0"/>
        <pt x="977" y="114" on="0"/>
        <pt x="1055" y="96" on="0"/>
        <pt x="1102" y="96" on="1"/>
        <pt x="1256" y="96" on="0"/>
        <pt x="1382" y="176" on="1"/>
        <pt x="1421" y="75" on="1"/>
        <pt x="1353" y="33" on="0"/>
        <pt x="1185" y="-10" on="0"/>
        <pt x="1109" y="-10" on="1"/>
        <pt x="874" y="-10" on="0"/>
        <pt x="768" y="149" on="1"/>
        <pt x="717" y="74" on="0"/>
        <pt x="562" y="-10" on="0"/>
        <pt x="425" y="-10" on="1"/>
        <pt x="281" y="-10" on="0"/>
        <pt x="109" y="140" on="0"/>
        <pt x="109" y="284" on="1"/>
        <pt x="109" y="330" on="0"/>
        <pt x="138" y="409" on="0"/>
        <pt x="209" y="483" on="0"/>
        <pt x="318" y="536" on="0"/>
        <pt x="488" y="567" on="0"/>
        <pt x="597" y="567" on="1"/>
        <pt x="685" y="567" on="1"/>
        <pt x="685" y="599" on="1"/>
        <pt x="684" y="763" on="0"/>
        <pt x="571" y="895" on="0"/>
        <pt x="468" y="895" on="1"/>
        <pt x="453" y="895" on="0"/>
        <pt x="418" y="892" on="0"/>
        <pt x="392" y="889" on="0"/>
        <pt x="347" y="880" on="0"/>
        <pt x="326" y="877" on="0"/>
        <pt x="272" y="864" on="0"/>
        <pt x="258" y="860" on="0"/>
        <pt x="195" y="844" on="0"/>
        <pt x="191" y="843" on="1"/>
      </contour>
    </TTGlyph>
    <TTGlyph name="agrave" xMin="109" yMin="-10" xMax="810" yMax="1553">
      <component glyphName="grave" x="95" y="190" flags="0x1004"/>
      <component glyphName="a" x="0" y="0" flags="0x1204"/>
    </TTGlyph>
    <TTGlyph name="amacron" xMin="109" yMin="-10" xMax="810" yMax="1269">
      <component glyphName="macron" x="157" y="85" flags="0x1004"/>
      <component glyphName="a" x="0" y="0" flags="0x1204"/>
    </TTGlyph>
    <TTGlyph name="ampersand" xMin="124" yMin="-19" xMax="1024" yMax="1301">
      <contour>
        <pt x="1024" y="489" on="1"/>
        <pt x="985" y="313" on="0"/>
        <pt x="898" y="191" on="1"/>
        <pt x="1002" y="54" on="1"/>
        <pt x="908" y="-19" on="1"/>
        <pt x="819" y="100" on="1"/>
        <pt x="697" y="-10" on="0"/>
        <pt x="505" y="-10" on="1"/>
        <pt x="321" y="-10" on="0"/>
        <pt x="124" y="145" on="0"/>
        <pt x="124" y="291" on="1"/>
        <pt x="124" y="356" on="0"/>
        <pt x="164" y="471" on="0"/>
        <pt x="245" y="572" on="0"/>
        <pt x="320" y="642" on="0"/>
        <pt x="378" y="689" on="1"/>
        <pt x="312" y="778" on="1"/>
        <pt x="209" y="924" on="0"/>
        <pt x="209" y="1041" on="1"/>
        <pt x="209" y="1106" on="0"/>
        <pt x="257" y="1209" on="0"/>
        <pt x="337" y="1270" on="0"/>
        <pt x="435" y="1301" on="0"/>
        <pt x="489" y="1301" on="1"/>
        <pt x="613" y="1301" on="0"/>
        <pt x="768" y="1168" on="0"/>
        <pt x="768" y="1038" on="1"/>
        <pt x="768" y="934" on="0"/>
        <pt x="645" y="759" on="0"/>
        <pt x="537" y="667" on="1"/>
        <pt x="824" y="288" on="1"/>
        <pt x="878" y="383" on="0"/>
        <pt x="915" y="522" on="1"/>
      </contour>
      <contour>
        <pt x="465" y="753" on="1"/>
        <pt x="547" y="822" on="0"/>
        <pt x="640" y="956" on="0"/>
        <pt x="640" y="1033" on="1"/>
        <pt x="640" y="1196" on="0"/>
        <pt x="492" y="1196" on="1"/>
        <pt x="419" y="1196" on="0"/>
        <pt x="337" y="1118" on="0"/>
        <pt x="337" y="1044" on="1"/>
        <pt x="337" y="976" on="0"/>
        <pt x="387" y="861" on="0"/>
        <pt x="436" y="792" on="1"/>
      </contour>
      <contour>
        <pt x="449" y="606" on="1"/>
        <pt x="388" y="556" on="0"/>
        <pt x="310" y="474" on="0"/>
        <pt x="252" y="358" on="0"/>
        <pt x="252" y="297" on="1"/>
        <pt x="252" y="96" on="0"/>
        <pt x="519" y="96" on="1"/>
        <pt x="656" y="96" on="0"/>
        <pt x="751" y="191" on="1"/>
      </contour>
    </TTGlyph>
    <TTGlyph name="aogonek" xMin="109" yMin="-340" xMax="854" yMax="1000">
      <component glyphName="ogonek" x="206" y="117" flags="0x1004"/>
      <component glyphName="a" x="0" y="0" flags="0x1204"/>
    </TTGlyph>
    <TTGlyph name="approxequal" xMin="123" yMin="202" xMax="1020" yMax="848">
      <contour>
        <pt x="940" y="284" on="1"/>
        <pt x="872" y="204" on="0"/>
        <pt x="771" y="202" on="1"/>
        <pt x="711" y="202" on="0"/>
        <pt x="663" y="226" on="1"/>
        <pt x="621" y="247" on="1"/>
        <pt x="605" y="255" on="0"/>
        <pt x="575" y="275" on="1"/>
        <pt x="537" y="300" on="1"/>
        <pt x="490" y="327" on="0"/>
        <pt x="452" y="347" on="0"/>
        <pt x="396" y="368" on="0"/>
        <pt x="375" y="368" on="1"/>
        <pt x="329" y="368" on="0"/>
        <pt x="241" y="294" on="0"/>
        <pt x="189" y="225" on="1"/>
        <pt x="123" y="289" on="1"/>
        <pt x="246" y="467" on="0"/>
        <pt x="377" y="467" on="1"/>
        <pt x="453" y="467" on="0"/>
        <pt x="599" y="376" on="1"/>
        <pt x="656" y="340" on="1"/>
        <pt x="677" y="327" on="0"/>
        <pt x="751" y="302" on="0"/>
        <pt x="778" y="302" on="1"/>
        <pt x="854" y="302" on="0"/>
        <pt x="956" y="441" on="1"/>
        <pt x="1020" y="380" on="1"/>
        <pt x="1017" y="379" on="1"/>
        <pt x="977" y="327" on="1"/>
      </contour>
      <contour>
        <pt x="943" y="660" on="1"/>
        <pt x="874" y="580" on="0"/>
        <pt x="773" y="578" on="1"/>
        <pt x="741" y="578" on="0"/>
        <pt x="654" y="606" on="0"/>
        <pt x="630" y="620" on="1"/>
        <pt x="564" y="662" on="1"/>
        <pt x="503" y="696" on="1"/>
        <pt x="421" y="746" on="0"/>
        <pt x="333" y="746" on="0"/>
        <pt x="247" y="675" on="0"/>
        <pt x="192" y="603" on="1"/>
        <pt x="125" y="667" on="1"/>
        <pt x="256" y="848" on="0"/>
        <pt x="380" y="848" on="1"/>
        <pt x="418" y="848" on="0"/>
        <pt x="499" y="813" on="0"/>
        <pt x="609" y="752" on="1"/>
        <pt x="733" y="683" on="0"/>
        <pt x="777" y="683" on="1"/>
        <pt x="857" y="683" on="0"/>
        <pt x="956" y="821" on="1"/>
        <pt x="1020" y="758" on="1"/>
        <pt x="1020" y="755" on="1"/>
        <pt x="980" y="703" on="1"/>
      </contour>
    </TTGlyph>
    <TTGlyph name="aring" xMin="109" yMin="-10" xMax="810" yMax="1608">
      <component glyphName="ring" x="110" y="258" flags="0x1004"/>
      <component glyphName="a" x="0" y="0" flags="0x1204"/>
    </TTGlyph>
    <TTGlyph name="asciicircum" xMin="128" yMin="775" xMax="768" yMax="1308">
      <contour>
        <pt x="448" y="1211" on="1"/>
        <pt x="247" y="775" on="1"/>
        <pt x="128" y="775" on="1"/>
        <pt x="380" y="1308" on="1"/>
        <pt x="517" y="1308" on="1"/>
        <pt x="768" y="776" on="1"/>
        <pt x="654" y="776" on="1"/>
      </contour>
    </TTGlyph>
    <TTGlyph name="asciitilde" xMin="105" yMin="437" xMax="930" yMax="717">
      <contour>
        <pt x="108" y="530" on="1"/>
        <pt x="167" y="621" on="0"/>
        <pt x="272" y="717" on="0"/>
        <pt x="334" y="717" on="1"/>
        <pt x="372" y="717" on="0"/>
        <pt x="451" y="682" on="0"/>
        <pt x="555" y="622" on="1"/>
        <pt x="674" y="553" on="0"/>
        <pt x="707" y="553" on="1"/>
        <pt x="741" y="553" on="0"/>
        <pt x="808" y="614" on="0"/>
        <pt x="854" y="679" on="1"/>
        <pt x="930" y="620" on="1"/>
        <pt x="905" y="579" on="0"/>
        <pt x="871" y="531" on="0"/>
        <pt x="813" y="468" on="0"/>
        <pt x="743" y="437" on="0"/>
        <pt x="703" y="437" on="1"/>
        <pt x="661" y="437" on="0"/>
        <pt x="578" y="474" on="0"/>
        <pt x="483" y="531" on="1"/>
        <pt x="376" y="599" on="0"/>
        <pt x="300" y="599" on="0"/>
        <pt x="231" y="539" on="0"/>
        <pt x="183" y="469" on="1"/>
        <pt x="105" y="530" on="1"/>
      </contour>
    </TTGlyph>
    <TTGlyph name="asterisk" xMin="108" yMin="753" xMax="812" yMax="1425">
      <contour>
        <pt x="786" y="1223" on="1"/>
        <pt x="812" y="1138" on="1"/>
        <pt x="534" y="1043" on="1"/>
        <pt x="708" y="807" on="1"/>
        <pt x="635" y="753" on="1"/>
        <pt x="460" y="989" on="1"/>
        <pt x="286" y="753" on="1"/>
        <pt x="213" y="807" on="1"/>
        <pt x="386" y="1043" on="1"/>
        <pt x="108" y="1137" on="1"/>
        <pt x="134" y="1223" on="1"/>
        <pt x="415" y="1130" on="1"/>
        <pt x="415" y="1425" on="1"/>
        <pt x="506" y="1425" on="1"/>
        <pt x="506" y="1130" on="1"/>
      </contour>
    </TTGlyph>
    <TTGlyph name="at" xMin="140" yMin="-63" xMax="1372" yMax="1301">
      <contour>
        <pt x="1100" y="256" on="1"/>
        <pt x="988" y="256" on="0"/>
        <pt x="928" y="375" on="1"/>
        <pt x="895" y="317" on="0"/>
        <pt x="787" y="242" on="0"/>
        <pt x="713" y="242" on="1"/>
        <pt x="676" y="242" on="0"/>
        <pt x="604" y="266" on="0"/>
        <pt x="536" y="322" on="0"/>
        <pt x="485" y="403" on="0"/>
        <pt x="454" y="524" on="0"/>
        <pt x="454" y="598" on="1"/>
        <pt x="454" y="767" on="0"/>
        <pt x="613" y="987" on="0"/>
        <pt x="753" y="987" on="1"/>
        <pt x="780" y="987" on="0"/>
        <pt x="862" y="977" on="0"/>
        <pt x="988" y="936" on="0"/>
        <pt x="1024" y="903" on="1"/>
        <pt x="1024" y="406" on="1"/>
        <pt x="1024" y="362" on="0"/>
        <pt x="1102" y="362" on="1"/>
        <pt x="1150" y="362" on="0"/>
        <pt x="1227" y="468" on="0"/>
        <pt x="1264" y="614" on="0"/>
        <pt x="1264" y="760" on="0"/>
        <pt x="1230" y="900" on="0"/>
        <pt x="1152" y="1034" on="0"/>
        <pt x="1039" y="1134" on="0"/>
        <pt x="867" y="1195" on="0"/>
        <pt x="763" y="1195" on="1"/>
        <pt x="664" y="1195" on="0"/>
        <pt x="480" y="1107" on="0"/>
        <pt x="343" y="954" on="0"/>
        <pt x="261" y="733" on="0"/>
        <pt x="261" y="607" on="1"/>
        <pt x="261" y="358" on="0"/>
        <pt x="556" y="36" on="0"/>
        <pt x="779" y="36" on="1"/>
        <pt x="898" y="36" on="0"/>
        <pt x="1058" y="95" on="1"/>
        <pt x="1084" y="4" on="1"/>
        <pt x="919" y="-63" on="0"/>
        <pt x="773" y="-63" on="1"/>
        <pt x="650" y="-63" on="0"/>
        <pt x="421" y="33" on="0"/>
        <pt x="245" y="202" on="0"/>
        <pt x="140" y="454" on="0"/>
        <pt x="140" y="600" on="1"/>
        <pt x="140" y="756" on="0"/>
        <pt x="237" y="1021" on="0"/>
        <pt x="403" y="1200" on="0"/>
        <pt x="627" y="1301" on="0"/>
        <pt x="754" y="1301" on="1"/>
        <pt x="882" y="1301" on="0"/>
        <pt x="1093" y="1229" on="0"/>
        <pt x="1233" y="1109" on="0"/>
        <pt x="1330" y="950" on="0"/>
        <pt x="1372" y="781" on="0"/>
        <pt x="1372" y="692" on="1"/>
        <pt x="1372" y="578" on="0"/>
        <pt x="1310" y="382" on="0"/>
        <pt x="1183" y="256" on="0"/>
      </contour>
      <contour>
        <pt x="736" y="326" on="1"/>
        <pt x="769" y="326" on="0"/>
        <pt x="857" y="368" on="0"/>
        <pt x="891" y="405" on="1"/>
        <pt x="923" y="439" on="0"/>
        <pt x="923" y="648" on="1"/>
        <pt x="923" y="864" on="1"/>
        <pt x="857" y="897" on="0"/>
        <pt x="761" y="897" on="1"/>
        <pt x="697" y="897" on="0"/>
        <pt x="604" y="809" on="0"/>
        <pt x="562" y="678" on="0"/>
        <pt x="562" y="602" on="1"/>
        <pt x="562" y="490" on="0"/>
        <pt x="654" y="326" on="0"/>
      </contour>
    </TTGlyph>
    <TTGlyph name="atilde" xMin="109" yMin="-10" xMax="810" yMax="1375">
      <component glyphName="tilde" x="21" y="691" flags="0x1004"/>
      <component glyphName="a" x="0" y="0" flags="0x1204"/>
    </TTGlyph>
    <TTGlyph name="b" xMin="140" yMin="-10" xMax="876" yMax="1358">
      <contour>
        <pt x="268" y="1358" on="1"/>
        <pt x="268" y="923" on="1"/>
        <pt x="393" y="1000" on="0"/>
        <pt x="540" y="1000" on="1"/>
        <pt x="697" y="1000" on="0"/>
        <pt x="876" y="752" on="0"/>
        <pt x="876" y="493" on="1"/>
        <pt x="876" y="225" on="0"/>
        <pt x="694" y="-10" on="0"/>
        <pt x="510" y="-10" on="1"/>
        <pt x="366" y="-10" on="0"/>
        <pt x="254" y="50" on="1"/>
        <pt x="244" y="0" on="1"/>
        <pt x="140" y="0" on="1"/>
        <pt x="140" y="1358" on="1"/>
      </contour>
      <contour>
        <pt x="268" y="137" on="1"/>
        <pt x="356" y="96" on="0"/>
        <pt x="463" y="96" on="1"/>
        <pt x="492" y="96" on="1"/>
        <pt x="628" y="96" on="0"/>
        <pt x="748" y="279" on="0"/>
        <pt x="748" y="491" on="1"/>
        <pt x="748" y="699" on="0"/>
        <pt x="641" y="895" on="0"/>
        <pt x="524" y="895" on="1"/>
        <pt x="417" y="895" on="0"/>
        <pt x="268" y="809" on="1"/>
      </contour>
    </TTGlyph>
    <TTGlyph name="backslash" xMin="83" yMin="-96" xMax="784" yMax="1473">
      <contour>
        <pt x="159" y="1473" on="1"/>
        <pt x="784" y="-55" on="1"/>
        <pt x="709" y="-96" on="1"/>
        <pt x="83" y="1432" on="1"/>
      </contour>
    </TTGlyph>
    <TTGlyph name="bar" xMin="162" yMin="-65" xMax="269" yMax="1331">
      <contour>
        <pt x="162" y="-65" on="1"/>
        <pt x="162" y="1331" on="1"/>
        <pt x="269" y="1331" on="1"/>
        <pt x="269" y="-65" on="1"/>
      </contour>
    </TTGlyph>
    <TTGlyph name="braceleft" xMin="64" yMin="-156" xMax="552" yMax="1484">
      <contour>
        <pt x="64" y="712" on="1"/>
        <pt x="210" y="801" on="1"/>
        <pt x="216" y="879" on="0"/>
        <pt x="216" y="985" on="1"/>
        <pt x="216" y="1017" on="1"/>
        <pt x="215" y="1146" on="1"/>
        <pt x="215" y="1206" on="0"/>
        <pt x="220" y="1291" on="0"/>
        <pt x="235" y="1364" on="0"/>
        <pt x="254" y="1411" on="0"/>
        <pt x="294" y="1448" on="0"/>
        <pt x="337" y="1468" on="0"/>
        <pt x="410" y="1480" on="0"/>
        <pt x="487" y="1484" on="0"/>
        <pt x="544" y="1484" on="1"/>
        <pt x="552" y="1392" on="1"/>
        <pt x="527" y="1392" on="1"/>
        <pt x="474" y="1392" on="0"/>
        <pt x="424" y="1390" on="0"/>
        <pt x="366" y="1372" on="0"/>
        <pt x="345" y="1344" on="0"/>
        <pt x="324" y="1282" on="0"/>
        <pt x="320" y="1201" on="0"/>
        <pt x="320" y="1135" on="1"/>
        <pt x="320" y="749" on="1"/>
        <pt x="175" y="664" on="1"/>
        <pt x="320" y="579" on="1"/>
        <pt x="320" y="193" on="1"/>
        <pt x="320" y="127" on="0"/>
        <pt x="324" y="46" on="0"/>
        <pt x="345" y="-16" on="0"/>
        <pt x="366" y="-44" on="0"/>
        <pt x="424" y="-62" on="0"/>
        <pt x="474" y="-64" on="0"/>
        <pt x="527" y="-64" on="1"/>
        <pt x="552" y="-64" on="1"/>
        <pt x="544" y="-156" on="1"/>
        <pt x="487" y="-156" on="0"/>
        <pt x="410" y="-152" on="0"/>
        <pt x="337" y="-140" on="0"/>
        <pt x="294" y="-120" on="0"/>
        <pt x="254" y="-83" on="0"/>
        <pt x="235" y="-36" on="0"/>
        <pt x="220" y="37" on="0"/>
        <pt x="215" y="122" on="0"/>
        <pt x="215" y="182" on="1"/>
        <pt x="216" y="311" on="1"/>
        <pt x="216" y="343" on="1"/>
        <pt x="216" y="449" on="0"/>
        <pt x="210" y="527" on="1"/>
        <pt x="64" y="616" on="1"/>
      </contour>
    </TTGlyph>
    <TTGlyph name="braceright" xMin="70" yMin="-156" xMax="558" yMax="1484">
      <contour>
        <pt x="558" y="616" on="1"/>
        <pt x="412" y="527" on="1"/>
        <pt x="406" y="449" on="0"/>
        <pt x="406" y="343" on="1"/>
        <pt x="406" y="311" on="1"/>
        <pt x="407" y="182" on="1"/>
        <pt x="407" y="122" on="0"/>
        <pt x="402" y="37" on="0"/>
        <pt x="387" y="-36" on="0"/>
        <pt x="368" y="-83" on="0"/>
        <pt x="328" y="-120" on="0"/>
        <pt x="285" y="-140" on="0"/>
        <pt x="212" y="-152" on="0"/>
        <pt x="135" y="-156" on="0"/>
        <pt x="78" y="-156" on="1"/>
        <pt x="70" y="-64" on="1"/>
        <pt x="95" y="-64" on="1"/>
        <pt x="148" y="-64" on="0"/>
        <pt x="198" y="-62" on="0"/>
        <pt x="256" y="-44" on="0"/>
        <pt x="277" y="-16" on="0"/>
        <pt x="298" y="46" on="0"/>
        <pt x="302" y="127" on="0"/>
        <pt x="302" y="193" on="1"/>
        <pt x="302" y="579" on="1"/>
        <pt x="447" y="664" on="1"/>
        <pt x="302" y="749" on="1"/>
        <pt x="302" y="1135" on="1"/>
        <pt x="302" y="1201" on="0"/>
        <pt x="298" y="1282" on="0"/>
        <pt x="277" y="1344" on="0"/>
        <pt x="256" y="1372" on="0"/>
        <pt x="198" y="1390" on="0"/>
        <pt x="148" y="1392" on="0"/>
        <pt x="95" y="1392" on="1"/>
        <pt x="70" y="1392" on="1"/>
        <pt x="78" y="1484" on="1"/>
        <pt x="135" y="1484" on="0"/>
        <pt x="212" y="1480" on="0"/>
        <pt x="285" y="1468" on="0"/>
        <pt x="328" y="1448" on="0"/>
        <pt x="368" y="1411" on="0"/>
        <pt x="387" y="1364" on="0"/>
        <pt x="402" y="1291" on="0"/>
        <pt x="407" y="1206" on="0"/>
        <pt x="407" y="1146" on="1"/>
        <pt x="406" y="1017" on="1"/>
        <pt x="406" y="985" on="1"/>
        <pt x="406" y="879" on="0"/>
        <pt x="412" y="801" on="1"/>
        <pt x="558" y="712" on="1"/>
      </contour>
    </TTGlyph>
    <TTGlyph name="bracketleft" xMin="160" yMin="-103" xMax="544" yMax="1358">
      <contour>
        <pt x="288" y="0" on="1"/>
        <pt x="544" y="0" on="1"/>
        <pt x="544" y="-103" on="1"/>
        <pt x="160" y="-103" on="1"/>
        <pt x="160" y="1358" on="1"/>
        <pt x="544" y="1358" on="1"/>
        <pt x="544" y="1254" on="1"/>
        <pt x="288" y="1254" on="1"/>
      </contour>
    </TTGlyph>
    <TTGlyph name="bracketright" xMin="160" yMin="-103" xMax="544" yMax="1358">
      <contour>
        <pt x="416" y="1255" on="1"/>
        <pt x="160" y="1255" on="1"/>
        <pt x="160" y="1358" on="1"/>
        <pt x="544" y="1358" on="1"/>
        <pt x="544" y="-103" on="1"/>
        <pt x="160" y="-103" on="1"/>
        <pt x="160" y="1" on="1"/>
        <pt x="416" y="1" on="1"/>
      </contour>
    </TTGlyph>
    <TTGlyph name="breve" xMin="166" yMin="1031" xMax="703" yMax="1256">
      <contour>
        <pt x="626" y="1256" on="1"/>
        <pt x="703" y="1180" on="1"/>
        <pt x="570" y="1031" on="0"/>
        <pt x="434" y="1031" on="1"/>
        <pt x="299" y="1031" on="0"/>
        <pt x="166" y="1180" on="1"/>
        <pt x="243" y="1256" on="1"/>
        <pt x="326" y="1141" on="0"/>
        <pt x="431" y="1141" on="1"/>
        <pt x="537" y="1141" on="0"/>
      </contour>
    </TTGlyph>
    <TTGlyph name="brokenbar" xMin="162" yMin="-65" xMax="269" yMax="1331">
      <contour>
        <pt x="162" y="-65" on="1"/>
        <pt x="162" y="527" on="1"/>
        <pt x="269" y="527" on="1"/>
        <pt x="269" y="-65" on="1"/>
      </contour>
      <contour>
        <pt x="162" y="776" on="1"/>
        <pt x="162" y="1331" on="1"/>
        <pt x="269" y="1331" on="1"/>
        <pt x="269" y="776" on="1"/>
      </contour>
    </TTGlyph>
    <TTGlyph name="bullet" xMin="145" yMin="374" xMax="561" yMax="790">
      <contour>
        <pt x="145" y="496" on="0"/>
        <pt x="145" y="668" on="0"/>
        <pt x="267" y="790" on="0"/>
        <pt x="439" y="790" on="0"/>
        <pt x="561" y="668" on="0"/>
        <pt x="561" y="496" on="0"/>
        <pt x="439" y="374" on="0"/>
        <pt x="267" y="374" on="0"/>
      </contour>
    </TTGlyph>
    <TTGlyph name="c" xMin="108" yMin="-10" xMax="798" yMax="1000">
      <contour>
        <pt x="750" y="170" on="1"/>
        <pt x="798" y="79" on="1"/>
        <pt x="676" y="-10" on="0"/>
        <pt x="507" y="-10" on="1"/>
        <pt x="332" y="-10" on="0"/>
        <pt x="108" y="252" on="0"/>
        <pt x="108" y="495" on="1"/>
        <pt x="108" y="1000" on="0"/>
        <pt x="496" y="1000" on="1"/>
        <pt x="632" y="1000" on="0"/>
        <pt x="759" y="940" on="1"/>
        <pt x="759" y="682" on="1"/>
        <pt x="657" y="672" on="1"/>
        <pt x="657" y="872" on="1"/>
        <pt x="591" y="898" on="0"/>
        <pt x="494" y="898" on="1"/>
        <pt x="420" y="898" on="0"/>
        <pt x="317" y="840" on="0"/>
        <pt x="260" y="728" on="0"/>
        <pt x="236" y="587" on="0"/>
        <pt x="236" y="493" on="1"/>
        <pt x="236" y="302" on="0"/>
        <pt x="391" y="94" on="0"/>
        <pt x="521" y="94" on="1"/>
        <pt x="638" y="94" on="0"/>
      </contour>
    </TTGlyph>
    <TTGlyph name="cacute" xMin="108" yMin="-10" xMax="798" yMax="1553">
      <component glyphName="acute" x="287" y="190" flags="0x1004"/>
      <component glyphName="c" x="0" y="0" flags="0x1204"/>
    </TTGlyph>
    <TTGlyph name="caron" xMin="-115" yMin="993" xMax="444" yMax="1363">
      <contour>
        <pt x="164" y="1106" on="1"/>
        <pt x="356" y="1363" on="1"/>
        <pt x="444" y="1303" on="1"/>
        <pt x="356" y="1184" on="0"/>
        <pt x="216" y="1022" on="1"/>
        <pt x="192" y="993" on="0"/>
        <pt x="164" y="993" on="1"/>
        <pt x="137" y="993" on="0"/>
        <pt x="113" y="1022" on="1"/>
        <pt x="-27" y="1184" on="0"/>
        <pt x="-115" y="1303" on="1"/>
        <pt x="-27" y="1363" on="1"/>
      </contour>
    </TTGlyph>
    <TTGlyph name="ccaron" xMin="108" yMin="-10" xMax="798" yMax="1533">
      <component glyphName="caron" x="288" y="170" flags="0x1004"/>
      <component glyphName="c" x="0" y="0" flags="0x1204"/>
    </TTGlyph>
    <TTGlyph name="ccedilla" xMin="108" yMin="-391" xMax="798" yMax="1000">
      <component glyphName="cedilla" x="67" y="70" flags="0x1004"/>
      <component glyphName="c" x="0" y="0" flags="0x1204"/>
    </TTGlyph>
    <TTGlyph name="ccircumflex" xMin="108" yMin="-10" xMax="798" yMax="1504">
      <component glyphName="circumflex" x="18" y="141" flags="0x1004"/>
      <component glyphName="c" x="0" y="0" flags="0x1204"/>
    </TTGlyph>
    <TTGlyph name="cdotaccent" xMin="108" yMin="-10" xMax="798" yMax="1365">
      <component glyphName="period" x="228" y="1163" flags="0x1004"/>
      <component glyphName="c" x="0" y="0" flags="0x1204"/>
    </TTGlyph>
    <TTGlyph name="cedilla" xMin="351" yMin="-461" xMax="667" yMax="-70">
      <contour>
        <pt x="481" y="-137" on="1"/>
        <pt x="568" y="-138" on="0"/>
        <pt x="667" y="-211" on="0"/>
        <pt x="667" y="-279" on="1"/>
        <pt x="667" y="-368" on="0"/>
        <pt x="564" y="-461" on="0"/>
        <pt x="483" y="-461" on="1"/>
        <pt x="417" y="-461" on="0"/>
        <pt x="351" y="-431" on="1"/>
        <pt x="366" y="-351" on="1"/>
        <pt x="419" y="-375" on="0"/>
        <pt x="463" y="-375" on="1"/>
        <pt x="505" y="-375" on="0"/>
        <pt x="555" y="-330" on="0"/>
        <pt x="555" y="-284" on="1"/>
        <pt x="555" y="-269" on="0"/>
        <pt x="550" y="-245" on="0"/>
        <pt x="536" y="-227" on="0"/>
        <pt x="524" y="-214" on="0"/>
        <pt x="499" y="-204" on="0"/>
        <pt x="483" y="-198" on="0"/>
        <pt x="449" y="-193" on="0"/>
        <pt x="433" y="-191" on="0"/>
        <pt x="393" y="-187" on="0"/>
        <pt x="386" y="-186" on="1"/>
        <pt x="387" y="-70" on="1"/>
        <pt x="491" y="-70" on="1"/>
      </contour>
    </TTGlyph>
    <TTGlyph name="cent" xMin="124" yMin="-147" xMax="751" yMax="1125">
      <contour>
        <pt x="445" y="-15" on="1"/>
        <pt x="284" y="4" on="0"/>
        <pt x="124" y="265" on="0"/>
        <pt x="124" y="486" on="1"/>
        <pt x="124" y="944" on="0"/>
        <pt x="441" y="982" on="1"/>
        <pt x="441" y="1125" on="1"/>
        <pt x="539" y="1125" on="1"/>
        <pt x="539" y="984" on="1"/>
        <pt x="641" y="974" on="0"/>
        <pt x="719" y="946" on="1"/>
        <pt x="696" y="844" on="1"/>
        <pt x="594" y="881" on="0"/>
        <pt x="492" y="881" on="1"/>
        <pt x="420" y="881" on="0"/>
        <pt x="316" y="820" on="0"/>
        <pt x="257" y="710" on="0"/>
        <pt x="229" y="572" on="0"/>
        <pt x="229" y="487" on="1"/>
        <pt x="229" y="296" on="0"/>
        <pt x="362" y="86" on="0"/>
        <pt x="492" y="86" on="1"/>
        <pt x="579" y="86" on="0"/>
        <pt x="723" y="143" on="1"/>
        <pt x="751" y="41" on="1"/>
        <pt x="644" y="-4" on="0"/>
        <pt x="543" y="-16" on="1"/>
        <pt x="543" y="-147" on="1"/>
        <pt x="445" y="-147" on="1"/>
      </contour>
    </TTGlyph>
    <TTGlyph name="circumflex" xMin="136" yMin="1022" xMax="733" yMax="1363">
      <contour>
        <pt x="435" y="1260" on="1"/>
        <pt x="222" y="1022" on="1"/>
        <pt x="136" y="1102" on="1"/>
        <pt x="291" y="1275" on="0"/>
        <pt x="382" y="1363" on="1"/>
        <pt x="487" y="1363" on="1"/>
        <pt x="578" y="1275" on="0"/>
        <pt x="733" y="1102" on="1"/>
        <pt x="647" y="1022" on="1"/>
      </contour>
    </TTGlyph>
    <TTGlyph name="colon" xMin="145" yMin="47" xMax="308" yMax="841">
      <contour>
        <pt x="308" y="841" on="1"/>
        <pt x="308" y="639" on="1"/>
        <pt x="145" y="639" on="1"/>
        <pt x="145" y="841" on="1"/>
      </contour>
      <contour>
        <pt x="308" y="243" on="1"/>
        <pt x="308" y="47" on="1"/>
        <pt x="145" y="47" on="1"/>
        <pt x="145" y="243" on="1"/>
      </contour>
    </TTGlyph>
    <TTGlyph name="comma" xMin="149" yMin="-274" xMax="341" yMax="210">
      <contour>
        <pt x="341" y="39" on="1"/>
        <pt x="341" y="-51" on="0"/>
        <pt x="273" y="-195" on="0"/>
        <pt x="205" y="-274" on="1"/>
        <pt x="158" y="-221" on="1"/>
        <pt x="239" y="-96" on="0"/>
        <pt x="244" y="0" on="1"/>
        <pt x="149" y="0" on="1"/>
        <pt x="149" y="210" on="1"/>
        <pt x="341" y="210" on="1"/>
      </contour>
    </TTGlyph>
    <TTGlyph name="copyright" xMin="140" yMin="-5" xMax="1442" yMax="1297">
      <contour>
        <pt x="237" y="799" on="0"/>
        <pt x="237" y="493" on="0"/>
        <pt x="385" y="235" on="0"/>
        <pt x="640" y="84" on="0"/>
        <pt x="790" y="84" on="1"/>
        <pt x="941" y="84" on="0"/>
        <pt x="1196" y="235" on="0"/>
        <pt x="1345" y="494" on="0"/>
        <pt x="1345" y="798" on="0"/>
        <pt x="1196" y="1057" on="0"/>
        <pt x="941" y="1208" on="0"/>
        <pt x="790" y="1208" on="1"/>
        <pt x="640" y="1208" on="0"/>
        <pt x="385" y="1057" on="0"/>
      </contour>
      <contour>
        <pt x="140" y="514" on="0"/>
        <pt x="140" y="778" on="0"/>
        <pt x="243" y="1019" on="0"/>
        <pt x="417" y="1194" on="0"/>
        <pt x="658" y="1297" on="0"/>
        <pt x="922" y="1297" on="0"/>
        <pt x="1164" y="1194" on="0"/>
        <pt x="1338" y="1019" on="0"/>
        <pt x="1442" y="778" on="0"/>
        <pt x="1442" y="514" on="0"/>
        <pt x="1338" y="273" on="0"/>
        <pt x="1164" y="98" on="0"/>
        <pt x="922" y="-5" on="0"/>
        <pt x="658" y="-5" on="0"/>
        <pt x="417" y="98" on="0"/>
        <pt x="243" y="273" on="0"/>
      </contour>
      <contour>
        <pt x="814" y="292" on="1"/>
        <pt x="920" y="292" on="0"/>
        <pt x="1021" y="346" on="1"/>
        <pt x="1054" y="273" on="1"/>
        <pt x="937" y="211" on="0"/>
        <pt x="807" y="211" on="1"/>
        <pt x="616" y="211" on="0"/>
        <pt x="399" y="453" on="0"/>
        <pt x="399" y="640" on="1"/>
        <pt x="399" y="727" on="0"/>
        <pt x="448" y="883" on="0"/>
        <pt x="542" y="1010" on="0"/>
        <pt x="699" y="1085" on="0"/>
        <pt x="798" y="1085" on="1"/>
        <pt x="915" y="1085" on="0"/>
        <pt x="1032" y="1023" on="1"/>
        <pt x="1032" y="825" on="1"/>
        <pt x="943" y="825" on="1"/>
        <pt x="943" y="978" on="1"/>
        <pt x="876" y="1004" on="0"/>
        <pt x="795" y="1004" on="1"/>
        <pt x="701" y="1004" on="0"/>
        <pt x="565" y="896" on="0"/>
        <pt x="504" y="734" on="0"/>
        <pt x="504" y="638" on="1"/>
        <pt x="504" y="482" on="0"/>
        <pt x="666" y="292" on="0"/>
      </contour>
    </TTGlyph>
    <TTGlyph name="currency" xMin="132" yMin="333" xMax="916" yMax="1109">
      <contour>
        <pt x="209" y="333" on="1"/>
        <pt x="132" y="412" on="1"/>
        <pt x="245" y="526" on="1"/>
        <pt x="183" y="605" on="0"/>
        <pt x="183" y="835" on="0"/>
        <pt x="245" y="914" on="1"/>
        <pt x="132" y="1030" on="1"/>
        <pt x="209" y="1109" on="1"/>
        <pt x="329" y="986" on="1"/>
        <pt x="412" y="1051" on="0"/>
        <pt x="524" y="1051" on="1"/>
        <pt x="634" y="1051" on="0"/>
        <pt x="719" y="986" on="1"/>
        <pt x="838" y="1109" on="1"/>
        <pt x="916" y="1030" on="1"/>
        <pt x="801" y="914" on="1"/>
        <pt x="864" y="835" on="0"/>
        <pt x="864" y="720" on="1"/>
        <pt x="864" y="606" on="0"/>
        <pt x="801" y="526" on="1"/>
        <pt x="916" y="412" on="1"/>
        <pt x="838" y="333" on="1"/>
        <pt x="719" y="454" on="1"/>
        <pt x="636" y="388" on="0"/>
        <pt x="524" y="388" on="1"/>
        <pt x="411" y="388" on="0"/>
        <pt x="329" y="454" on="1"/>
      </contour>
      <contour>
        <pt x="767" y="720" on="1"/>
        <pt x="767" y="836" on="0"/>
        <pt x="623" y="966" on="0"/>
        <pt x="425" y="966" on="0"/>
        <pt x="280" y="835" on="0"/>
        <pt x="280" y="603" on="0"/>
        <pt x="425" y="473" on="0"/>
        <pt x="623" y="473" on="0"/>
        <pt x="767" y="603" on="0"/>
      </contour>
    </TTGlyph>
    <TTGlyph name="d" xMin="108" yMin="-10" xMax="870" yMax="1358">
      <contour>
        <pt x="742" y="1358" on="1"/>
        <pt x="870" y="1358" on="1"/>
        <pt x="870" y="0" on="1"/>
        <pt x="766" y="0" on="1"/>
        <pt x="756" y="50" on="1"/>
        <pt x="644" y="-10" on="0"/>
        <pt x="514" y="-10" on="1"/>
        <pt x="422" y="-10" on="0"/>
        <pt x="278" y="45" on="0"/>
        <pt x="167" y="162" on="0"/>
        <pt x="108" y="359" on="0"/>
        <pt x="108" y="493" on="1"/>
        <pt x="108" y="598" on="0"/>
        <pt x="148" y="769" on="0"/>
        <pt x="217" y="885" on="0"/>
        <pt x="313" y="964" on="0"/>
        <pt x="423" y="1000" on="0"/>
        <pt x="484" y="1000" on="1"/>
        <pt x="552" y="1000" on="0"/>
        <pt x="670" y="968" on="0"/>
        <pt x="742" y="923" on="1"/>
      </contour>
      <contour>
        <pt x="742" y="137" on="1"/>
        <pt x="742" y="809" on="1"/>
        <pt x="660" y="856" on="0"/>
        <pt x="551" y="895" on="0"/>
        <pt x="500" y="895" on="1"/>
        <pt x="378" y="895" on="0"/>
        <pt x="236" y="692" on="0"/>
        <pt x="236" y="491" on="1"/>
        <pt x="236" y="96" on="0"/>
        <pt x="532" y="96" on="1"/>
        <pt x="560" y="96" on="1"/>
        <pt x="654" y="96" on="0"/>
      </contour>
    </TTGlyph>
    <TTGlyph name="dagger" xMin="142" yMin="0" xMax="870" yMax="1301">
      <contour>
        <pt x="560" y="0" on="1"/>
        <pt x="450" y="0" on="1"/>
        <pt x="450" y="888" on="1"/>
        <pt x="142" y="888" on="1"/>
        <pt x="142" y="985" on="1"/>
        <pt x="450" y="985" on="1"/>
        <pt x="450" y="1301" on="1"/>
        <pt x="560" y="1301" on="1"/>
        <pt x="560" y="985" on="1"/>
        <pt x="870" y="985" on="1"/>
        <pt x="870" y="888" on="1"/>
        <pt x="560" y="888" on="1"/>
      </contour>
    </TTGlyph>
    <TTGlyph name="daggerdbl" xMin="148" yMin="0" xMax="876" yMax="1301">
      <contour>
        <pt x="566" y="226" on="1"/>
        <pt x="566" y="0" on="1"/>
        <pt x="456" y="0" on="1"/>
        <pt x="456" y="226" on="1"/>
        <pt x="148" y="226" on="1"/>
        <pt x="148" y="322" on="1"/>
        <pt x="456" y="322" on="1"/>
        <pt x="456" y="980" on="1"/>
        <pt x="148" y="980" on="1"/>
        <pt x="148" y="1077" on="1"/>
        <pt x="456" y="1077" on="1"/>
        <pt x="456" y="1301" on="1"/>
        <pt x="566" y="1301" on="1"/>
        <pt x="566" y="1077" on="1"/>
        <pt x="876" y="1077" on="1"/>
        <pt x="876" y="980" on="1"/>
        <pt x="566" y="980" on="1"/>
        <pt x="566" y="322" on="1"/>
        <pt x="876" y="322" on="1"/>
        <pt x="876" y="226" on="1"/>
      </contour>
    </TTGlyph>
    <TTGlyph name="dcaron" xMin="108" yMin="-10" xMax="1335" yMax="1358">
      <component glyphName="comma" x="994" y="1148" flags="0x1004"/>
      <component glyphName="d" x="0" y="0" flags="0x1004"/>
    </TTGlyph>
    <TTGlyph name="dcroat" xMin="108" yMin="-10" xMax="1010" yMax="1358">
      <contour>
        <pt x="742" y="137" on="1"/>
        <pt x="742" y="809" on="1"/>
        <pt x="660" y="856" on="0"/>
        <pt x="551" y="895" on="0"/>
        <pt x="500" y="895" on="1"/>
        <pt x="378" y="895" on="0"/>
        <pt x="236" y="692" on="0"/>
        <pt x="236" y="491" on="1"/>
        <pt x="236" y="96" on="0"/>
        <pt x="532" y="96" on="1"/>
        <pt x="560" y="96" on="1"/>
        <pt x="654" y="96" on="0"/>
      </contour>
      <contour>
        <pt x="742" y="1358" on="1"/>
        <pt x="870" y="1358" on="1"/>
        <pt x="870" y="1195" on="1"/>
        <pt x="1010" y="1195" on="1"/>
        <pt x="1010" y="1107" on="1"/>
        <pt x="870" y="1107" on="1"/>
        <pt x="870" y="0" on="1"/>
        <pt x="766" y="0" on="1"/>
        <pt x="756" y="50" on="1"/>
        <pt x="644" y="-10" on="0"/>
        <pt x="514" y="-10" on="1"/>
        <pt x="422" y="-10" on="0"/>
        <pt x="278" y="45" on="0"/>
        <pt x="167" y="162" on="0"/>
        <pt x="108" y="359" on="0"/>
        <pt x="108" y="493" on="1"/>
        <pt x="108" y="598" on="0"/>
        <pt x="148" y="769" on="0"/>
        <pt x="217" y="885" on="0"/>
        <pt x="313" y="964" on="0"/>
        <pt x="423" y="1000" on="0"/>
        <pt x="484" y="1000" on="1"/>
        <pt x="552" y="1000" on="0"/>
        <pt x="670" y="968" on="0"/>
        <pt x="742" y="923" on="1"/>
        <pt x="742" y="1107" on="1"/>
        <pt x="530" y="1107" on="1"/>
        <pt x="530" y="1195" on="1"/>
        <pt x="742" y="1195" on="1"/>
      </contour>
    </TTGlyph>
    <TTGlyph name="degree" xMin="112" yMin="917" xMax="586" yMax="1421">
      <contour>
        <pt x="486" y="1168" on="1"/>
        <pt x="486" y="1241" on="0"/>
        <pt x="412" y="1328" on="0"/>
        <pt x="347" y="1328" on="1"/>
        <pt x="284" y="1328" on="0"/>
        <pt x="213" y="1243" on="0"/>
        <pt x="213" y="1097" on="0"/>
        <pt x="284" y="1011" on="0"/>
        <pt x="410" y="1011" on="0"/>
        <pt x="486" y="1098" on="0"/>
      </contour>
      <contour>
        <pt x="350" y="917" on="1"/>
        <pt x="244" y="917" on="0"/>
        <pt x="112" y="1056" on="0"/>
        <pt x="112" y="1169" on="1"/>
        <pt x="112" y="1284" on="0"/>
        <pt x="247" y="1421" on="0"/>
        <pt x="352" y="1421" on="1"/>
        <pt x="456" y="1421" on="0"/>
        <pt x="586" y="1281" on="0"/>
        <pt x="586" y="1169" on="1"/>
        <pt x="586" y="1056" on="0"/>
        <pt x="454" y="918" on="0"/>
        <pt x="351" y="918" on="1"/>
      </contour>
    </TTGlyph>
    <TTGlyph name="dieresis" xMin="0" yMin="1000" xMax="451" yMax="1126">
      <contour>
        <pt x="139" y="1126" on="1"/>
        <pt x="139" y="1000" on="1"/>
        <pt x="0" y="1000" on="1"/>
        <pt x="0" y="1126" on="1"/>
      </contour>
      <contour>
        <pt x="451" y="1126" on="1"/>
        <pt x="451" y="1000" on="1"/>
        <pt x="314" y="1000" on="1"/>
        <pt x="314" y="1126" on="1"/>
      </contour>
    </TTGlyph>
    <TTGlyph name="divide" xMin="110" yMin="219" xMax="866" yMax="968">
      <contour>
        <pt x="110" y="548" on="1"/>
        <pt x="110" y="646" on="1"/>
        <pt x="866" y="646" on="1"/>
        <pt x="866" y="548" on="1"/>
      </contour>
      <contour>
        <pt x="453" y="771" on="1"/>
        <pt x="401" y="796" on="0"/>
        <pt x="401" y="881" on="1"/>
        <pt x="401" y="955" on="0"/>
        <pt x="453" y="968" on="1"/>
        <pt x="514" y="968" on="1"/>
        <pt x="565" y="942" on="0"/>
        <pt x="565" y="857" on="1"/>
        <pt x="565" y="783" on="0"/>
        <pt x="514" y="771" on="1"/>
      </contour>
      <contour>
        <pt x="401" y="282" on="1"/>
        <pt x="401" y="380" on="0"/>
        <pt x="453" y="414" on="1"/>
        <pt x="533" y="414" on="0"/>
        <pt x="565" y="352" on="1"/>
        <pt x="565" y="254" on="0"/>
        <pt x="514" y="219" on="1"/>
        <pt x="431" y="219" on="0"/>
        <pt x="401" y="281" on="1"/>
      </contour>
    </TTGlyph>
    <TTGlyph name="dollar" xMin="105" yMin="-188" xMax="873" yMax="1465">
      <contour>
        <pt x="538" y="-188" on="1"/>
        <pt x="459" y="-188" on="1"/>
        <pt x="459" y="-10" on="1"/>
        <pt x="243" y="-6" on="0"/>
        <pt x="105" y="68" on="1"/>
        <pt x="133" y="173" on="1"/>
        <pt x="186" y="150" on="0"/>
        <pt x="252" y="125" on="0"/>
        <pt x="388" y="97" on="0"/>
        <pt x="459" y="96" on="1"/>
        <pt x="459" y="616" on="1"/>
        <pt x="376" y="644" on="1"/>
        <pt x="242" y="689" on="0"/>
        <pt x="105" y="839" on="0"/>
        <pt x="105" y="969" on="1"/>
        <pt x="105" y="1131" on="0"/>
        <pt x="298" y="1292" on="0"/>
        <pt x="458" y="1300" on="1"/>
        <pt x="458" y="1465" on="1"/>
        <pt x="538" y="1465" on="1"/>
        <pt x="538" y="1300" on="1"/>
        <pt x="712" y="1293" on="0"/>
        <pt x="842" y="1239" on="1"/>
        <pt x="819" y="1137" on="1"/>
        <pt x="674" y="1191" on="0"/>
        <pt x="538" y="1195" on="1"/>
        <pt x="538" y="717" on="1"/>
        <pt x="665" y="671" on="0"/>
        <pt x="705" y="650" on="1"/>
        <pt x="827" y="586" on="0"/>
        <pt x="859" y="467" on="1"/>
        <pt x="873" y="416" on="0"/>
        <pt x="873" y="353" on="1"/>
        <pt x="873" y="194" on="0"/>
        <pt x="694" y="8" on="0"/>
        <pt x="538" y="-7" on="1"/>
      </contour>
      <contour>
        <pt x="538" y="590" on="1"/>
        <pt x="538" y="101" on="1"/>
        <pt x="636" y="117" on="0"/>
        <pt x="745" y="243" on="0"/>
        <pt x="745" y="355" on="1"/>
        <pt x="745" y="408" on="0"/>
        <pt x="720" y="482" on="0"/>
        <pt x="663" y="536" on="0"/>
        <pt x="595" y="570" on="0"/>
      </contour>
      <contour>
        <pt x="458" y="746" on="1"/>
        <pt x="458" y="1193" on="1"/>
        <pt x="233" y="1172" on="0"/>
        <pt x="233" y="972" on="1"/>
        <pt x="233" y="890" on="0"/>
        <pt x="307" y="801" on="0"/>
        <pt x="417" y="761" on="1"/>
      </contour>
    </TTGlyph>
    <TTGlyph name="dotaccent" xMin="-80" yMin="163" xMax="57" yMax="318">
      <contour>
        <pt x="57" y="318" on="1"/>
        <pt x="57" y="163" on="1"/>
        <pt x="-80" y="163" on="1"/>
        <pt x="-80" y="318" on="1"/>
      </contour>
    </TTGlyph>
    <TTGlyph name="dotlessi" xMin="111" yMin="0" xMax="623" yMax="985">
      <contour>
        <pt x="111" y="895" on="1"/>
        <pt x="111" y="985" on="1"/>
        <pt x="431" y="985" on="1"/>
        <pt x="431" y="90" on="1"/>
        <pt x="623" y="90" on="1"/>
        <pt x="623" y="0" on="1"/>
        <pt x="111" y="0" on="1"/>
        <pt x="111" y="90" on="1"/>
        <pt x="303" y="90" on="1"/>
        <pt x="303" y="895" on="1"/>
      </contour>
    </TTGlyph>
    <TTGlyph name="e" xMin="108" yMin="-10" xMax="862" yMax="1000">
      <contour>
        <pt x="508" y="895" on="1"/>
        <pt x="382" y="895" on="0"/>
        <pt x="248" y="720" on="0"/>
        <pt x="236" y="559" on="1"/>
        <pt x="743" y="559" on="1"/>
        <pt x="743" y="609" on="1"/>
        <pt x="743" y="740" on="0"/>
        <pt x="616" y="895" on="0"/>
      </contour>
      <contour>
        <pt x="525" y="96" on="1"/>
        <pt x="679" y="96" on="0"/>
        <pt x="805" y="176" on="1"/>
        <pt x="844" y="75" on="1"/>
        <pt x="776" y="33" on="0"/>
        <pt x="608" y="-10" on="0"/>
        <pt x="532" y="-10" on="1"/>
        <pt x="330" y="-10" on="0"/>
        <pt x="108" y="234" on="0"/>
        <pt x="108" y="496" on="1"/>
        <pt x="108" y="747" on="0"/>
        <pt x="324" y="1000" on="0"/>
        <pt x="507" y="1000" on="1"/>
        <pt x="672" y="1000" on="0"/>
        <pt x="862" y="784" on="0"/>
        <pt x="862" y="604" on="1"/>
        <pt x="862" y="563" on="0"/>
        <pt x="854" y="469" on="1"/>
        <pt x="236" y="469" on="1"/>
        <pt x="237" y="380" on="0"/>
        <pt x="271" y="245" on="0"/>
        <pt x="323" y="164" on="0"/>
        <pt x="400" y="114" on="0"/>
        <pt x="478" y="96" on="0"/>
      </contour>
    </TTGlyph>
    <TTGlyph name="eacute" xMin="108" yMin="-10" xMax="862" yMax="1553">
      <component glyphName="acute" x="319" y="190" flags="0x1004"/>
      <component glyphName="e" x="0" y="0" flags="0x1204"/>
    </TTGlyph>
    <TTGlyph name="ebreve" xMin="108" yMin="-10" xMax="862" yMax="1388">
      <component glyphName="breve" x="50" y="132" flags="0x1004"/>
      <component glyphName="e" x="0" y="0" flags="0x1204"/>
    </TTGlyph>
    <TTGlyph name="ecaron" xMin="108" yMin="-10" xMax="862" yMax="1533">
      <component glyphName="caron" x="320" y="170" flags="0x1004"/>
      <component glyphName="e" x="0" y="0" flags="0x1204"/>
    </TTGlyph>
    <TTGlyph name="ecircumflex" xMin="108" yMin="-10" xMax="862" yMax="1504">
      <component glyphName="circumflex" x="50" y="141" flags="0x1004"/>
      <component glyphName="e" x="0" y="0" flags="0x1204"/>
    </TTGlyph>
    <TTGlyph name="edieresis" xMin="108" yMin="-10" xMax="862" yMax="1289">
      <component glyphName="dieresis" x="260" y="163" flags="0x1004"/>
      <component glyphName="e" x="0" y="0" flags="0x1204"/>
    </TTGlyph>
    <TTGlyph name="edotaccent" xMin="108" yMin="-10" xMax="862" yMax="1365">
      <component glyphName="period" x="260" y="1163" flags="0x1004"/>
      <component glyphName="e" x="0" y="0" flags="0x1204"/>
    </TTGlyph>
    <TTGlyph name="egrave" xMin="108" yMin="-10" xMax="862" yMax="1553">
      <component glyphName="grave" x="119" y="190" flags="0x1004"/>
      <component glyphName="e" x="0" y="0" flags="0x1204"/>
    </TTGlyph>
    <TTGlyph name="eight" xMin="128" yMin="-10" xMax="896" yMax="1301">
      <contour>
        <pt x="512" y="96" on="1"/>
        <pt x="624" y="96" on="0"/>
        <pt x="768" y="203" on="0"/>
        <pt x="768" y="321" on="1"/>
        <pt x="768" y="369" on="0"/>
        <pt x="735" y="453" on="0"/>
        <pt x="685" y="513" on="0"/>
        <pt x="607" y="570" on="0"/>
        <pt x="538" y="606" on="0"/>
        <pt x="492" y="626" on="1"/>
        <pt x="256" y="507" on="0"/>
        <pt x="256" y="317" on="1"/>
        <pt x="256" y="203" on="0"/>
        <pt x="396" y="96" on="0"/>
      </contour>
      <contour>
        <pt x="545" y="716" on="1"/>
        <pt x="643" y="750" on="0"/>
        <pt x="768" y="903" on="0"/>
        <pt x="768" y="987" on="1"/>
        <pt x="768" y="1082" on="0"/>
        <pt x="649" y="1195" on="0"/>
        <pt x="530" y="1195" on="1"/>
        <pt x="480" y="1195" on="0"/>
        <pt x="397" y="1175" on="0"/>
        <pt x="327" y="1130" on="0"/>
        <pt x="288" y="1047" on="0"/>
        <pt x="288" y="989" on="1"/>
        <pt x="288" y="935" on="0"/>
        <pt x="327" y="851" on="0"/>
        <pt x="407" y="785" on="0"/>
        <pt x="484" y="743" on="0"/>
      </contour>
      <contour>
        <pt x="160" y="994" on="1"/>
        <pt x="160" y="1098" on="0"/>
        <pt x="265" y="1240" on="0"/>
        <pt x="426" y="1301" on="0"/>
        <pt x="528" y="1301" on="1"/>
        <pt x="628" y="1301" on="0"/>
        <pt x="792" y="1234" on="0"/>
        <pt x="896" y="1094" on="0"/>
        <pt x="896" y="998" on="1"/>
        <pt x="896" y="896" on="0"/>
        <pt x="763" y="711" on="0"/>
        <pt x="654" y="665" on="1"/>
        <pt x="766" y="606" on="0"/>
        <pt x="896" y="437" on="0"/>
        <pt x="896" y="306" on="1"/>
        <pt x="896" y="228" on="0"/>
        <pt x="831" y="104" on="0"/>
        <pt x="722" y="29" on="0"/>
        <pt x="587" y="-10" on="0"/>
        <pt x="512" y="-10" on="1"/>
        <pt x="346" y="-10" on="0"/>
        <pt x="128" y="153" on="0"/>
        <pt x="128" y="304" on="1"/>
        <pt x="128" y="415" on="0"/>
        <pt x="260" y="619" on="0"/>
        <pt x="383" y="675" on="1"/>
        <pt x="280" y="728" on="0"/>
        <pt x="160" y="878" on="0"/>
      </contour>
    </TTGlyph>
    <TTGlyph name="ellipsis" xMin="153" yMin="0" xMax="1217" yMax="202">
      <component glyphName="period" x="912" y="0" flags="0x1004"/>
      <component glyphName="period" x="460" y="0" flags="0x1004"/>
      <component glyphName="period" x="8" y="0" flags="0x1004"/>
    </TTGlyph>
    <TTGlyph name="emacron" xMin="108" yMin="-10" xMax="862" yMax="1269">
      <component glyphName="macron" x="181" y="85" flags="0x1004"/>
      <component glyphName="e" x="0" y="0" flags="0x1204"/>
    </TTGlyph>
    <TTGlyph name="emdash" xMin="116" yMin="547" xMax="1006" yMax="643">
      <contour>
        <pt x="116" y="547" on="1"/>
        <pt x="116" y="643" on="1"/>
        <pt x="1006" y="643" on="1"/>
        <pt x="1006" y="547" on="1"/>
      </contour>
    </TTGlyph>
    <TTGlyph name="endash" xMin="116" yMin="547" xMax="776" yMax="643">
      <contour>
        <pt x="116" y="547" on="1"/>
        <pt x="116" y="643" on="1"/>
        <pt x="776" y="643" on="1"/>
        <pt x="776" y="547" on="1"/>
      </contour>
    </TTGlyph>
    <TTGlyph name="eng" xMin="133" yMin="-288" xMax="850" yMax="1000">
      <contour>
        <pt x="722" y="108" on="1"/>
        <pt x="722" y="668" on="1"/>
        <pt x="722" y="790" on="0"/>
        <pt x="645" y="895" on="0"/>
        <pt x="546" y="895" on="1"/>
        <pt x="394" y="895" on="0"/>
        <pt x="261" y="822" on="1"/>
        <pt x="261" y="0" on="1"/>
        <pt x="133" y="0" on="1"/>
        <pt x="133" y="985" on="1"/>
        <pt x="238" y="985" on="1"/>
        <pt x="247" y="921" on="1"/>
        <pt x="345" y="967" on="0"/>
        <pt x="477" y="1000" on="0"/>
        <pt x="553" y="1000" on="1"/>
        <pt x="705" y="1000" on="0"/>
        <pt x="850" y="834" on="0"/>
        <pt x="850" y="663" on="1"/>
        <pt x="850" y="128" on="1"/>
        <pt x="850" y="6" on="0"/>
        <pt x="792" y="-160" on="0"/>
        <pt x="676" y="-251" on="0"/>
        <pt x="528" y="-288" on="0"/>
        <pt x="425" y="-288" on="1"/>
        <pt x="426" y="-184" on="1"/>
        <pt x="490" y="-184" on="0"/>
        <pt x="578" y="-170" on="0"/>
        <pt x="654" y="-133" on="0"/>
        <pt x="698" y="-68" on="0"/>
        <pt x="722" y="35" on="0"/>
      </contour>
    </TTGlyph>
    <TTGlyph name="eogonek" xMin="108" yMin="-339" xMax="862" yMax="1000">
      <component glyphName="ogonek" x="-80" y="118" flags="0x1004"/>
      <component glyphName="e" x="0" y="0" flags="0x1204"/>
    </TTGlyph>
    <TTGlyph name="equal" xMin="123" yMin="371" xMax="897" yMax="780">
      <contour>
        <pt x="123" y="467" on="1"/>
        <pt x="897" y="467" on="1"/>
        <pt x="897" y="371" on="1"/>
        <pt x="123" y="371" on="1"/>
      </contour>
      <contour>
        <pt x="123" y="780" on="1"/>
        <pt x="897" y="780" on="1"/>
        <pt x="897" y="684" on="1"/>
        <pt x="123" y="684" on="1"/>
      </contour>
    </TTGlyph>
    <TTGlyph name="eth" xMin="88" yMin="-10" xMax="879" yMax="1377">
      <contour>
        <pt x="761" y="672" on="1"/>
        <pt x="756" y="789" on="0"/>
        <pt x="658" y="1061" on="0"/>
        <pt x="588" y="1109" on="1"/>
        <pt x="382" y="967" on="1"/>
        <pt x="330" y="1035" on="1"/>
        <pt x="513" y="1161" on="1"/>
        <pt x="392" y="1230" on="0"/>
        <pt x="224" y="1245" on="1"/>
        <pt x="245" y="1351" on="1"/>
        <pt x="480" y="1313" on="0"/>
        <pt x="612" y="1229" on="1"/>
        <pt x="822" y="1377" on="1"/>
        <pt x="874" y="1309" on="1"/>
        <pt x="684" y="1175" on="1"/>
        <pt x="777" y="1091" on="0"/>
        <pt x="879" y="762" on="0"/>
        <pt x="879" y="544" on="1"/>
        <pt x="879" y="269" on="0"/>
        <pt x="686" y="-10" on="0"/>
        <pt x="485" y="-10" on="1"/>
        <pt x="304" y="-10" on="0"/>
        <pt x="88" y="196" on="0"/>
        <pt x="88" y="394" on="1"/>
        <pt x="88" y="495" on="0"/>
        <pt x="151" y="654" on="0"/>
        <pt x="260" y="753" on="0"/>
        <pt x="397" y="804" on="0"/>
        <pt x="475" y="804" on="1"/>
        <pt x="564" y="804" on="0"/>
        <pt x="715" y="734" on="0"/>
      </contour>
      <contour>
        <pt x="751" y="450" on="1"/>
        <pt x="751" y="507" on="0"/>
        <pt x="712" y="598" on="0"/>
        <pt x="652" y="652" on="0"/>
        <pt x="574" y="688" on="0"/>
        <pt x="503" y="701" on="0"/>
        <pt x="469" y="701" on="1"/>
        <pt x="357" y="701" on="0"/>
        <pt x="216" y="544" on="0"/>
        <pt x="216" y="395" on="1"/>
        <pt x="216" y="234" on="0"/>
        <pt x="356" y="96" on="0"/>
        <pt x="490" y="96" on="1"/>
        <pt x="625" y="96" on="0"/>
        <pt x="751" y="265" on="0"/>
      </contour>
    </TTGlyph>
    <TTGlyph name="exclam" xMin="151" yMin="0" xMax="295" yMax="1284">
      <contour>
        <pt x="157" y="154" on="1"/>
        <pt x="295" y="154" on="1"/>
        <pt x="295" y="0" on="1"/>
        <pt x="157" y="0" on="1"/>
      </contour>
      <contour>
        <pt x="151" y="1284" on="1"/>
        <pt x="288" y="1284" on="1"/>
        <pt x="250" y="341" on="1"/>
        <pt x="191" y="341" on="1"/>
      </contour>
    </TTGlyph>
    <TTGlyph name="exclamdown" xMin="151" yMin="-132" xMax="295" yMax="1152">
      <component glyphName="exclam" x="446" y="1152" scale="-1.0" flags="0x1004"/>
    </TTGlyph>
    <TTGlyph name="f" xMin="62" yMin="0" xMax="698" yMax="1394">
      <contour>
        <pt x="254" y="0" on="1"/>
        <pt x="254" y="893" on="1"/>
        <pt x="62" y="893" on="1"/>
        <pt x="62" y="985" on="1"/>
        <pt x="254" y="985" on="1"/>
        <pt x="254" y="1098" on="0"/>
        <pt x="275" y="1241" on="0"/>
        <pt x="332" y="1345" on="0"/>
        <pt x="433" y="1391" on="0"/>
        <pt x="513" y="1394" on="1"/>
        <pt x="622" y="1394" on="0"/>
        <pt x="698" y="1368" on="1"/>
        <pt x="682" y="1268" on="1"/>
        <pt x="661" y="1274" on="0"/>
        <pt x="567" y="1289" on="0"/>
        <pt x="541" y="1289" on="1"/>
        <pt x="494" y="1289" on="0"/>
        <pt x="439" y="1269" on="0"/>
        <pt x="398" y="1204" on="0"/>
        <pt x="382" y="1085" on="0"/>
        <pt x="382" y="985" on="1"/>
        <pt x="606" y="985" on="1"/>
        <pt x="606" y="893" on="1"/>
        <pt x="382" y="893" on="1"/>
        <pt x="382" y="0" on="1"/>
      </contour>
    </TTGlyph>
    <TTGlyph name="five" xMin="131" yMin="-10" xMax="864" yMax="1284">
      <contour>
        <pt x="736" y="371" on="1"/>
        <pt x="736" y="524" on="0"/>
        <pt x="607" y="683" on="0"/>
        <pt x="497" y="683" on="1"/>
        <pt x="350" y="683" on="0"/>
        <pt x="250" y="608" on="1"/>
        <pt x="179" y="637" on="1"/>
        <pt x="179" y="1284" on="1"/>
        <pt x="796" y="1284" on="1"/>
        <pt x="796" y="1184" on="1"/>
        <pt x="292" y="1184" on="1"/>
        <pt x="277" y="726" on="1"/>
        <pt x="366" y="787" on="0"/>
        <pt x="498" y="787" on="1"/>
        <pt x="664" y="787" on="0"/>
        <pt x="864" y="561" on="0"/>
        <pt x="864" y="369" on="1"/>
        <pt x="864" y="186" on="0"/>
        <pt x="635" y="-10" on="0"/>
        <pt x="443" y="-10" on="1"/>
        <pt x="370" y="-10" on="0"/>
        <pt x="180" y="26" on="0"/>
        <pt x="131" y="50" on="1"/>
        <pt x="157" y="159" on="1"/>
        <pt x="210" y="134" on="0"/>
        <pt x="384" y="96" on="0"/>
        <pt x="450" y="96" on="1"/>
        <pt x="588" y="96" on="0"/>
        <pt x="736" y="239" on="0"/>
      </contour>
    </TTGlyph>
    <TTGlyph name="florin" xMin="48" yMin="-418" xMax="895" yMax="1403">
      <contour>
        <pt x="393" y="-31" on="1"/>
        <pt x="384" y="-102" on="0"/>
        <pt x="361" y="-202" on="0"/>
        <pt x="317" y="-309" on="0"/>
        <pt x="254" y="-375" on="0"/>
        <pt x="154" y="-417" on="0"/>
        <pt x="88" y="-418" on="1"/>
        <pt x="82" y="-418" on="0"/>
        <pt x="48" y="-416" on="1"/>
        <pt x="57" y="-305" on="1"/>
        <pt x="60" y="-305" on="0"/>
        <pt x="70" y="-306" on="0"/>
        <pt x="72" y="-306" on="1"/>
        <pt x="126" y="-306" on="0"/>
        <pt x="165" y="-276" on="1"/>
        <pt x="217" y="-253" on="0"/>
        <pt x="265" y="-145" on="0"/>
        <pt x="282" y="-37" on="1"/>
        <pt x="315" y="177" on="0"/>
        <pt x="397" y="840" on="1"/>
        <pt x="224" y="840" on="1"/>
        <pt x="240" y="952" on="1"/>
        <pt x="412" y="952" on="1"/>
        <pt x="422" y="1032" on="0"/>
        <pt x="444" y="1145" on="0"/>
        <pt x="487" y="1268" on="0"/>
        <pt x="546" y="1345" on="0"/>
        <pt x="641" y="1399" on="0"/>
        <pt x="703" y="1403" on="1"/>
        <pt x="776" y="1403" on="1"/>
        <pt x="826" y="1397" on="0"/>
        <pt x="895" y="1380" on="1"/>
        <pt x="867" y="1266" on="1"/>
        <pt x="786" y="1290" on="0"/>
        <pt x="727" y="1290" on="1"/>
        <pt x="673" y="1290" on="0"/>
        <pt x="617" y="1247" on="0"/>
        <pt x="594" y="1194" on="1"/>
        <pt x="543" y="1108" on="0"/>
        <pt x="525" y="952" on="1"/>
        <pt x="819" y="952" on="1"/>
        <pt x="801" y="840" on="1"/>
        <pt x="511" y="840" on="1"/>
        <pt x="395" y="-31" on="1"/>
      </contour>
    </TTGlyph>
    <TTGlyph name="four" xMin="64" yMin="0" xMax="896" yMax="1284">
      <contour>
        <pt x="608" y="0" on="1"/>
        <pt x="608" y="260" on="1"/>
        <pt x="64" y="260" on="1"/>
        <pt x="64" y="356" on="1"/>
        <pt x="411" y="1284" on="1"/>
        <pt x="536" y="1284" on="1"/>
        <pt x="201" y="360" on="1"/>
        <pt x="608" y="360" on="1"/>
        <pt x="608" y="797" on="1"/>
        <pt x="736" y="797" on="1"/>
        <pt x="736" y="360" on="1"/>
        <pt x="896" y="360" on="1"/>
        <pt x="896" y="260" on="1"/>
        <pt x="736" y="260" on="1"/>
        <pt x="736" y="0" on="1"/>
      </contour>
    </TTGlyph>
    <TTGlyph name="fraction" xMin="109" yMin="-6" xMax="734" yMax="1446">
      <contour>
        <pt x="734" y="1446" on="1"/>
        <pt x="208" y="-6" on="1"/>
        <pt x="109" y="0" on="1"/>
        <pt x="632" y="1446" on="1"/>
      </contour>
    </TTGlyph>
    <TTGlyph name="g" xMin="118" yMin="-340" xMax="1029" yMax="1000">
      <contour>
        <pt x="521" y="-235" on="1"/>
        <pt x="683" y="-235" on="0"/>
        <pt x="845" y="-125" on="0"/>
        <pt x="845" y="-49" on="1"/>
        <pt x="845" y="8" on="0"/>
        <pt x="786" y="65" on="0"/>
        <pt x="698" y="65" on="1"/>
        <pt x="319" y="65" on="1"/>
        <pt x="246" y="-4" on="0"/>
        <pt x="246" y="-79" on="1"/>
        <pt x="246" y="-99" on="0"/>
        <pt x="251" y="-128" on="0"/>
        <pt x="267" y="-168" on="0"/>
        <pt x="304" y="-196" on="0"/>
        <pt x="361" y="-222" on="0"/>
        <pt x="458" y="-235" on="0"/>
      </contour>
      <contour>
        <pt x="742" y="977" on="1"/>
        <pt x="1029" y="977" on="1"/>
        <pt x="1029" y="883" on="1"/>
        <pt x="806" y="883" on="1"/>
        <pt x="858" y="844" on="0"/>
        <pt x="914" y="730" on="0"/>
        <pt x="914" y="674" on="1"/>
        <pt x="914" y="538" on="0"/>
        <pt x="710" y="377" on="0"/>
        <pt x="544" y="377" on="1"/>
        <pt x="430" y="377" on="0"/>
        <pt x="338" y="414" on="1"/>
        <pt x="272" y="307" on="0"/>
        <pt x="272" y="254" on="1"/>
        <pt x="272" y="230" on="0"/>
        <pt x="288" y="185" on="0"/>
        <pt x="296" y="175" on="1"/>
        <pt x="303" y="165" on="1"/>
        <pt x="682" y="165" on="1"/>
        <pt x="840" y="165" on="0"/>
        <pt x="965" y="67" on="0"/>
        <pt x="965" y="-41" on="1"/>
        <pt x="965" y="-82" on="0"/>
        <pt x="940" y="-160" on="0"/>
        <pt x="876" y="-241" on="0"/>
        <pt x="778" y="-302" on="0"/>
        <pt x="617" y="-340" on="0"/>
        <pt x="515" y="-340" on="1"/>
        <pt x="420" y="-340" on="0"/>
        <pt x="273" y="-305" on="0"/>
        <pt x="189" y="-254" on="0"/>
        <pt x="136" y="-184" on="0"/>
        <pt x="118" y="-124" on="0"/>
        <pt x="118" y="-93" on="1"/>
        <pt x="118" y="-37" on="0"/>
        <pt x="193" y="75" on="0"/>
        <pt x="229" y="96" on="1"/>
        <pt x="196" y="118" on="0"/>
        <pt x="158" y="198" on="0"/>
        <pt x="158" y="237" on="1"/>
        <pt x="158" y="290" on="0"/>
        <pt x="204" y="384" on="0"/>
        <pt x="261" y="465" on="1"/>
        <pt x="150" y="558" on="0"/>
        <pt x="150" y="688" on="1"/>
        <pt x="150" y="845" on="0"/>
        <pt x="367" y="1000" on="0"/>
        <pt x="539" y="1000" on="1"/>
        <pt x="584" y="1000" on="0"/>
        <pt x="704" y="977" on="0"/>
      </contour>
      <contour>
        <pt x="545" y="905" on="1"/>
        <pt x="407" y="905" on="0"/>
        <pt x="278" y="787" on="0"/>
        <pt x="278" y="689" on="1"/>
        <pt x="278" y="585" on="0"/>
        <pt x="414" y="475" on="0"/>
        <pt x="535" y="475" on="1"/>
        <pt x="663" y="475" on="0"/>
        <pt x="797" y="577" on="0"/>
        <pt x="797" y="678" on="1"/>
        <pt x="797" y="776" on="0"/>
        <pt x="669" y="905" on="0"/>
      </contour>
    </TTGlyph>
    <TTGlyph name="gbreve" xMin="118" yMin="-340" xMax="1029" yMax="1388">
      <component glyphName="breve" x="139" y="132" flags="0x1004"/>
      <component glyphName="g" x="0" y="0" flags="0x1204"/>
    </TTGlyph>
    <TTGlyph name="gcircumflex" xMin="118" yMin="-340" xMax="1029" yMax="1504">
      <component glyphName="circumflex" x="139" y="141" flags="0x1004"/>
      <component glyphName="g" x="0" y="0" flags="0x1204"/>
    </TTGlyph>
    <TTGlyph name="gcommaaccent" xMin="118" yMin="-340" xMax="1029" yMax="1611">
      <component glyphName="comma" x="754" y="1337" scale="-1.0" flags="0x1004"/>
      <component glyphName="g" x="0" y="0" flags="0x1204"/>
    </TTGlyph>
    <TTGlyph name="gdotaccent" xMin="118" yMin="-340" xMax="1029" yMax="1365">
      <component glyphName="period" x="348" y="1163" flags="0x1004"/>
      <component glyphName="g" x="0" y="0" flags="0x1204"/>
    </TTGlyph>
    <TTGlyph name="germandbls" xMin="133" yMin="-10" xMax="933" yMax="1301">
      <contour>
        <pt x="802" y="279" on="1"/>
        <pt x="802" y="327" on="0"/>
        <pt x="759" y="400" on="0"/>
        <pt x="690" y="447" on="0"/>
        <pt x="607" y="485" on="0"/>
        <pt x="523" y="521" on="0"/>
        <pt x="454" y="561" on="0"/>
        <pt x="411" y="624" on="0"/>
        <pt x="411" y="664" on="1"/>
        <pt x="411" y="684" on="0"/>
        <pt x="422" y="721" on="0"/>
        <pt x="437" y="752" on="0"/>
        <pt x="466" y="785" on="0"/>
        <pt x="492" y="809" on="0"/>
        <pt x="537" y="839" on="0"/>
        <pt x="570" y="860" on="0"/>
        <pt x="626" y="889" on="0"/>
        <pt x="662" y="907" on="0"/>
        <pt x="693" y="922" on="1"/>
        <pt x="693" y="1075" on="0"/>
        <pt x="603" y="1195" on="0"/>
        <pt x="477" y="1195" on="1"/>
        <pt x="362" y="1195" on="0"/>
        <pt x="261" y="1053" on="0"/>
        <pt x="261" y="901" on="1"/>
        <pt x="261" y="0" on="1"/>
        <pt x="133" y="0" on="1"/>
        <pt x="133" y="912" on="1"/>
        <pt x="133" y="1108" on="0"/>
        <pt x="305" y="1301" on="0"/>
        <pt x="481" y="1301" on="1"/>
        <pt x="585" y="1301" on="0"/>
        <pt x="723" y="1247" on="0"/>
        <pt x="800" y="1129" on="0"/>
        <pt x="830" y="972" on="0"/>
        <pt x="830" y="855" on="1"/>
        <pt x="537" y="761" on="0"/>
        <pt x="537" y="674" on="1"/>
        <pt x="537" y="653" on="0"/>
        <pt x="571" y="616" on="0"/>
        <pt x="627" y="588" on="0"/>
        <pt x="698" y="553" on="0"/>
        <pt x="772" y="519" on="0"/>
        <pt x="843" y="468" on="0"/>
        <pt x="899" y="409" on="0"/>
        <pt x="933" y="322" on="0"/>
        <pt x="933" y="270" on="1"/>
        <pt x="933" y="105" on="0"/>
        <pt x="802" y="32" on="1"/>
        <pt x="725" y="-10" on="0"/>
        <pt x="622" y="-10" on="1"/>
        <pt x="495" y="-10" on="0"/>
        <pt x="380" y="66" on="1"/>
        <pt x="418" y="156" on="1"/>
        <pt x="449" y="137" on="0"/>
        <pt x="514" y="109" on="0"/>
        <pt x="580" y="95" on="0"/>
        <pt x="611" y="95" on="1"/>
        <pt x="651" y="95" on="0"/>
        <pt x="719" y="117" on="0"/>
        <pt x="772" y="160" on="0"/>
        <pt x="802" y="232" on="0"/>
      </contour>
    </TTGlyph>
    <TTGlyph name="grave" xMin="68" yMin="973" xMax="419" yMax="1363">
      <contour>
        <pt x="419" y="1022" on="1"/>
        <pt x="366" y="973" on="1"/>
        <pt x="214" y="1106" on="0"/>
        <pt x="167" y="1164" on="1"/>
        <pt x="68" y="1283" on="1"/>
        <pt x="174" y="1363" on="1"/>
      </contour>
    </TTGlyph>
    <TTGlyph name="greater" xMin="130" yMin="61" xMax="899" yMax="1116">
      <contour>
        <pt x="774" y="596" on="1"/>
        <pt x="130" y="1030" on="1"/>
        <pt x="186" y="1116" on="1"/>
        <pt x="899" y="629" on="1"/>
        <pt x="899" y="563" on="1"/>
        <pt x="186" y="61" on="1"/>
        <pt x="130" y="150" on="1"/>
      </contour>
    </TTGlyph>
    <TTGlyph name="greaterequal" xMin="136" yMin="43" xMax="999" yMax="1161">
      <contour>
        <pt x="956" y="123" on="1"/>
        <pt x="946" y="43" on="1"/>
        <pt x="306" y="49" on="1"/>
        <pt x="174" y="49" on="1"/>
        <pt x="183" y="123" on="1"/>
      </contour>
      <contour>
        <pt x="883" y="723" on="1"/>
        <pt x="883" y="725" on="1"/>
        <pt x="136" y="1065" on="1"/>
        <pt x="158" y="1161" on="1"/>
        <pt x="999" y="768" on="1"/>
        <pt x="999" y="678" on="1"/>
        <pt x="158" y="274" on="1"/>
        <pt x="136" y="369" on="1"/>
      </contour>
    </TTGlyph>
    <TTGlyph name="guillemotleft" xMin="106" yMin="160" xMax="834" yMax="936">
      <contour>
        <pt x="834" y="817" on="1"/>
        <pt x="561" y="545" on="1"/>
        <pt x="834" y="279" on="1"/>
        <pt x="806" y="160" on="1"/>
        <pt x="447" y="520" on="1"/>
        <pt x="469" y="600" on="1"/>
        <pt x="806" y="936" on="1"/>
      </contour>
      <contour>
        <pt x="493" y="817" on="1"/>
        <pt x="219" y="545" on="1"/>
        <pt x="493" y="279" on="1"/>
        <pt x="463" y="160" on="1"/>
        <pt x="106" y="520" on="1"/>
        <pt x="128" y="600" on="1"/>
        <pt x="463" y="936" on="1"/>
      </contour>
    </TTGlyph>
    <TTGlyph name="guillemotright" xMin="131" yMin="160" xMax="859" yMax="936">
      <contour>
        <pt x="497" y="600" on="1"/>
        <pt x="518" y="520" on="1"/>
        <pt x="159" y="160" on="1"/>
        <pt x="131" y="279" on="1"/>
        <pt x="404" y="545" on="1"/>
        <pt x="131" y="817" on="1"/>
        <pt x="159" y="936" on="1"/>
      </contour>
      <contour>
        <pt x="831" y="608" on="1"/>
        <pt x="859" y="520" on="1"/>
        <pt x="502" y="160" on="1"/>
        <pt x="472" y="279" on="1"/>
        <pt x="747" y="545" on="1"/>
        <pt x="472" y="817" on="1"/>
        <pt x="502" y="936" on="1"/>
      </contour>
    </TTGlyph>
    <TTGlyph name="guilsinglleft" xMin="109" yMin="123" xMax="489" yMax="934">
      <contour>
        <pt x="449" y="123" on="1"/>
        <pt x="109" y="483" on="1"/>
        <pt x="109" y="573" on="1"/>
        <pt x="449" y="934" on="1"/>
        <pt x="489" y="823" on="1"/>
        <pt x="222" y="526" on="1"/>
        <pt x="489" y="236" on="1"/>
      </contour>
    </TTGlyph>
    <TTGlyph name="guilsinglright" xMin="130" yMin="123" xMax="508" yMax="934">
      <contour>
        <pt x="397" y="526" on="1"/>
        <pt x="130" y="823" on="1"/>
        <pt x="170" y="934" on="1"/>
        <pt x="508" y="573" on="1"/>
        <pt x="508" y="483" on="1"/>
        <pt x="170" y="123" on="1"/>
        <pt x="130" y="236" on="1"/>
      </contour>
    </TTGlyph>
    <TTGlyph name="h" xMin="140" yMin="0" xMax="844" yMax="1358">
      <contour>
        <pt x="268" y="800" on="1"/>
        <pt x="268" y="0" on="1"/>
        <pt x="140" y="0" on="1"/>
        <pt x="140" y="1358" on="1"/>
        <pt x="268" y="1358" on="1"/>
        <pt x="268" y="911" on="1"/>
        <pt x="429" y="1000" on="0"/>
        <pt x="567" y="1000" on="1"/>
        <pt x="708" y="1000" on="0"/>
        <pt x="844" y="839" on="0"/>
        <pt x="844" y="663" on="1"/>
        <pt x="844" y="0" on="1"/>
        <pt x="716" y="0" on="1"/>
        <pt x="716" y="669" on="1"/>
        <pt x="716" y="790" on="0"/>
        <pt x="646" y="895" on="0"/>
        <pt x="559" y="895" on="1"/>
        <pt x="444" y="895" on="0"/>
      </contour>
    </TTGlyph>
    <TTGlyph name="hbar" xMin="-31" yMin="0" xMax="863" yMax="1358">
      <contour>
        <pt x="-31" y="1100" on="1"/>
        <pt x="-31" y="1195" on="1"/>
        <pt x="159" y="1195" on="1"/>
        <pt x="159" y="1358" on="1"/>
        <pt x="287" y="1358" on="1"/>
        <pt x="287" y="1195" on="1"/>
        <pt x="499" y="1195" on="1"/>
        <pt x="499" y="1100" on="1"/>
        <pt x="287" y="1100" on="1"/>
        <pt x="287" y="911" on="1"/>
        <pt x="448" y="1000" on="0"/>
        <pt x="586" y="1000" on="1"/>
        <pt x="727" y="1000" on="0"/>
        <pt x="863" y="839" on="0"/>
        <pt x="863" y="663" on="1"/>
        <pt x="863" y="0" on="1"/>
        <pt x="735" y="0" on="1"/>
        <pt x="735" y="669" on="1"/>
        <pt x="735" y="790" on="0"/>
        <pt x="665" y="895" on="0"/>
        <pt x="578" y="895" on="1"/>
        <pt x="463" y="895" on="0"/>
        <pt x="287" y="800" on="1"/>
        <pt x="287" y="0" on="1"/>
        <pt x="159" y="0" on="1"/>
        <pt x="159" y="1100" on="1"/>
      </contour>
    </TTGlyph>
    <TTGlyph name="hcircumflex" xMin="140" yMin="0" xMax="844" yMax="1862">
      <component glyphName="circumflex" x="58" y="499" flags="0x1004"/>
      <component glyphName="h" x="0" y="0" flags="0x1204"/>
    </TTGlyph>
    <TTGlyph name="hungarumlaut" xMin="69" yMin="973" xMax="716" yMax="1363">
      <contour>
        <pt x="364" y="1022" on="1"/>
        <pt x="610" y="1363" on="1"/>
        <pt x="716" y="1283" on="1"/>
        <pt x="618" y="1174" on="1"/>
        <pt x="597" y="1148" on="0"/>
        <pt x="497" y="1048" on="0"/>
        <pt x="458" y="1010" on="1"/>
        <pt x="418" y="973" on="1"/>
      </contour>
      <contour>
        <pt x="69" y="1022" on="1"/>
        <pt x="314" y="1363" on="1"/>
        <pt x="420" y="1283" on="1"/>
        <pt x="323" y="1174" on="1"/>
        <pt x="302" y="1148" on="0"/>
        <pt x="202" y="1048" on="0"/>
        <pt x="162" y="1010" on="1"/>
        <pt x="122" y="973" on="1"/>
      </contour>
    </TTGlyph>
    <TTGlyph name="hyphen" xMin="114" yMin="449" xMax="633" yMax="565">
      <contour>
        <pt x="114" y="449" on="1"/>
        <pt x="114" y="565" on="1"/>
        <pt x="633" y="565" on="1"/>
        <pt x="633" y="449" on="1"/>
      </contour>
    </TTGlyph>
    <TTGlyph name="i" xMin="118" yMin="0" xMax="630" yMax="1356">
      <contour>
        <pt x="283" y="1264" on="1"/>
        <pt x="283" y="1306" on="0"/>
        <pt x="335" y="1356" on="0"/>
        <pt x="374" y="1356" on="1"/>
        <pt x="415" y="1356" on="0"/>
        <pt x="464" y="1310" on="0"/>
        <pt x="464" y="1222" on="0"/>
        <pt x="415" y="1176" on="0"/>
        <pt x="374" y="1176" on="1"/>
        <pt x="334" y="1176" on="0"/>
        <pt x="283" y="1223" on="0"/>
      </contour>
      <contour>
        <pt x="118" y="895" on="1"/>
        <pt x="118" y="985" on="1"/>
        <pt x="438" y="985" on="1"/>
        <pt x="438" y="90" on="1"/>
        <pt x="630" y="90" on="1"/>
        <pt x="630" y="0" on="1"/>
        <pt x="118" y="0" on="1"/>
        <pt x="118" y="90" on="1"/>
        <pt x="310" y="90" on="1"/>
        <pt x="310" y="895" on="1"/>
      </contour>
    </TTGlyph>
    <TTGlyph name="iacute" xMin="111" yMin="0" xMax="657" yMax="1553">
      <component glyphName="acute" x="193" y="190" flags="0x1004"/>
      <component glyphName="dotlessi" x="0" y="0" flags="0x1204"/>
    </TTGlyph>
    <TTGlyph name="ibreve" xMin="90" yMin="0" xMax="627" yMax="1388">
      <component glyphName="breve" x="-76" y="132" flags="0x1004"/>
      <component glyphName="dotlessi" x="0" y="0" flags="0x1204"/>
    </TTGlyph>
    <TTGlyph name="icircumflex" xMin="60" yMin="0" xMax="657" yMax="1504">
      <component glyphName="circumflex" x="-76" y="141" flags="0x1004"/>
      <component glyphName="dotlessi" x="0" y="0" flags="0x1204"/>
    </TTGlyph>
    <TTGlyph name="idieresis" xMin="111" yMin="0" xMax="623" yMax="1289">
      <component glyphName="dieresis" x="134" y="163" flags="0x1004"/>
      <component glyphName="dotlessi" x="0" y="0" flags="0x1204"/>
    </TTGlyph>
    <TTGlyph name="igrave" xMin="61" yMin="0" xMax="623" yMax="1553">
      <component glyphName="grave" x="-7" y="190" flags="0x1004"/>
      <component glyphName="dotlessi" x="0" y="0" flags="0x1204"/>
    </TTGlyph>
    <TTGlyph name="ij" xMin="118" yMin="-295" xMax="1164" yMax="1356">
      <component glyphName="j" x="673" y="0" flags="0x1004"/>
      <component glyphName="i" x="0" y="0" flags="0x1004"/>
    </TTGlyph>
    <TTGlyph name="imacron" xMin="111" yMin="0" xMax="623" yMax="1269">
      <component glyphName="macron" x="55" y="85" flags="0x1004"/>
      <component glyphName="dotlessi" x="0" y="0" flags="0x1204"/>
    </TTGlyph>
    <TTGlyph name="infinity" xMin="119" yMin="249" xMax="1196" yMax="956">
      <contour>
        <pt x="1099" y="598" on="1"/>
        <pt x="1099" y="858" on="0"/>
        <pt x="948" y="858" on="1"/>
        <pt x="923" y="858" on="0"/>
        <pt x="879" y="845" on="0"/>
        <pt x="847" y="830" on="0"/>
        <pt x="811" y="788" on="0"/>
        <pt x="790" y="762" on="0"/>
        <pt x="754" y="693" on="0"/>
        <pt x="736" y="658" on="0"/>
        <pt x="715" y="612" on="1"/>
        <pt x="716" y="610" on="0"/>
        <pt x="720" y="600" on="0"/>
        <pt x="722" y="597" on="1"/>
        <pt x="786" y="449" on="0"/>
        <pt x="879" y="349" on="0"/>
        <pt x="948" y="349" on="1"/>
        <pt x="1024" y="349" on="0"/>
        <pt x="1100" y="485" on="0"/>
        <pt x="1100" y="597" on="1"/>
      </contour>
      <contour>
        <pt x="217" y="599" on="1"/>
        <pt x="217" y="481" on="0"/>
        <pt x="296" y="349" on="0"/>
        <pt x="377" y="349" on="1"/>
        <pt x="412" y="349" on="0"/>
        <pt x="471" y="374" on="0"/>
        <pt x="513" y="409" on="0"/>
        <pt x="560" y="482" on="0"/>
        <pt x="590" y="542" on="0"/>
        <pt x="616" y="598" on="1"/>
        <pt x="580" y="677" on="1"/>
        <pt x="537" y="769" on="0"/>
        <pt x="442" y="857" on="0"/>
        <pt x="374" y="857" on="1"/>
        <pt x="372" y="857" on="1"/>
        <pt x="316" y="857" on="0"/>
        <pt x="244" y="781" on="0"/>
        <pt x="216" y="670" on="0"/>
        <pt x="216" y="599" on="1"/>
      </contour>
      <contour>
        <pt x="964" y="953" on="1"/>
        <pt x="1047" y="953" on="0"/>
        <pt x="1154" y="856" on="0"/>
        <pt x="1196" y="704" on="0"/>
        <pt x="1196" y="599" on="1"/>
        <pt x="1196" y="439" on="0"/>
        <pt x="1069" y="249" on="0"/>
        <pt x="952" y="249" on="1"/>
        <pt x="898" y="249" on="0"/>
        <pt x="813" y="282" on="0"/>
        <pt x="743" y="353" on="0"/>
        <pt x="691" y="435" on="0"/>
        <pt x="659" y="498" on="1"/>
        <pt x="606" y="392" on="0"/>
        <pt x="570" y="349" on="1"/>
        <pt x="487" y="250" on="0"/>
        <pt x="239" y="250" on="0"/>
        <pt x="119" y="446" on="0"/>
        <pt x="119" y="602" on="1"/>
        <pt x="119" y="766" on="0"/>
        <pt x="248" y="956" on="0"/>
        <pt x="373" y="956" on="1"/>
        <pt x="425" y="956" on="0"/>
        <pt x="509" y="927" on="0"/>
        <pt x="564" y="887" on="0"/>
        <pt x="618" y="813" on="0"/>
        <pt x="648" y="756" on="0"/>
        <pt x="670" y="707" on="1"/>
        <pt x="688" y="750" on="0"/>
        <pt x="719" y="810" on="0"/>
        <pt x="771" y="881" on="0"/>
        <pt x="828" y="924" on="0"/>
        <pt x="913" y="954" on="0"/>
        <pt x="963" y="954" on="1"/>
      </contour>
    </TTGlyph>
    <TTGlyph name="integral" xMin="37" yMin="-387" xMax="735" yMax="1671">
      <contour>
        <pt x="330" y="1153" on="1"/>
        <pt x="330" y="1228" on="0"/>
        <pt x="337" y="1342" on="0"/>
        <pt x="357" y="1469" on="0"/>
        <pt x="397" y="1558" on="0"/>
        <pt x="457" y="1633" on="0"/>
        <pt x="551" y="1671" on="0"/>
        <pt x="613" y="1671" on="1"/>
        <pt x="677" y="1671" on="0"/>
        <pt x="735" y="1651" on="1"/>
        <pt x="709" y="1548" on="1"/>
        <pt x="664" y="1565" on="0"/>
        <pt x="572" y="1565" on="0"/>
        <pt x="508" y="1532" on="0"/>
        <pt x="467" y="1471" on="0"/>
        <pt x="445" y="1364" on="0"/>
        <pt x="437" y="1240" on="0"/>
        <pt x="437" y="1147" on="1"/>
        <pt x="437" y="1058" on="0"/>
        <pt x="446" y="221" on="0"/>
        <pt x="446" y="133" on="1"/>
        <pt x="446" y="40" on="0"/>
        <pt x="436" y="-97" on="0"/>
        <pt x="401" y="-240" on="0"/>
        <pt x="342" y="-330" on="0"/>
        <pt x="239" y="-387" on="0"/>
        <pt x="97" y="-387" on="0"/>
        <pt x="37" y="-367" on="1"/>
        <pt x="62" y="-260" on="1"/>
        <pt x="110" y="-279" on="0"/>
        <pt x="159" y="-279" on="1"/>
        <pt x="267" y="-279" on="0"/>
        <pt x="339" y="-88" on="0"/>
        <pt x="339" y="135" on="1"/>
        <pt x="339" y="224" on="0"/>
        <pt x="329" y="1064" on="0"/>
        <pt x="329" y="1153" on="1"/>
      </contour>
    </TTGlyph>
    <TTGlyph name="iogonek" xMin="118" yMin="-329" xMax="630" yMax="1356">
      <component glyphName="ogonek" x="-191" y="128" flags="0x1004"/>
      <component glyphName="i" x="0" y="0" flags="0x1204"/>
    </TTGlyph>
    <TTGlyph name="itilde" xMin="41" yMin="0" xMax="678" yMax="1375">
      <component glyphName="tilde" x="-81" y="691" flags="0x1004"/>
      <component glyphName="dotlessi" x="0" y="0" flags="0x1204"/>
    </TTGlyph>
    <TTGlyph name="j" xMin="38" yMin="-295" xMax="491" yMax="1356">
      <contour>
        <pt x="202" y="-182" on="1"/>
        <pt x="284" y="-182" on="0"/>
        <pt x="339" y="-90" on="0"/>
        <pt x="339" y="28" on="1"/>
        <pt x="339" y="895" on="1"/>
        <pt x="115" y="895" on="1"/>
        <pt x="115" y="985" on="1"/>
        <pt x="467" y="985" on="1"/>
        <pt x="467" y="18" on="1"/>
        <pt x="467" y="-145" on="0"/>
        <pt x="337" y="-295" on="0"/>
        <pt x="206" y="-295" on="1"/>
        <pt x="107" y="-295" on="0"/>
        <pt x="38" y="-275" on="1"/>
        <pt x="54" y="-166" on="1"/>
        <pt x="119" y="-182" on="0"/>
      </contour>
      <contour>
        <pt x="310" y="1264" on="1"/>
        <pt x="310" y="1306" on="0"/>
        <pt x="362" y="1356" on="0"/>
        <pt x="401" y="1356" on="1"/>
        <pt x="442" y="1356" on="0"/>
        <pt x="491" y="1310" on="0"/>
        <pt x="491" y="1222" on="0"/>
        <pt x="442" y="1176" on="0"/>
        <pt x="401" y="1176" on="1"/>
        <pt x="361" y="1176" on="0"/>
        <pt x="310" y="1223" on="0"/>
      </contour>
    </TTGlyph>
    <TTGlyph name="jcircumflex" xMin="-46" yMin="-295" xMax="551" yMax="1504">
      <component glyphName="circumflex" x="-182" y="141" flags="0x1004"/>
      <component glyphName="uni0237" x="0" y="0" flags="0x1204"/>
    </TTGlyph>
    <TTGlyph name="k" xMin="140" yMin="0" xMax="908" yMax="1358">
      <contour>
        <pt x="140" y="0" on="1"/>
        <pt x="140" y="1358" on="1"/>
        <pt x="268" y="1358" on="1"/>
        <pt x="268" y="494" on="1"/>
        <pt x="573" y="820" on="0"/>
        <pt x="719" y="985" on="1"/>
        <pt x="872" y="985" on="1"/>
        <pt x="456" y="522" on="1"/>
        <pt x="908" y="0" on="1"/>
        <pt x="760" y="0" on="1"/>
        <pt x="674" y="96" on="0"/>
        <pt x="487" y="310" on="0"/>
        <pt x="436" y="370" on="1"/>
        <pt x="385" y="429" on="1"/>
        <pt x="359" y="458" on="1"/>
        <pt x="268" y="377" on="1"/>
        <pt x="268" y="0" on="1"/>
      </contour>
    </TTGlyph>
    <TTGlyph name="kcommaaccent" xMin="140" yMin="-647" xMax="908" yMax="1358">
      <component glyphName="comma" x="314" y="-373" flags="0x1004"/>
      <component glyphName="k" x="0" y="0" flags="0x1204"/>
    </TTGlyph>
    <TTGlyph name="kgreenlandic" xMin="140" yMin="0" xMax="921" yMax="985">
      <contour>
        <pt x="140" y="0" on="1"/>
        <pt x="140" y="985" on="1"/>
        <pt x="268" y="985" on="1"/>
        <pt x="268" y="481" on="1"/>
        <pt x="579" y="823" on="0"/>
        <pt x="719" y="985" on="1"/>
        <pt x="885" y="985" on="1"/>
        <pt x="457" y="504" on="1"/>
        <pt x="921" y="0" on="1"/>
        <pt x="760" y="0" on="1"/>
        <pt x="674" y="93" on="0"/>
        <pt x="487" y="301" on="0"/>
        <pt x="436" y="358" on="1"/>
        <pt x="385" y="416" on="1"/>
        <pt x="359" y="445" on="1"/>
        <pt x="268" y="364" on="1"/>
        <pt x="268" y="0" on="1"/>
      </contour>
    </TTGlyph>
    <TTGlyph name="l" xMin="70" yMin="0" xMax="632" yMax="1358">
      <contour>
        <pt x="72" y="1358" on="1"/>
        <pt x="421" y="1358" on="1"/>
        <pt x="421" y="90" on="1"/>
        <pt x="632" y="90" on="1"/>
        <pt x="632" y="0" on="1"/>
        <pt x="70" y="0" on="1"/>
        <pt x="70" y="90" on="1"/>
        <pt x="293" y="90" on="1"/>
        <pt x="293" y="1267" on="1"/>
        <pt x="72" y="1267" on="1"/>
      </contour>
    </TTGlyph>
    <TTGlyph name="lacute" xMin="70" yMin="0" xMax="649" yMax="1911">
      <component glyphName="acute" x="185" y="548" flags="0x1004"/>
      <component glyphName="l" x="0" y="0" flags="0x1204"/>
    </TTGlyph>
    <TTGlyph name="lcaron" xMin="70" yMin="0" xMax="1097" yMax="1358">
      <component glyphName="comma" x="756" y="1148" flags="0x1004"/>
      <component glyphName="l" x="0" y="0" flags="0x1004"/>
    </TTGlyph>
    <TTGlyph name="lcommaaccent" xMin="70" yMin="-647" xMax="632" yMax="1358">
      <component glyphName="comma" x="134" y="-373" flags="0x1004"/>
      <component glyphName="l" x="0" y="0" flags="0x1204"/>
    </TTGlyph>
    <TTGlyph name="ldot" xMin="70" yMin="0" xMax="1057" yMax="1358">
      <component glyphName="periodcentered" x="682" y="0" flags="0x1004"/>
      <component glyphName="l" x="0" y="0" flags="0x1004"/>
    </TTGlyph>
    <TTGlyph name="less" xMin="108" yMin="61" xMax="876" yMax="1116">
      <contour>
        <pt x="233" y="596" on="1"/>
        <pt x="874" y="150" on="1"/>
        <pt x="819" y="61" on="1"/>
        <pt x="108" y="563" on="1"/>
        <pt x="108" y="629" on="1"/>
        <pt x="819" y="1116" on="1"/>
        <pt x="876" y="1030" on="1"/>
      </contour>
    </TTGlyph>
    <TTGlyph name="lessequal" xMin="129" yMin="43" xMax="989" yMax="1161">
      <contour>
        <pt x="940" y="129" on="1"/>
        <pt x="949" y="43" on="1"/>
        <pt x="177" y="43" on="1"/>
        <pt x="168" y="129" on="1"/>
      </contour>
      <contour>
        <pt x="243" y="725" on="1"/>
        <pt x="989" y="369" on="1"/>
        <pt x="968" y="274" on="1"/>
        <pt x="129" y="680" on="1"/>
        <pt x="129" y="768" on="1"/>
        <pt x="968" y="1161" on="1"/>
        <pt x="989" y="1065" on="1"/>
      </contour>
    </TTGlyph>
    <TTGlyph name="logicalnot" xMin="148" yMin="322" xMax="999" yMax="831">
      <contour>
        <pt x="148" y="725" on="1"/>
        <pt x="148" y="831" on="1"/>
        <pt x="999" y="831" on="1"/>
        <pt x="999" y="322" on="1"/>
        <pt x="881" y="322" on="1"/>
        <pt x="881" y="725" on="1"/>
      </contour>
    </TTGlyph>
    <TTGlyph name="lozenge" xMin="110" yMin="-33" xMax="983" yMax="1477">
      <contour>
        <pt x="547" y="1305" on="1"/>
        <pt x="506" y="1228" on="0"/>
        <pt x="374" y="986" on="1"/>
        <pt x="230" y="723" on="1"/>
        <pt x="377" y="452" on="1"/>
        <pt x="405" y="401" on="0"/>
        <pt x="480" y="265" on="0"/>
        <pt x="530" y="172" on="0"/>
        <pt x="547" y="139" on="1"/>
        <pt x="580" y="203" on="0"/>
        <pt x="717" y="454" on="1"/>
        <pt x="863" y="723" on="1"/>
        <pt x="726" y="973" on="1"/>
        <pt x="651" y="1111" on="0"/>
      </contour>
      <contour>
        <pt x="528" y="-33" on="1"/>
        <pt x="338" y="307" on="0"/>
        <pt x="110" y="721" on="1"/>
        <pt x="528" y="1477" on="1"/>
        <pt x="610" y="1399" on="1"/>
        <pt x="983" y="721" on="1"/>
        <pt x="610" y="47" on="1"/>
      </contour>
    </TTGlyph>
    <TTGlyph name="lslash" xMin="81" yMin="0" xMax="784" yMax="1358">
      <contour>
        <pt x="134" y="1358" on="1"/>
        <pt x="483" y="1358" on="1"/>
        <pt x="483" y="810" on="1"/>
        <pt x="726" y="1000" on="1"/>
        <pt x="784" y="923" on="1"/>
        <pt x="483" y="688" on="1"/>
        <pt x="483" y="90" on="1"/>
        <pt x="694" y="90" on="1"/>
        <pt x="694" y="0" on="1"/>
        <pt x="132" y="0" on="1"/>
        <pt x="132" y="90" on="1"/>
        <pt x="355" y="90" on="1"/>
        <pt x="355" y="589" on="1"/>
        <pt x="139" y="420" on="1"/>
        <pt x="81" y="498" on="1"/>
        <pt x="355" y="711" on="1"/>
        <pt x="355" y="1267" on="1"/>
        <pt x="134" y="1267" on="1"/>
      </contour>
    </TTGlyph>
    <TTGlyph name="m" xMin="140" yMin="0" xMax="1373" yMax="1000">
      <contour>
        <pt x="1080" y="1000" on="1"/>
        <pt x="1221" y="1000" on="0"/>
        <pt x="1373" y="835" on="0"/>
        <pt x="1373" y="671" on="1"/>
        <pt x="1373" y="0" on="1"/>
        <pt x="1245" y="0" on="1"/>
        <pt x="1245" y="672" on="1"/>
        <pt x="1245" y="895" on="0"/>
        <pt x="1084" y="895" on="1"/>
        <pt x="920" y="895" on="0"/>
        <pt x="817" y="830" on="1"/>
        <pt x="819" y="818" on="0"/>
        <pt x="829" y="706" on="0"/>
        <pt x="829" y="664" on="1"/>
        <pt x="829" y="0" on="1"/>
        <pt x="701" y="0" on="1"/>
        <pt x="701" y="668" on="1"/>
        <pt x="701" y="789" on="0"/>
        <pt x="631" y="895" on="0"/>
        <pt x="543" y="896" on="1"/>
        <pt x="541" y="896" on="1"/>
        <pt x="487" y="896" on="0"/>
        <pt x="337" y="861" on="0"/>
        <pt x="268" y="823" on="1"/>
        <pt x="268" y="0" on="1"/>
        <pt x="140" y="0" on="1"/>
        <pt x="140" y="985" on="1"/>
        <pt x="258" y="985" on="1"/>
        <pt x="263" y="922" on="1"/>
        <pt x="404" y="1000" on="0"/>
        <pt x="560" y="1000" on="1"/>
        <pt x="715" y="1000" on="0"/>
        <pt x="770" y="918" on="1"/>
        <pt x="922" y="1000" on="0"/>
      </contour>
    </TTGlyph>
    <TTGlyph name="macron" xMin="64" yMin="1078" xMax="544" yMax="1184">
      <contour>
        <pt x="64" y="1078" on="1"/>
        <pt x="64" y="1184" on="1"/>
        <pt x="544" y="1184" on="1"/>
        <pt x="544" y="1078" on="1"/>
      </contour>
    </TTGlyph>
    <TTGlyph name="minus" xMin="114" yMin="449" xMax="633" yMax="565">
      <component glyphName="hyphen" x="0" y="0" flags="0x1204"/>
    </TTGlyph>
    <TTGlyph name="mu" xMin="132" yMin="-328" xMax="839" yMax="985">
      <contour>
        <pt x="132" y="-309" on="1"/>
        <pt x="160" y="-212" on="0"/>
        <pt x="160" y="-66" on="1"/>
        <pt x="160" y="985" on="1"/>
        <pt x="271" y="985" on="1"/>
        <pt x="271" y="344" on="1"/>
        <pt x="271" y="216" on="0"/>
        <pt x="356" y="92" on="0"/>
        <pt x="454" y="92" on="1"/>
        <pt x="526" y="92" on="0"/>
        <pt x="633" y="131" on="0"/>
        <pt x="711" y="180" on="1"/>
        <pt x="730" y="317" on="0"/>
        <pt x="730" y="414" on="1"/>
        <pt x="730" y="985" on="1"/>
        <pt x="839" y="985" on="1"/>
        <pt x="839" y="0" on="1"/>
        <pt x="733" y="0" on="1"/>
        <pt x="733" y="100" on="1"/>
        <pt x="648" y="43" on="1"/>
        <pt x="541" y="-23" on="0"/>
        <pt x="441" y="-23" on="1"/>
        <pt x="385" y="-23" on="0"/>
        <pt x="289" y="19" on="0"/>
        <pt x="262" y="55" on="1"/>
        <pt x="268" y="-68" on="1"/>
        <pt x="268" y="-241" on="0"/>
        <pt x="231" y="-328" on="1"/>
        <pt x="133" y="-309" on="1"/>
      </contour>
    </TTGlyph>
    <TTGlyph name="multiply" xMin="166" yMin="261" xMax="829" yMax="925">
      <contour>
        <pt x="755" y="925" on="1"/>
        <pt x="829" y="851" on="1"/>
        <pt x="572" y="593" on="1"/>
        <pt x="829" y="335" on="1"/>
        <pt x="755" y="261" on="1"/>
        <pt x="497" y="519" on="1"/>
        <pt x="240" y="261" on="1"/>
        <pt x="166" y="335" on="1"/>
        <pt x="423" y="593" on="1"/>
        <pt x="166" y="851" on="1"/>
        <pt x="240" y="925" on="1"/>
        <pt x="498" y="667" on="1"/>
      </contour>
    </TTGlyph>
    <TTGlyph name="n" xMin="140" yMin="0" xMax="857" yMax="1000">
      <contour>
        <pt x="268" y="822" on="1"/>
        <pt x="268" y="0" on="1"/>
        <pt x="140" y="0" on="1"/>
        <pt x="140" y="985" on="1"/>
        <pt x="245" y="985" on="1"/>
        <pt x="254" y="921" on="1"/>
        <pt x="352" y="967" on="0"/>
        <pt x="484" y="1000" on="0"/>
        <pt x="560" y="1000" on="1"/>
        <pt x="712" y="1000" on="0"/>
        <pt x="857" y="834" on="0"/>
        <pt x="857" y="663" on="1"/>
        <pt x="857" y="0" on="1"/>
        <pt x="729" y="0" on="1"/>
        <pt x="729" y="668" on="1"/>
        <pt x="729" y="790" on="0"/>
        <pt x="652" y="895" on="0"/>
        <pt x="553" y="895" on="1"/>
        <pt x="401" y="895" on="0"/>
      </contour>
    </TTGlyph>
    <TTGlyph name="nacute" xMin="140" yMin="0" xMax="857" yMax="1553">
      <component glyphName="acute" x="333" y="190" flags="0x1004"/>
      <component glyphName="n" x="0" y="0" flags="0x1204"/>
    </TTGlyph>
    <TTGlyph name="napostrophe" xMin="140" yMin="0" xMax="857" yMax="1577">
      <component glyphName="comma" x="-7" y="1367" flags="0x1004"/>
      <component glyphName="n" x="0" y="0" flags="0x1004"/>
    </TTGlyph>
    <TTGlyph name="ncaron" xMin="140" yMin="0" xMax="857" yMax="1533">
      <component glyphName="caron" x="334" y="170" flags="0x1004"/>
      <component glyphName="n" x="0" y="0" flags="0x1204"/>
    </TTGlyph>
    <TTGlyph name="ncommaaccent" xMin="140" yMin="-647" xMax="857" yMax="1000">
      <component glyphName="comma" x="281" y="-373" flags="0x1004"/>
      <component glyphName="n" x="0" y="0" flags="0x1204"/>
    </TTGlyph>
    <TTGlyph name="nine" xMin="96" yMin="-10" xMax="848" yMax="1301">
      <contour>
        <pt x="720" y="763" on="1"/>
        <pt x="720" y="984" on="0"/>
        <pt x="602" y="1195" on="0"/>
        <pt x="470" y="1195" on="1"/>
        <pt x="344" y="1195" on="0"/>
        <pt x="224" y="1038" on="0"/>
        <pt x="224" y="870" on="1"/>
        <pt x="224" y="719" on="0"/>
        <pt x="335" y="577" on="0"/>
        <pt x="445" y="577" on="1"/>
        <pt x="511" y="577" on="0"/>
        <pt x="631" y="622" on="0"/>
        <pt x="720" y="679" on="1"/>
      </contour>
      <contour>
        <pt x="713" y="565" on="1"/>
        <pt x="637" y="511" on="0"/>
        <pt x="505" y="467" on="0"/>
        <pt x="430" y="467" on="1"/>
        <pt x="281" y="467" on="0"/>
        <pt x="96" y="672" on="0"/>
        <pt x="96" y="871" on="1"/>
        <pt x="96" y="1075" on="0"/>
        <pt x="291" y="1301" on="0"/>
        <pt x="465" y="1301" on="1"/>
        <pt x="665" y="1301" on="0"/>
        <pt x="848" y="1021" on="0"/>
        <pt x="848" y="741" on="1"/>
        <pt x="848" y="537" on="0"/>
        <pt x="768" y="250" on="0"/>
        <pt x="607" y="80" on="0"/>
        <pt x="393" y="-1" on="0"/>
        <pt x="245" y="-10" on="1"/>
        <pt x="224" y="96" on="1"/>
        <pt x="349" y="99" on="0"/>
        <pt x="540" y="174" on="0"/>
        <pt x="656" y="303" on="0"/>
        <pt x="713" y="467" on="0"/>
      </contour>
    </TTGlyph>
    <TTGlyph name="notequal" xMin="128" yMin="53" xMax="1021" yMax="1085">
      <contour>
        <pt x="712" y="715" on="1"/>
        <pt x="531" y="428" on="1"/>
        <pt x="1021" y="428" on="1"/>
        <pt x="1021" y="334" on="1"/>
        <pt x="471" y="334" on="1"/>
        <pt x="293" y="53" on="1"/>
        <pt x="223" y="111" on="1"/>
        <pt x="369" y="334" on="1"/>
        <pt x="128" y="334" on="1"/>
        <pt x="128" y="428" on="1"/>
        <pt x="428" y="428" on="1"/>
        <pt x="603" y="715" on="1"/>
        <pt x="128" y="715" on="1"/>
        <pt x="128" y="807" on="1"/>
        <pt x="666" y="807" on="1"/>
        <pt x="842" y="1085" on="1"/>
        <pt x="914" y="1030" on="1"/>
        <pt x="771" y="807" on="1"/>
        <pt x="1021" y="807" on="1"/>
        <pt x="1021" y="715" on="1"/>
      </contour>
    </TTGlyph>
    <TTGlyph name="ntilde" xMin="140" yMin="0" xMax="857" yMax="1375">
      <component glyphName="tilde" x="58" y="691" flags="0x1004"/>
      <component glyphName="n" x="0" y="0" flags="0x1204"/>
    </TTGlyph>
    <TTGlyph name="numbersign" xMin="126" yMin="92" xMax="953" yMax="1364">
      <contour>
        <pt x="630" y="553" on="1"/>
        <pt x="674" y="928" on="1"/>
        <pt x="450" y="928" on="1"/>
        <pt x="408" y="553" on="1"/>
      </contour>
      <contour>
        <pt x="720" y="449" on="1"/>
        <pt x="679" y="92" on="1"/>
        <pt x="573" y="92" on="1"/>
        <pt x="615" y="449" on="1"/>
        <pt x="399" y="449" on="1"/>
        <pt x="359" y="92" on="1"/>
        <pt x="252" y="92" on="1"/>
        <pt x="294" y="449" on="1"/>
        <pt x="126" y="449" on="1"/>
        <pt x="126" y="553" on="1"/>
        <pt x="307" y="553" on="1"/>
        <pt x="350" y="928" on="1"/>
        <pt x="162" y="928" on="1"/>
        <pt x="162" y="1030" on="1"/>
        <pt x="360" y="1030" on="1"/>
        <pt x="399" y="1364" on="1"/>
        <pt x="504" y="1364" on="1"/>
        <pt x="466" y="1030" on="1"/>
        <pt x="681" y="1030" on="1"/>
        <pt x="720" y="1364" on="1"/>
        <pt x="823" y="1364" on="1"/>
        <pt x="786" y="1030" on="1"/>
        <pt x="953" y="1030" on="1"/>
        <pt x="953" y="928" on="1"/>
        <pt x="774" y="928" on="1"/>
        <pt x="733" y="553" on="1"/>
        <pt x="918" y="553" on="1"/>
        <pt x="918" y="449" on="1"/>
      </contour>
    </TTGlyph>
    <TTGlyph name="o" xMin="108" yMin="-10" xMax="876" yMax="1000">
      <contour>
        <pt x="687" y="-10" on="0"/>
        <pt x="297" y="-10" on="0"/>
        <pt x="108" y="253" on="0"/>
        <pt x="108" y="495" on="1"/>
        <pt x="108" y="748" on="0"/>
        <pt x="293" y="1000" on="0"/>
        <pt x="691" y="1000" on="0"/>
        <pt x="876" y="748" on="0"/>
        <pt x="876" y="495" on="1"/>
        <pt x="876" y="253" on="0"/>
      </contour>
      <contour>
        <pt x="550" y="895" on="0"/>
        <pt x="434" y="895" on="0"/>
        <pt x="346" y="856" on="0"/>
        <pt x="288" y="788" on="0"/>
        <pt x="251" y="686" on="0"/>
        <pt x="236" y="568" on="0"/>
        <pt x="236" y="495" on="1"/>
        <pt x="236" y="401" on="0"/>
        <pt x="260" y="262" on="0"/>
        <pt x="317" y="152" on="0"/>
        <pt x="419" y="96" on="0"/>
        <pt x="565" y="96" on="0"/>
        <pt x="667" y="152" on="0"/>
        <pt x="724" y="262" on="0"/>
        <pt x="748" y="401" on="0"/>
        <pt x="748" y="495" on="1"/>
        <pt x="748" y="568" on="0"/>
        <pt x="733" y="686" on="0"/>
        <pt x="696" y="788" on="0"/>
        <pt x="638" y="856" on="0"/>
      </contour>
    </TTGlyph>
    <TTGlyph name="oacute" xMin="108" yMin="-10" xMax="876" yMax="1553">
      <component glyphName="acute" x="326" y="190" flags="0x1004"/>
      <component glyphName="o" x="0" y="0" flags="0x1204"/>
    </TTGlyph>
    <TTGlyph name="obreve" xMin="108" yMin="-10" xMax="876" yMax="1388">
      <component glyphName="breve" x="58" y="132" flags="0x1004"/>
      <component glyphName="o" x="0" y="0" flags="0x1204"/>
    </TTGlyph>
    <TTGlyph name="ocircumflex" xMin="108" yMin="-10" xMax="876" yMax="1504">
      <component glyphName="circumflex" x="58" y="141" flags="0x1004"/>
      <component glyphName="o" x="0" y="0" flags="0x1204"/>
    </TTGlyph>
    <TTGlyph name="odieresis" xMin="108" yMin="-10" xMax="876" yMax="1289">
      <component glyphName="dieresis" x="266" y="163" flags="0x1004"/>
      <component glyphName="o" x="0" y="0" flags="0x1204"/>
    </TTGlyph>
    <TTGlyph name="oe" xMin="108" yMin="-10" xMax="1502" yMax="1000">
      <contour>
        <pt x="1148" y="895" on="1"/>
        <pt x="1022" y="895" on="0"/>
        <pt x="888" y="720" on="0"/>
        <pt x="876" y="559" on="1"/>
        <pt x="1383" y="559" on="1"/>
        <pt x="1383" y="609" on="1"/>
        <pt x="1383" y="740" on="0"/>
        <pt x="1256" y="895" on="0"/>
      </contour>
      <contour>
        <pt x="550" y="895" on="0"/>
        <pt x="434" y="895" on="0"/>
        <pt x="346" y="856" on="0"/>
        <pt x="288" y="788" on="0"/>
        <pt x="251" y="686" on="0"/>
        <pt x="236" y="568" on="0"/>
        <pt x="236" y="495" on="1"/>
        <pt x="236" y="401" on="0"/>
        <pt x="260" y="262" on="0"/>
        <pt x="317" y="152" on="0"/>
        <pt x="419" y="96" on="0"/>
        <pt x="565" y="96" on="0"/>
        <pt x="667" y="152" on="0"/>
        <pt x="724" y="262" on="0"/>
        <pt x="748" y="401" on="0"/>
        <pt x="748" y="495" on="1"/>
        <pt x="748" y="568" on="0"/>
        <pt x="733" y="686" on="0"/>
        <pt x="696" y="788" on="0"/>
        <pt x="638" y="856" on="0"/>
      </contour>
      <contour>
        <pt x="1165" y="96" on="1"/>
        <pt x="1319" y="96" on="0"/>
        <pt x="1445" y="176" on="1"/>
        <pt x="1484" y="75" on="1"/>
        <pt x="1416" y="33" on="0"/>
        <pt x="1248" y="-10" on="0"/>
        <pt x="1172" y="-10" on="1"/>
        <pt x="1052" y="-10" on="0"/>
        <pt x="869" y="94" on="0"/>
        <pt x="815" y="192" on="1"/>
        <pt x="713" y="-10" on="0"/>
        <pt x="492" y="-10" on="1"/>
        <pt x="297" y="-10" on="0"/>
        <pt x="108" y="253" on="0"/>
        <pt x="108" y="495" on="1"/>
        <pt x="108" y="748" on="0"/>
        <pt x="293" y="1000" on="0"/>
        <pt x="492" y="1000" on="1"/>
        <pt x="723" y="1000" on="0"/>
        <pt x="818" y="806" on="1"/>
        <pt x="871" y="900" on="0"/>
        <pt x="1041" y="1000" on="0"/>
        <pt x="1147" y="1000" on="1"/>
        <pt x="1312" y="1000" on="0"/>
        <pt x="1502" y="784" on="0"/>
        <pt x="1502" y="604" on="1"/>
        <pt x="1502" y="563" on="0"/>
        <pt x="1494" y="469" on="1"/>
        <pt x="876" y="469" on="1"/>
        <pt x="877" y="380" on="0"/>
        <pt x="911" y="245" on="0"/>
        <pt x="963" y="164" on="0"/>
        <pt x="1040" y="114" on="0"/>
        <pt x="1118" y="96" on="0"/>
      </contour>
    </TTGlyph>
    <TTGlyph name="ogonek" xMin="361" yMin="-457" xMax="648" yMax="-117">
      <contour>
        <pt x="518" y="-117" on="1"/>
        <pt x="612" y="-117" on="1"/>
        <pt x="569" y="-130" on="0"/>
        <pt x="463" y="-269" on="0"/>
        <pt x="463" y="-319" on="1"/>
        <pt x="463" y="-371" on="0"/>
        <pt x="543" y="-371" on="1"/>
        <pt x="600" y="-371" on="0"/>
        <pt x="633" y="-351" on="1"/>
        <pt x="648" y="-431" on="1"/>
        <pt x="587" y="-457" on="0"/>
        <pt x="522" y="-457" on="1"/>
        <pt x="452" y="-457" on="0"/>
        <pt x="361" y="-392" on="0"/>
        <pt x="361" y="-329" on="1"/>
        <pt x="361" y="-271" on="0"/>
        <pt x="442" y="-155" on="0"/>
      </contour>
    </TTGlyph>
    <TTGlyph name="ograve" xMin="108" yMin="-10" xMax="876" yMax="1553">
      <component glyphName="grave" x="126" y="190" flags="0x1004"/>
      <component glyphName="o" x="0" y="0" flags="0x1204"/>
    </TTGlyph>
    <TTGlyph name="ohungarumlaut" xMin="108" yMin="-10" xMax="938" yMax="1553">
      <component glyphName="hungarumlaut" x="222" y="190" flags="0x1004"/>
      <component glyphName="o" x="0" y="0" flags="0x1204"/>
    </TTGlyph>
    <TTGlyph name="omacron" xMin="108" yMin="-10" xMax="876" yMax="1269">
      <component glyphName="macron" x="188" y="85" flags="0x1004"/>
      <component glyphName="o" x="0" y="0" flags="0x1204"/>
    </TTGlyph>
    <TTGlyph name="one" xMin="118" yMin="0" xMax="704" yMax="1284">
      <contour>
        <pt x="512" y="100" on="1"/>
        <pt x="704" y="100" on="1"/>
        <pt x="704" y="0" on="1"/>
        <pt x="160" y="0" on="1"/>
        <pt x="160" y="100" on="1"/>
        <pt x="384" y="100" on="1"/>
        <pt x="384" y="1167" on="1"/>
        <pt x="157" y="1061" on="1"/>
        <pt x="119" y="1154" on="1"/>
        <pt x="118" y="1155" on="1"/>
        <pt x="399" y="1284" on="1"/>
        <pt x="512" y="1284" on="1"/>
      </contour>
    </TTGlyph>
    <TTGlyph name="onehalf" xMin="61" yMin="-120" xMax="1614" yMax="1332">
      <component glyphName="fraction" x="386" y="-114" flags="0x1004"/>
      <component glyphName="uni00B2" x="956" y="-279" flags="0x1004"/>
      <component glyphName="uni00B9" x="-28" y="0" flags="0x1004"/>
    </TTGlyph>
    <TTGlyph name="onequarter" xMin="87" yMin="-120" xMax="1769" yMax="1332">
      <contour>
        <pt x="408" y="373" on="1"/>
        <pt x="554" y="373" on="1"/>
        <pt x="554" y="280" on="1"/>
        <pt x="127" y="280" on="1"/>
        <pt x="127" y="373" on="1"/>
        <pt x="296" y="373" on="1"/>
        <pt x="296" y="1085" on="1"/>
        <pt x="131" y="1014" on="1"/>
        <pt x="87" y="1099" on="1"/>
        <pt x="314" y="1196" on="1"/>
        <pt x="408" y="1196" on="1"/>
      </contour>
      <contour>
        <pt x="1138" y="1332" on="1"/>
        <pt x="612" y="-120" on="1"/>
        <pt x="513" y="-114" on="1"/>
        <pt x="1036" y="1332" on="1"/>
      </contour>
      <contour>
        <pt x="1498" y="0" on="1"/>
        <pt x="1498" y="260" on="1"/>
        <pt x="1005" y="260" on="1"/>
        <pt x="1005" y="343" on="1"/>
        <pt x="1363" y="1130" on="1"/>
        <pt x="1477" y="1130" on="1"/>
        <pt x="1128" y="347" on="1"/>
        <pt x="1498" y="347" on="1"/>
        <pt x="1498" y="662" on="1"/>
        <pt x="1609" y="662" on="1"/>
        <pt x="1609" y="347" on="1"/>
        <pt x="1769" y="347" on="1"/>
        <pt x="1769" y="260" on="1"/>
        <pt x="1609" y="260" on="1"/>
        <pt x="1609" y="0" on="1"/>
      </contour>
    </TTGlyph>
    <TTGlyph name="ordfeminine" xMin="128" yMin="680" xMax="605" yMax="1353">
      <contour>
        <pt x="496" y="863" on="1"/>
        <pt x="496" y="1007" on="1"/>
        <pt x="424" y="1004" on="1"/>
        <pt x="409" y="1004" on="1"/>
        <pt x="377" y="1004" on="0"/>
        <pt x="341" y="1002" on="0"/>
        <pt x="290" y="996" on="0"/>
        <pt x="261" y="980" on="0"/>
        <pt x="233" y="955" on="0"/>
        <pt x="220" y="914" on="0"/>
        <pt x="220" y="886" on="1"/>
        <pt x="220" y="821" on="0"/>
        <pt x="274" y="769" on="0"/>
        <pt x="338" y="769" on="1"/>
        <pt x="442" y="769" on="0"/>
      </contour>
      <contour>
        <pt x="359" y="1265" on="1"/>
        <pt x="294" y="1259" on="0"/>
        <pt x="215" y="1229" on="0"/>
        <pt x="191" y="1197" on="1"/>
        <pt x="149" y="1265" on="1"/>
        <pt x="233" y="1353" on="0"/>
        <pt x="379" y="1353" on="1"/>
        <pt x="498" y="1353" on="0"/>
        <pt x="586" y="1233" on="0"/>
        <pt x="586" y="1074" on="1"/>
        <pt x="586" y="845" on="1"/>
        <pt x="586" y="841" on="0"/>
        <pt x="586" y="829" on="0"/>
        <pt x="586" y="824" on="0"/>
        <pt x="586" y="815" on="0"/>
        <pt x="587" y="811" on="0"/>
        <pt x="588" y="804" on="0"/>
        <pt x="590" y="800" on="0"/>
        <pt x="592" y="795" on="0"/>
        <pt x="596" y="791" on="0"/>
        <pt x="598" y="789" on="1"/>
        <pt x="605" y="693" on="1"/>
        <pt x="554" y="683" on="0"/>
        <pt x="536" y="683" on="1"/>
        <pt x="507" y="707" on="0"/>
        <pt x="503" y="762" on="1"/>
        <pt x="415" y="680" on="0"/>
        <pt x="316" y="680" on="1"/>
        <pt x="226" y="680" on="0"/>
        <pt x="128" y="785" on="0"/>
        <pt x="128" y="881" on="1"/>
        <pt x="128" y="985" on="0"/>
        <pt x="237" y="1080" on="0"/>
        <pt x="349" y="1085" on="1"/>
        <pt x="366" y="1085" on="0"/>
        <pt x="483" y="1083" on="0"/>
        <pt x="496" y="1083" on="1"/>
        <pt x="495" y="1123" on="0"/>
        <pt x="491" y="1171" on="0"/>
        <pt x="478" y="1221" on="0"/>
        <pt x="453" y="1247" on="0"/>
        <pt x="411" y="1264" on="0"/>
        <pt x="381" y="1264" on="1"/>
        <pt x="360" y="1264" on="1"/>
      </contour>
    </TTGlyph>
    <TTGlyph name="ordmasculine" xMin="123" yMin="679" xMax="626" yMax="1350">
      <contour>
        <pt x="373" y="1349" on="1"/>
        <pt x="506" y="1349" on="0"/>
        <pt x="626" y="1185" on="0"/>
        <pt x="626" y="1017" on="1"/>
        <pt x="626" y="852" on="0"/>
        <pt x="506" y="679" on="0"/>
        <pt x="373" y="679" on="1"/>
        <pt x="123" y="679" on="0"/>
        <pt x="123" y="1015" on="1"/>
        <pt x="123" y="1350" on="0"/>
        <pt x="373" y="1350" on="1"/>
      </contour>
      <contour>
        <pt x="534" y="1016" on="1"/>
        <pt x="534" y="1149" on="0"/>
        <pt x="466" y="1264" on="0"/>
        <pt x="373" y="1264" on="1"/>
        <pt x="281" y="1264" on="0"/>
        <pt x="215" y="1152" on="0"/>
        <pt x="215" y="1016" on="1"/>
        <pt x="215" y="888" on="0"/>
        <pt x="281" y="768" on="0"/>
        <pt x="373" y="768" on="1"/>
        <pt x="468" y="768" on="0"/>
        <pt x="534" y="880" on="0"/>
      </contour>
    </TTGlyph>
    <TTGlyph name="oslash" xMin="108" yMin="-10" xMax="876" yMax="1000">
      <component glyphName="o" x="0" y="0" flags="0x1004"/>
    </TTGlyph>
    <TTGlyph name="otilde" xMin="108" yMin="-10" xMax="876" yMax="1375">
      <component glyphName="tilde" x="52" y="691" flags="0x1004"/>
      <component glyphName="o" x="0" y="0" flags="0x1204"/>
    </TTGlyph>
    <TTGlyph name="p" xMin="140" yMin="-389" xMax="876" yMax="1000">
      <contour>
        <pt x="268" y="43" on="1"/>
        <pt x="268" y="-389" on="1"/>
        <pt x="140" y="-389" on="1"/>
        <pt x="140" y="985" on="1"/>
        <pt x="245" y="985" on="1"/>
        <pt x="257" y="916" on="1"/>
        <pt x="386" y="1000" on="0"/>
        <pt x="540" y="1000" on="1"/>
        <pt x="697" y="1000" on="0"/>
        <pt x="876" y="752" on="0"/>
        <pt x="876" y="493" on="1"/>
        <pt x="876" y="225" on="0"/>
        <pt x="694" y="-10" on="0"/>
        <pt x="510" y="-10" on="1"/>
        <pt x="375" y="-10" on="0"/>
      </contour>
      <contour>
        <pt x="268" y="809" on="1"/>
        <pt x="268" y="137" on="1"/>
        <pt x="356" y="96" on="0"/>
        <pt x="463" y="96" on="1"/>
        <pt x="492" y="96" on="1"/>
        <pt x="628" y="96" on="0"/>
        <pt x="748" y="279" on="0"/>
        <pt x="748" y="491" on="1"/>
        <pt x="748" y="699" on="0"/>
        <pt x="641" y="895" on="0"/>
        <pt x="524" y="895" on="1"/>
        <pt x="417" y="895" on="0"/>
      </contour>
    </TTGlyph>
    <TTGlyph name="paragraph" xMin="121" yMin="0" xMax="889" yMax="1301">
      <contour>
        <pt x="564" y="547" on="1"/>
        <pt x="564" y="1242" on="1"/>
        <pt x="515" y="1242" on="0"/>
        <pt x="442" y="1237" on="0"/>
        <pt x="359" y="1220" on="0"/>
        <pt x="300" y="1191" on="0"/>
        <pt x="242" y="1140" on="0"/>
        <pt x="207" y="1070" on="0"/>
        <pt x="186" y="968" on="0"/>
        <pt x="186" y="904" on="1"/>
        <pt x="186" y="825" on="0"/>
        <pt x="219" y="708" on="0"/>
        <pt x="277" y="630" on="0"/>
        <pt x="374" y="579" on="0"/>
        <pt x="487" y="553" on="0"/>
      </contour>
      <contour>
        <pt x="889" y="0" on="1"/>
        <pt x="824" y="0" on="1"/>
        <pt x="824" y="1241" on="1"/>
        <pt x="629" y="1241" on="1"/>
        <pt x="629" y="0" on="1"/>
        <pt x="564" y="0" on="1"/>
        <pt x="564" y="482" on="1"/>
        <pt x="454" y="491" on="0"/>
        <pt x="304" y="535" on="0"/>
        <pt x="181" y="627" on="0"/>
        <pt x="121" y="788" on="0"/>
        <pt x="121" y="906" on="1"/>
        <pt x="121" y="1021" on="0"/>
        <pt x="179" y="1177" on="0"/>
        <pt x="298" y="1265" on="0"/>
        <pt x="454" y="1301" on="0"/>
        <pt x="564" y="1301" on="1"/>
        <pt x="889" y="1301" on="1"/>
      </contour>
    </TTGlyph>
    <TTGlyph name="parenleft" xMin="74" yMin="-307" xMax="461" yMax="1604">
      <contour>
        <pt x="382" y="-305" on="1"/>
        <pt x="230" y="-103" on="0"/>
        <pt x="74" y="390" on="0"/>
        <pt x="74" y="910" on="0"/>
        <pt x="230" y="1402" on="0"/>
        <pt x="382" y="1604" on="1"/>
        <pt x="461" y="1528" on="1"/>
        <pt x="335" y="1337" on="0"/>
        <pt x="205" y="882" on="0"/>
        <pt x="205" y="645" on="1"/>
        <pt x="205" y="409" on="0"/>
        <pt x="335" y="-42" on="0"/>
        <pt x="461" y="-231" on="1"/>
        <pt x="382" y="-307" on="1"/>
      </contour>
    </TTGlyph>
    <TTGlyph name="parenright" xMin="62" yMin="-307" xMax="449" yMax="1604">
      <contour>
        <pt x="141" y="-305" on="1"/>
        <pt x="141" y="-307" on="1"/>
        <pt x="62" y="-231" on="1"/>
        <pt x="188" y="-42" on="0"/>
        <pt x="318" y="409" on="0"/>
        <pt x="318" y="645" on="1"/>
        <pt x="318" y="882" on="0"/>
        <pt x="188" y="1337" on="0"/>
        <pt x="62" y="1528" on="1"/>
        <pt x="141" y="1604" on="1"/>
        <pt x="293" y="1402" on="0"/>
        <pt x="449" y="910" on="0"/>
        <pt x="449" y="390" on="0"/>
        <pt x="293" y="-103" on="0"/>
      </contour>
    </TTGlyph>
    <TTGlyph name="partialdiff" xMin="125" yMin="-14" xMax="774" yMax="1286">
      <contour>
        <pt x="440" y="714" on="1"/>
        <pt x="329" y="714" on="0"/>
        <pt x="232" y="562" on="0"/>
        <pt x="232" y="407" on="1"/>
        <pt x="232" y="87" on="0"/>
        <pt x="447" y="87" on="1"/>
        <pt x="563" y="87" on="0"/>
        <pt x="666" y="241" on="0"/>
        <pt x="666" y="396" on="1"/>
        <pt x="666" y="545" on="0"/>
        <pt x="552" y="714" on="0"/>
      </contour>
      <contour>
        <pt x="447" y="-13" on="1"/>
        <pt x="287" y="-13" on="0"/>
        <pt x="125" y="209" on="0"/>
        <pt x="125" y="407" on="1"/>
        <pt x="125" y="814" on="0"/>
        <pt x="445" y="814" on="1"/>
        <pt x="586" y="814" on="0"/>
        <pt x="666" y="683" on="1"/>
        <pt x="625" y="844" on="0"/>
        <pt x="534" y="1024" on="0"/>
        <pt x="456" y="1084" on="1"/>
        <pt x="403" y="1124" on="0"/>
        <pt x="274" y="1190" on="1"/>
        <pt x="315" y="1286" on="1"/>
        <pt x="566" y="1177" on="0"/>
        <pt x="774" y="780" on="0"/>
        <pt x="774" y="412" on="1"/>
        <pt x="774" y="-14" on="0"/>
        <pt x="447" y="-14" on="1"/>
      </contour>
    </TTGlyph>
    <TTGlyph name="percent" xMin="69" yMin="-44" xMax="1404" yMax="1368">
      <contour>
        <pt x="493" y="939" on="0"/>
        <pt x="493" y="1115" on="0"/>
        <pt x="398" y="1211" on="0"/>
        <pt x="331" y="1211" on="1"/>
        <pt x="265" y="1211" on="0"/>
        <pt x="167" y="1113" on="0"/>
        <pt x="167" y="1027" on="1"/>
        <pt x="167" y="938" on="0"/>
        <pt x="264" y="840" on="0"/>
        <pt x="331" y="840" on="1"/>
        <pt x="397" y="840" on="0"/>
      </contour>
      <contour>
        <pt x="590" y="1157" on="0"/>
        <pt x="590" y="897" on="0"/>
        <pt x="436" y="752" on="0"/>
        <pt x="331" y="752" on="1"/>
        <pt x="225" y="752" on="0"/>
        <pt x="69" y="898" on="0"/>
        <pt x="69" y="1027" on="1"/>
        <pt x="69" y="1157" on="0"/>
        <pt x="225" y="1301" on="0"/>
        <pt x="437" y="1301" on="0"/>
      </contour>
      <contour>
        <pt x="994" y="1368" on="1"/>
        <pt x="1088" y="1337" on="1"/>
        <pt x="522" y="-44" on="1"/>
        <pt x="432" y="-10" on="1"/>
      </contour>
      <contour>
        <pt x="1306" y="177" on="0"/>
        <pt x="1306" y="353" on="0"/>
        <pt x="1211" y="449" on="0"/>
        <pt x="1144" y="449" on="1"/>
        <pt x="1078" y="449" on="0"/>
        <pt x="980" y="351" on="0"/>
        <pt x="980" y="265" on="1"/>
        <pt x="980" y="176" on="0"/>
        <pt x="1077" y="78" on="0"/>
        <pt x="1144" y="78" on="1"/>
        <pt x="1210" y="78" on="0"/>
      </contour>
      <contour>
        <pt x="1404" y="395" on="0"/>
        <pt x="1404" y="135" on="0"/>
        <pt x="1249" y="-10" on="0"/>
        <pt x="1144" y="-10" on="1"/>
        <pt x="1038" y="-10" on="0"/>
        <pt x="882" y="136" on="0"/>
        <pt x="882" y="265" on="1"/>
        <pt x="882" y="395" on="0"/>
        <pt x="1038" y="539" on="0"/>
        <pt x="1250" y="539" on="0"/>
      </contour>
    </TTGlyph>
    <TTGlyph name="period" xMin="145" yMin="0" xMax="305" yMax="202">
      <contour>
        <pt x="305" y="202" on="1"/>
        <pt x="305" y="0" on="1"/>
        <pt x="145" y="0" on="1"/>
        <pt x="145" y="202" on="1"/>
      </contour>
    </TTGlyph>
    <TTGlyph name="periodcentered" xMin="215" yMin="554" xMax="375" yMax="746">
      <contour>
        <pt x="375" y="746" on="1"/>
        <pt x="375" y="554" on="1"/>
        <pt x="215" y="554" on="1"/>
        <pt x="215" y="746" on="1"/>
      </contour>
    </TTGlyph>
    <TTGlyph name="perthousand" xMin="68" yMin="-44" xMax="2045" yMax="1368">
      <contour>
        <pt x="1948" y="177" on="0"/>
        <pt x="1948" y="353" on="0"/>
        <pt x="1853" y="449" on="0"/>
        <pt x="1786" y="449" on="1"/>
        <pt x="1720" y="449" on="0"/>
        <pt x="1622" y="351" on="0"/>
        <pt x="1622" y="265" on="1"/>
        <pt x="1622" y="176" on="0"/>
        <pt x="1719" y="78" on="0"/>
        <pt x="1786" y="78" on="1"/>
        <pt x="1852" y="78" on="0"/>
      </contour>
      <contour>
        <pt x="2045" y="395" on="0"/>
        <pt x="2045" y="135" on="0"/>
        <pt x="1891" y="-10" on="0"/>
        <pt x="1786" y="-10" on="1"/>
        <pt x="1680" y="-10" on="0"/>
        <pt x="1524" y="136" on="0"/>
        <pt x="1524" y="265" on="1"/>
        <pt x="1524" y="395" on="0"/>
        <pt x="1680" y="539" on="0"/>
        <pt x="1892" y="539" on="0"/>
      </contour>
      <contour>
        <pt x="492" y="939" on="0"/>
        <pt x="492" y="1115" on="0"/>
        <pt x="397" y="1211" on="0"/>
        <pt x="330" y="1211" on="1"/>
        <pt x="264" y="1211" on="0"/>
        <pt x="166" y="1113" on="0"/>
        <pt x="166" y="1027" on="1"/>
        <pt x="166" y="938" on="0"/>
        <pt x="263" y="840" on="0"/>
        <pt x="330" y="840" on="1"/>
        <pt x="396" y="840" on="0"/>
      </contour>
      <contour>
        <pt x="589" y="1157" on="0"/>
        <pt x="589" y="897" on="0"/>
        <pt x="435" y="752" on="0"/>
        <pt x="330" y="752" on="1"/>
        <pt x="224" y="752" on="0"/>
        <pt x="68" y="898" on="0"/>
        <pt x="68" y="1027" on="1"/>
        <pt x="68" y="1157" on="0"/>
        <pt x="224" y="1301" on="0"/>
        <pt x="436" y="1301" on="0"/>
      </contour>
      <contour>
        <pt x="992" y="1368" on="1"/>
        <pt x="1086" y="1337" on="1"/>
        <pt x="522" y="-44" on="1"/>
        <pt x="430" y="-10" on="1"/>
      </contour>
      <contour>
        <pt x="1306" y="177" on="0"/>
        <pt x="1306" y="353" on="0"/>
        <pt x="1211" y="449" on="0"/>
        <pt x="1144" y="449" on="1"/>
        <pt x="1078" y="449" on="0"/>
        <pt x="980" y="351" on="0"/>
        <pt x="980" y="265" on="1"/>
        <pt x="980" y="176" on="0"/>
        <pt x="1077" y="78" on="0"/>
        <pt x="1144" y="78" on="1"/>
        <pt x="1210" y="78" on="0"/>
      </contour>
      <contour>
        <pt x="1402" y="395" on="0"/>
        <pt x="1402" y="135" on="0"/>
        <pt x="1249" y="-10" on="0"/>
        <pt x="1144" y="-10" on="1"/>
        <pt x="1038" y="-10" on="0"/>
        <pt x="882" y="136" on="0"/>
        <pt x="882" y="265" on="1"/>
        <pt x="882" y="395" on="0"/>
        <pt x="1038" y="539" on="0"/>
        <pt x="1250" y="539" on="0"/>
      </contour>
    </TTGlyph>
    <TTGlyph name="pi" xMin="113" yMin="0" xMax="1084" yMax="1019">
      <contour>
        <pt x="114" y="1000" on="1"/>
        <pt x="218" y="1019" on="0"/>
        <pt x="382" y="1019" on="1"/>
        <pt x="1084" y="1019" on="1"/>
        <pt x="1084" y="910" on="1"/>
        <pt x="906" y="910" on="1"/>
        <pt x="906" y="280" on="1"/>
        <pt x="906" y="130" on="0"/>
        <pt x="917" y="0" on="1"/>
        <pt x="804" y="0" on="1"/>
        <pt x="793" y="138" on="0"/>
        <pt x="793" y="270" on="1"/>
        <pt x="793" y="909" on="1"/>
        <pt x="435" y="909" on="1"/>
        <pt x="427" y="434" on="0"/>
        <pt x="382" y="0" on="1"/>
        <pt x="269" y="0" on="1"/>
        <pt x="312" y="405" on="0"/>
        <pt x="323" y="909" on="1"/>
        <pt x="208" y="909" on="0"/>
        <pt x="122" y="897" on="1"/>
        <pt x="113" y="999" on="1"/>
      </contour>
    </TTGlyph>
    <TTGlyph name="plus" xMin="110" yMin="176" xMax="884" yMax="1010">
      <contour>
        <pt x="550" y="1010" on="1"/>
        <pt x="550" y="645" on="1"/>
        <pt x="884" y="645" on="1"/>
        <pt x="884" y="541" on="1"/>
        <pt x="550" y="541" on="1"/>
        <pt x="550" y="176" on="1"/>
        <pt x="445" y="176" on="1"/>
        <pt x="445" y="541" on="1"/>
        <pt x="110" y="541" on="1"/>
        <pt x="110" y="645" on="1"/>
        <pt x="445" y="645" on="1"/>
        <pt x="445" y="1010" on="1"/>
      </contour>
    </TTGlyph>
    <TTGlyph name="plusminus" xMin="151" yMin="82" xMax="1024" yMax="1042">
      <contour>
        <pt x="641" y="1042" on="1"/>
        <pt x="641" y="719" on="1"/>
        <pt x="1024" y="719" on="1"/>
        <pt x="1024" y="610" on="1"/>
        <pt x="641" y="610" on="1"/>
        <pt x="641" y="299" on="1"/>
        <pt x="534" y="299" on="1"/>
        <pt x="534" y="610" on="1"/>
        <pt x="151" y="610" on="1"/>
        <pt x="151" y="719" on="1"/>
        <pt x="534" y="719" on="1"/>
        <pt x="534" y="1042" on="1"/>
      </contour>
      <contour>
        <pt x="151" y="82" on="1"/>
        <pt x="151" y="188" on="1"/>
        <pt x="1024" y="188" on="1"/>
        <pt x="1024" y="82" on="1"/>
      </contour>
    </TTGlyph>
    <TTGlyph name="product" xMin="102" yMin="-96" xMax="1094" yMax="1372">
      <contour>
        <pt x="392" y="1260" on="1"/>
        <pt x="392" y="-96" on="1"/>
        <pt x="278" y="-96" on="1"/>
        <pt x="278" y="1260" on="1"/>
        <pt x="102" y="1260" on="1"/>
        <pt x="102" y="1372" on="1"/>
        <pt x="1094" y="1372" on="1"/>
        <pt x="1094" y="1260" on="1"/>
        <pt x="915" y="1260" on="1"/>
        <pt x="915" y="-96" on="1"/>
        <pt x="801" y="-96" on="1"/>
        <pt x="801" y="1260" on="1"/>
      </contour>
    </TTGlyph>
    <TTGlyph name="q" xMin="108" yMin="-389" xMax="844" yMax="1000">
      <contour>
        <pt x="716" y="42" on="1"/>
        <pt x="624" y="-10" on="0"/>
        <pt x="481" y="-10" on="1"/>
        <pt x="296" y="-10" on="0"/>
        <pt x="108" y="226" on="0"/>
        <pt x="108" y="493" on="1"/>
        <pt x="108" y="759" on="0"/>
        <pt x="297" y="1000" on="0"/>
        <pt x="462" y="1000" on="1"/>
        <pt x="529" y="1000" on="0"/>
        <pt x="645" y="967" on="0"/>
        <pt x="717" y="923" on="1"/>
        <pt x="738" y="985" on="1"/>
        <pt x="844" y="985" on="1"/>
        <pt x="844" y="-389" on="1"/>
        <pt x="716" y="-389" on="1"/>
      </contour>
      <contour>
        <pt x="487" y="96" on="1"/>
        <pt x="626" y="96" on="0"/>
        <pt x="716" y="137" on="1"/>
        <pt x="716" y="821" on="1"/>
        <pt x="640" y="865" on="0"/>
        <pt x="531" y="895" on="0"/>
        <pt x="474" y="895" on="1"/>
        <pt x="236" y="895" on="0"/>
        <pt x="236" y="491" on="1"/>
        <pt x="236" y="278" on="0"/>
        <pt x="352" y="96" on="0"/>
      </contour>
    </TTGlyph>
    <TTGlyph name="question" xMin="102" yMin="-6" xMax="766" yMax="1301">
      <contour>
        <pt x="345" y="135" on="1"/>
        <pt x="470" y="135" on="1"/>
        <pt x="470" y="-6" on="1"/>
        <pt x="345" y="-6" on="1"/>
      </contour>
      <contour>
        <pt x="766" y="1005" on="1"/>
        <pt x="766" y="947" on="0"/>
        <pt x="730" y="845" on="0"/>
        <pt x="672" y="767" on="0"/>
        <pt x="602" y="694" on="0"/>
        <pt x="531" y="624" on="0"/>
        <pt x="473" y="553" on="0"/>
        <pt x="437" y="462" on="0"/>
        <pt x="437" y="412" on="1"/>
        <pt x="437" y="391" on="0"/>
        <pt x="444" y="293" on="1"/>
        <pt x="361" y="293" on="1"/>
        <pt x="357" y="305" on="0"/>
        <pt x="347" y="386" on="0"/>
        <pt x="344" y="420" on="1"/>
        <pt x="340" y="455" on="1"/>
        <pt x="340" y="506" on="0"/>
        <pt x="385" y="609" on="0"/>
        <pt x="454" y="690" on="0"/>
        <pt x="533" y="780" on="0"/>
        <pt x="602" y="858" on="0"/>
        <pt x="647" y="953" on="0"/>
        <pt x="647" y="998" on="1"/>
        <pt x="647" y="1084" on="0"/>
        <pt x="549" y="1195" on="0"/>
        <pt x="458" y="1195" on="1"/>
        <pt x="365" y="1195" on="0"/>
        <pt x="226" y="1135" on="0"/>
        <pt x="158" y="1071" on="1"/>
        <pt x="102" y="1151" on="1"/>
        <pt x="157" y="1214" on="0"/>
        <pt x="345" y="1301" on="0"/>
        <pt x="449" y="1301" on="1"/>
        <pt x="590" y="1301" on="0"/>
        <pt x="766" y="1138" on="0"/>
      </contour>
    </TTGlyph>
    <TTGlyph name="questiondown" xMin="102" yMin="-168" xMax="766" yMax="1139">
      <component glyphName="question" x="868" y="1133" scale="-1.0" flags="0x1004"/>
    </TTGlyph>
    <TTGlyph name="quotedbl" xMin="125" yMin="950" xMax="510" yMax="1411">
      <contour>
        <pt x="388" y="1411" on="1"/>
        <pt x="510" y="1411" on="1"/>
        <pt x="503" y="1217" on="1"/>
        <pt x="503" y="950" on="1"/>
        <pt x="388" y="950" on="1"/>
      </contour>
      <contour>
        <pt x="125" y="1411" on="1"/>
        <pt x="246" y="1411" on="1"/>
        <pt x="246" y="1229" on="1"/>
        <pt x="237" y="950" on="1"/>
        <pt x="125" y="950" on="1"/>
      </contour>
    </TTGlyph>
    <TTGlyph name="quotedblbase" xMin="118" yMin="-313" xMax="576" yMax="121">
      <contour>
        <pt x="446" y="121" on="1"/>
        <pt x="576" y="96" on="1"/>
        <pt x="571" y="76" on="0"/>
        <pt x="542" y="-55" on="0"/>
        <pt x="530" y="-96" on="0"/>
        <pt x="502" y="-190" on="0"/>
        <pt x="469" y="-267" on="0"/>
        <pt x="446" y="-313" on="1"/>
        <pt x="378" y="-292" on="1"/>
        <pt x="379" y="-292" on="0"/>
        <pt x="404" y="-147" on="0"/>
        <pt x="437" y="58" on="0"/>
      </contour>
      <contour>
        <pt x="187" y="121" on="1"/>
        <pt x="317" y="96" on="1"/>
        <pt x="312" y="74" on="0"/>
        <pt x="288" y="-29" on="0"/>
        <pt x="279" y="-67" on="0"/>
        <pt x="256" y="-148" on="0"/>
        <pt x="237" y="-200" on="0"/>
        <pt x="206" y="-274" on="0"/>
        <pt x="186" y="-313" on="1"/>
        <pt x="119" y="-292" on="1"/>
        <pt x="118" y="-292" on="1"/>
        <pt x="119" y="-292" on="0"/>
        <pt x="144" y="-147" on="0"/>
        <pt x="178" y="58" on="0"/>
      </contour>
    </TTGlyph>
    <TTGlyph name="quotedblleft" xMin="112" yMin="958" xMax="578" yMax="1397">
      <contour>
        <pt x="508" y="958" on="1"/>
        <pt x="380" y="987" on="1"/>
        <pt x="436" y="1233" on="0"/>
        <pt x="512" y="1397" on="1"/>
        <pt x="578" y="1364" on="1"/>
        <pt x="535" y="1201" on="0"/>
      </contour>
      <contour>
        <pt x="241" y="958" on="1"/>
        <pt x="112" y="987" on="1"/>
        <pt x="168" y="1233" on="0"/>
        <pt x="244" y="1397" on="1"/>
        <pt x="311" y="1364" on="1"/>
        <pt x="268" y="1201" on="0"/>
      </contour>
    </TTGlyph>
    <TTGlyph name="quotedblright" xMin="118" yMin="973" xMax="586" yMax="1407">
      <contour>
        <pt x="187" y="1407" on="1"/>
        <pt x="317" y="1382" on="1"/>
        <pt x="312" y="1360" on="0"/>
        <pt x="288" y="1257" on="0"/>
        <pt x="279" y="1219" on="0"/>
        <pt x="256" y="1138" on="0"/>
        <pt x="237" y="1086" on="0"/>
        <pt x="206" y="1012" on="0"/>
        <pt x="186" y="973" on="1"/>
        <pt x="119" y="994" on="1"/>
        <pt x="118" y="994" on="1"/>
        <pt x="119" y="994" on="0"/>
        <pt x="144" y="1139" on="0"/>
        <pt x="178" y="1344" on="0"/>
      </contour>
      <contour>
        <pt x="456" y="1407" on="1"/>
        <pt x="586" y="1382" on="1"/>
        <pt x="513" y="1060" on="0"/>
        <pt x="454" y="973" on="1"/>
        <pt x="388" y="994" on="1"/>
        <pt x="386" y="994" on="1"/>
        <pt x="387" y="994" on="0"/>
        <pt x="413" y="1139" on="0"/>
        <pt x="447" y="1344" on="0"/>
      </contour>
    </TTGlyph>
    <TTGlyph name="quoteleft" xMin="112" yMin="958" xMax="311" yMax="1397">
      <contour>
        <pt x="241" y="958" on="1"/>
        <pt x="112" y="987" on="1"/>
        <pt x="168" y="1233" on="0"/>
        <pt x="244" y="1397" on="1"/>
        <pt x="311" y="1364" on="1"/>
        <pt x="268" y="1201" on="0"/>
      </contour>
    </TTGlyph>
    <TTGlyph name="quoteright" xMin="118" yMin="973" xMax="317" yMax="1407">
      <contour>
        <pt x="187" y="1407" on="1"/>
        <pt x="317" y="1382" on="1"/>
        <pt x="312" y="1360" on="0"/>
        <pt x="288" y="1257" on="0"/>
        <pt x="279" y="1219" on="0"/>
        <pt x="256" y="1138" on="0"/>
        <pt x="237" y="1086" on="0"/>
        <pt x="206" y="1012" on="0"/>
        <pt x="186" y="973" on="1"/>
        <pt x="119" y="994" on="1"/>
        <pt x="118" y="994" on="1"/>
        <pt x="119" y="994" on="0"/>
        <pt x="144" y="1139" on="0"/>
        <pt x="178" y="1344" on="0"/>
      </contour>
    </TTGlyph>
    <TTGlyph name="quotesinglbase" xMin="118" yMin="-313" xMax="317" yMax="121">
      <contour>
        <pt x="187" y="121" on="1"/>
        <pt x="317" y="96" on="1"/>
        <pt x="312" y="74" on="0"/>
        <pt x="288" y="-29" on="0"/>
        <pt x="279" y="-67" on="0"/>
        <pt x="256" y="-148" on="0"/>
        <pt x="237" y="-200" on="0"/>
        <pt x="206" y="-274" on="0"/>
        <pt x="186" y="-313" on="1"/>
        <pt x="119" y="-292" on="1"/>
        <pt x="118" y="-292" on="1"/>
        <pt x="119" y="-292" on="0"/>
        <pt x="144" y="-147" on="0"/>
        <pt x="178" y="58" on="0"/>
      </contour>
    </TTGlyph>
    <TTGlyph name="quotesingle" xMin="125" yMin="950" xMax="248" yMax="1411">
      <contour>
        <pt x="125" y="1411" on="1"/>
        <pt x="248" y="1411" on="1"/>
        <pt x="239" y="1212" on="1"/>
        <pt x="239" y="950" on="1"/>
        <pt x="125" y="950" on="1"/>
      </contour>
    </TTGlyph>
    <TTGlyph name="r" xMin="146" yMin="0" xMax="589" yMax="1000">
      <contour>
        <pt x="273" y="899" on="1"/>
        <pt x="332" y="939" on="0"/>
        <pt x="513" y="997" on="0"/>
        <pt x="589" y="1000" on="1"/>
        <pt x="589" y="893" on="1"/>
        <pt x="502" y="893" on="0"/>
        <pt x="323" y="840" on="0"/>
        <pt x="274" y="804" on="1"/>
        <pt x="274" y="0" on="1"/>
        <pt x="146" y="0" on="1"/>
        <pt x="146" y="985" on="1"/>
        <pt x="268" y="985" on="1"/>
      </contour>
    </TTGlyph>
    <TTGlyph name="racute" xMin="146" yMin="0" xMax="647" yMax="1553">
      <component glyphName="acute" x="183" y="190" flags="0x1004"/>
      <component glyphName="r" x="0" y="0" flags="0x1204"/>
    </TTGlyph>
    <TTGlyph name="radical" xMin="112" yMin="-8" xMax="983" yMax="1372">
      <contour>
        <pt x="112" y="846" on="1"/>
        <pt x="374" y="885" on="1"/>
        <pt x="556" y="170" on="1"/>
        <pt x="604" y="98" on="1"/>
        <pt x="644" y="299" on="0"/>
        <pt x="792" y="971" on="1"/>
        <pt x="880" y="1372" on="1"/>
        <pt x="983" y="1372" on="1"/>
        <pt x="674" y="-8" on="1"/>
        <pt x="504" y="-8" on="1"/>
        <pt x="293" y="778" on="1"/>
        <pt x="121" y="756" on="1"/>
      </contour>
    </TTGlyph>
    <TTGlyph name="rcaron" xMin="69" yMin="0" xMax="628" yMax="1533">
      <component glyphName="caron" x="184" y="170" flags="0x1004"/>
      <component glyphName="r" x="0" y="0" flags="0x1204"/>
    </TTGlyph>
    <TTGlyph name="rcommaaccent" xMin="146" yMin="-647" xMax="589" yMax="1000">
      <component glyphName="comma" x="132" y="-373" flags="0x1004"/>
      <component glyphName="r" x="0" y="0" flags="0x1204"/>
    </TTGlyph>
    <TTGlyph name="registered" xMin="140" yMin="-5" xMax="1442" yMax="1297">
      <contour>
        <pt x="1027" y="853" on="1"/>
        <pt x="1027" y="886" on="0"/>
        <pt x="1010" y="933" on="0"/>
        <pt x="968" y="965" on="0"/>
        <pt x="921" y="983" on="0"/>
        <pt x="836" y="992" on="0"/>
        <pt x="759" y="995" on="0"/>
        <pt x="697" y="995" on="1"/>
        <pt x="635" y="995" on="1"/>
        <pt x="635" y="703" on="1"/>
        <pt x="670" y="703" on="1"/>
        <pt x="882" y="703" on="0"/>
        <pt x="1027" y="759" on="0"/>
      </contour>
      <contour>
        <pt x="1102" y="273" on="1"/>
        <pt x="1004" y="226" on="1"/>
        <pt x="889" y="455" on="0"/>
        <pt x="826" y="628" on="1"/>
        <pt x="759" y="623" on="0"/>
        <pt x="689" y="623" on="1"/>
        <pt x="635" y="623" on="1"/>
        <pt x="635" y="227" on="1"/>
        <pt x="527" y="227" on="1"/>
        <pt x="527" y="1079" on="1"/>
        <pt x="722" y="1079" on="1"/>
        <pt x="807" y="1079" on="0"/>
        <pt x="923" y="1070" on="0"/>
        <pt x="1033" y="1042" on="0"/>
        <pt x="1096" y="992" on="0"/>
        <pt x="1134" y="909" on="0"/>
        <pt x="1134" y="850" on="1"/>
        <pt x="1134" y="757" on="0"/>
        <pt x="1029" y="656" on="0"/>
        <pt x="926" y="637" on="1"/>
        <pt x="950" y="575" on="0"/>
        <pt x="1038" y="393" on="0"/>
        <pt x="1070" y="333" on="1"/>
      </contour>
      <contour>
        <pt x="237" y="799" on="0"/>
        <pt x="237" y="493" on="0"/>
        <pt x="385" y="235" on="0"/>
        <pt x="640" y="84" on="0"/>
        <pt x="790" y="84" on="1"/>
        <pt x="941" y="84" on="0"/>
        <pt x="1196" y="235" on="0"/>
        <pt x="1345" y="494" on="0"/>
        <pt x="1345" y="798" on="0"/>
        <pt x="1196" y="1057" on="0"/>
        <pt x="941" y="1208" on="0"/>
        <pt x="790" y="1208" on="1"/>
        <pt x="640" y="1208" on="0"/>
        <pt x="385" y="1057" on="0"/>
      </contour>
      <contour>
        <pt x="140" y="514" on="0"/>
        <pt x="140" y="778" on="0"/>
        <pt x="243" y="1019" on="0"/>
        <pt x="417" y="1194" on="0"/>
        <pt x="658" y="1297" on="0"/>
        <pt x="922" y="1297" on="0"/>
        <pt x="1164" y="1194" on="0"/>
        <pt x="1338" y="1019" on="0"/>
        <pt x="1442" y="778" on="0"/>
        <pt x="1442" y="514" on="0"/>
        <pt x="1338" y="273" on="0"/>
        <pt x="1164" y="98" on="0"/>
        <pt x="922" y="-5" on="0"/>
        <pt x="658" y="-5" on="0"/>
        <pt x="417" y="98" on="0"/>
        <pt x="243" y="273" on="0"/>
      </contour>
    </TTGlyph>
    <TTGlyph name="ring" xMin="116" yMin="905" xMax="582" yMax="1350">
      <contour>
        <pt x="486" y="1127" on="1"/>
        <pt x="486" y="1191" on="0"/>
        <pt x="415" y="1266" on="0"/>
        <pt x="350" y="1266" on="1"/>
        <pt x="287" y="1266" on="0"/>
        <pt x="213" y="1190" on="0"/>
        <pt x="213" y="1127" on="1"/>
        <pt x="213" y="1063" on="0"/>
        <pt x="286" y="989" on="0"/>
        <pt x="350" y="989" on="1"/>
        <pt x="413" y="989" on="0"/>
        <pt x="486" y="1065" on="0"/>
      </contour>
      <contour>
        <pt x="350" y="905" on="1"/>
        <pt x="245" y="905" on="0"/>
        <pt x="116" y="1028" on="0"/>
        <pt x="116" y="1127" on="1"/>
        <pt x="116" y="1229" on="0"/>
        <pt x="247" y="1350" on="0"/>
        <pt x="350" y="1350" on="1"/>
        <pt x="452" y="1350" on="0"/>
        <pt x="582" y="1226" on="0"/>
        <pt x="582" y="1127" on="1"/>
        <pt x="582" y="1027" on="0"/>
        <pt x="452" y="905" on="0"/>
      </contour>
    </TTGlyph>
    <TTGlyph name="s" xMin="109" yMin="-10" xMax="762" yMax="1000">
      <contour>
        <pt x="150" y="167" on="1"/>
        <pt x="200" y="139" on="0"/>
        <pt x="359" y="96" on="0"/>
        <pt x="432" y="96" on="1"/>
        <pt x="524" y="96" on="0"/>
        <pt x="637" y="175" on="0"/>
        <pt x="637" y="265" on="1"/>
        <pt x="637" y="335" on="0"/>
        <pt x="573" y="404" on="0"/>
        <pt x="506" y="425" on="1"/>
        <pt x="356" y="472" on="1"/>
        <pt x="296" y="491" on="0"/>
        <pt x="219" y="528" on="0"/>
        <pt x="153" y="587" on="0"/>
        <pt x="123" y="674" on="0"/>
        <pt x="123" y="735" on="1"/>
        <pt x="123" y="869" on="0"/>
        <pt x="307" y="1000" on="0"/>
        <pt x="587" y="1000" on="0"/>
        <pt x="713" y="942" on="1"/>
        <pt x="675" y="846" on="1"/>
        <pt x="572" y="895" on="0"/>
        <pt x="456" y="895" on="1"/>
        <pt x="363" y="895" on="0"/>
        <pt x="245" y="816" on="0"/>
        <pt x="245" y="730" on="1"/>
        <pt x="245" y="666" on="0"/>
        <pt x="310" y="614" on="0"/>
        <pt x="394" y="587" on="1"/>
        <pt x="541" y="540" on="1"/>
        <pt x="622" y="514" on="0"/>
        <pt x="713" y="453" on="0"/>
        <pt x="762" y="350" on="0"/>
        <pt x="762" y="271" on="1"/>
        <pt x="762" y="196" on="0"/>
        <pt x="710" y="84" on="0"/>
        <pt x="617" y="20" on="0"/>
        <pt x="505" y="-10" on="0"/>
        <pt x="438" y="-10" on="1"/>
        <pt x="272" y="-10" on="0"/>
        <pt x="109" y="69" on="1"/>
      </contour>
    </TTGlyph>
    <TTGlyph name="sacute" xMin="109" yMin="-10" xMax="762" yMax="1553">
      <component glyphName="acute" x="262" y="190" flags="0x1004"/>
      <component glyphName="s" x="0" y="0" flags="0x1204"/>
    </TTGlyph>
    <TTGlyph name="scaron" xMin="109" yMin="-10" xMax="762" yMax="1533">
      <component glyphName="caron" x="263" y="170" flags="0x1004"/>
      <component glyphName="s" x="0" y="0" flags="0x1204"/>
    </TTGlyph>
    <TTGlyph name="scedilla" xMin="109" yMin="-388" xMax="762" yMax="1000">
      <component glyphName="cedilla" x="-12" y="73" flags="0x1004"/>
      <component glyphName="s" x="0" y="0" flags="0x1204"/>
    </TTGlyph>
    <TTGlyph name="scircumflex" xMin="109" yMin="-10" xMax="762" yMax="1504">
      <component glyphName="circumflex" x="-7" y="141" flags="0x1004"/>
      <component glyphName="s" x="0" y="0" flags="0x1204"/>
    </TTGlyph>
    <TTGlyph name="scommaaccent" xMin="109" yMin="-657" xMax="762" yMax="1000">
      <component glyphName="comma" x="210" y="-383" flags="0x1004"/>
      <component glyphName="s" x="0" y="0" flags="0x1204"/>
    </TTGlyph>
</ttFont>
